<svg xmlns="http://www.w3.org/2000/svg" width="72.937" height="74.438" viewBox="0 0 72.937 74.438"><defs><style>.cls-1{fill:#f58536;fill-rule:evenodd}</style></defs><path id="amazon_lambda.svg" class="cls-1" d="M855.785 925.468h-18.711a1.522 1.522 0 0 1-1.367-.849l-26.458-54.238h-11.193a1.5 1.5 0 0 1-1.519-1.489v-16.377a1.5 1.5 0 0 1 1.519-1.488h23.389a1.52 1.52 0 0 1 1.367.848l26.336 54.238h6.637a1.5 1.5 0 0 1 1.515 1.487v16.377a1.5 1.5 0 0 1-1.515 1.491zm-17.755-2.978h16.237v-13.4h-6.076a1.524 1.524 0 0 1-1.367-.849L820.488 854h-20.9v13.4h10.631a1.52 1.52 0 0 1 1.367.848zm-32.4 2.978h-19.74a1.526 1.526 0 0 1-1.291-.7 1.465 1.465 0 0 1-.076-1.489l20.656-42.3a1.522 1.522 0 0 1 1.367-.849 1.524 1.524 0 0 1 1.367.834L817.8 900.9a1.459 1.459 0 0 1 0 1.295l-10.783 22.335a1.52 1.52 0 0 1-1.383.938zm-17.31-2.978h16.357l10.07-20.843-8.186-16.6z" transform="translate(-784.375 -851.031)"/></svg>