<svg xmlns="http://www.w3.org/2000/svg" width="91.656" height="79.031" viewBox="0 0 91.656 79.031"><defs><style>.cls-1{fill:#f58536;fill-rule:evenodd}</style></defs><path id="amazon_ct.svg" class="cls-1" d="M852.373 671.835c-.385-5.655-3.314-9.857-7.983-11.365a11.4 11.4 0 0 0-10.455 1.795 26.6 26.6 0 0 0-5.494-7.954 24.308 24.308 0 0 0-27.081-5.279 24.718 24.718 0 0 0-14.355 21.924v1.31a16.421 16.421 0 0 0-11.993 16.555 18.247 18.247 0 0 0 8.9 16.034 10.249 10.249 0 0 0 5.749 1.311l16.479.144v17.955a1.793 1.793 0 0 0 1.007 1.6 1.864 1.864 0 0 0 1.831-.144l27.155-19.409H850.3c.165 0 16.351-1.383 16.351-17.345.004-12.194-9.572-16-14.278-17.132zm-2.2 30.883h-14.645a1.861 1.861 0 0 0-1.081.342l-24.554 17.668v-16.16a1.814 1.814 0 0 0-1.831-1.8h-18.31a7 7 0 0 1-3.791-.9 14.588 14.588 0 0 1-7.2-13 13.1 13.1 0 0 1 10.694-13.5 1.8 1.8 0 0 0 1.373-1.8l-.165-2.729a21.181 21.181 0 0 1 12.085-18.458 21.923 21.923 0 0 1 8.423-1.8 21.291 21.291 0 0 1 14.648 6.285 24.124 24.124 0 0 1 5.713 9.211 1.825 1.825 0 0 0 1.468 1.198 1.849 1.849 0 0 0 1.739-.7 7.683 7.683 0 0 1 8.5-2.729c3.479 1.131 5.493 4.489 5.493 9.139a1.8 1.8 0 0 0 1.483 2.047c3.846.647 12.818 3.286 12.818 13.9-.04 12.637-12.473 13.751-12.857 13.786zm-10.071-30.524a6.348 6.348 0 0 0-6.409 6.285 5.962 5.962 0 0 0 .916 3.322l-6.464 7.182a6.188 6.188 0 0 1 2.8 2.424l6.5-7.183a6.062 6.062 0 0 0 2.655.539 6.286 6.286 0 1 0 .005-12.569zm0 8.978a2.694 2.694 0 1 1 2.747-2.693 2.721 2.721 0 0 1-2.744 2.693zm-9.155 10.235a6.53 6.53 0 0 0-7.324-2.8l-6.354-9.5a6.1 6.1 0 0 0 1.776-4.219 6.41 6.41 0 0 0-12.817 0 6.018 6.018 0 0 0 .915 3.052l-7.818 7.595a6.478 6.478 0 0 0-8.739 2.357 6.219 6.219 0 0 0 2.4 8.569 6.476 6.476 0 0 0 8.739-2.357 6.2 6.2 0 0 0 .837-3.057 6.017 6.017 0 0 0-.769-2.962l7.855-7.649a6.41 6.41 0 0 0 4.559.539l6.409 9.57a6.089 6.089 0 0 0-1.575 4.094 6.41 6.41 0 0 0 12.817 0 5.954 5.954 0 0 0-.908-3.232zm-34.79 2.334a2.694 2.694 0 1 1 2.747-2.694 2.72 2.72 0 0 1-2.744 2.694zm16.48-16.16a2.694 2.694 0 1 1 2.746-2.693 2.721 2.721 0 0 1-2.743 2.693zm12.817 19.751a2.694 2.694 0 1 1 2.746-2.693 2.721 2.721 0 0 1-2.743 2.693z" transform="translate(-775 -647.031)"/></svg>