<svg xmlns="http://www.w3.org/2000/svg" width="78.535" height="77.188" viewBox="0 0 78.535 77.188"><defs><style>.cls-1{fill:#f58536;fill-rule:evenodd}</style></defs><path id="amazon_lex.svg" class="cls-1" d="M1042.38 647h-45.223a3.286 3.286 0 0 0-3.3 3.259v29.007a3.286 3.286 0 0 0 3.3 3.259h6.033l.09.17v8.31a2.506 2.506 0 0 0 1.57 2.1 2.567 2.567 0 0 0 .9.17 2.5 2.5 0 0 0 1.68-.664l8.38-8.032v-4.294l-9.42 9.036V682.8a3.06 3.06 0 0 0-.75-2.348 3.328 3.328 0 0 0-2.39-1.019h-6.093a.172.172 0 0 1-.157-.17V650.26a.172.172 0 0 1 .157-.17h45.223a.173.173 0 0 1 .15.17v24.54h3.14v-24.54a3.282 3.282 0 0 0-3.29-3.26zm-13.98 10.812h-26.69v-3.089h26.69v3.089zm9.42 0h-6.28v-3.089h6.28v3.089zm-21.98 7.723h-14.13v-3.089h14.13v3.089zm21.98 0h-17.27v-3.089h17.27v3.089zm-14.13 7.723h-21.98v-3.09h21.98v3.09zm9.42 0h-6.28v-3.09h6.28v3.09zm24.34 50.94a2.4 2.4 0 0 1-1.57-.633L1045.2 713.4h-22.97a3.414 3.414 0 0 1-3.25-3.352v-29.7a4 4 0 0 1 4-4h46.29a3.109 3.109 0 0 1 3.15 3.08 1.943 1.943 0 0 1-.01.241v30.459a3.264 3.264 0 0 1-3.25 3.274h-9.23a.251.251 0 0 0-.14.216v8.171a2.323 2.323 0 0 1-1.41 2.224 2.591 2.591 0 0 1-.93.187zm-.75-2.394zm-11.34-11.477a2.911 2.911 0 0 1 1.98.773l9.42 9v-6.518a3.283 3.283 0 0 1 3.26-3.26h9.19a.228.228 0 0 0 .11-.2v-30.453a.248.248 0 0 0-.25-.248h-46.26a.624.624 0 0 0-.69.742v29.81a.489.489 0 0 0 .36.355h22.88zm1.4-3.089h-2.04a1.572 1.572 0 0 1-1.4-.787l-.82-1.545a13.639 13.639 0 0 1-1.57-.649l-1.69.541a1.583 1.583 0 0 1-1.57-.371l-1.45-1.436a1.529 1.529 0 0 1-.39-1.545l.55-1.637a7.426 7.426 0 0 1-.72-1.684l-1.57-.756a1.534 1.534 0 0 1-.85-1.391v-2.008a1.53 1.53 0 0 1 .85-1.374l1.57-.788a10.206 10.206 0 0 1 .69-1.653l-.54-1.652a1.512 1.512 0 0 1 .4-1.545l1.44-1.421a1.584 1.584 0 0 1 1.57-.386l1.66.54a13.275 13.275 0 0 1 1.59-.865l.85-1.544a1.56 1.56 0 0 1 1.4-.85h2.04a1.556 1.556 0 0 1 1.39.85l.79 1.544a10.033 10.033 0 0 1 1.69.68l1.57-.525a1.587 1.587 0 0 1 1.57.386l1.45 1.421a1.549 1.549 0 0 1 .38 1.545l-.54 1.652a9.014 9.014 0 0 1 .82 1.7l1.57.865a1.532 1.532 0 0 1 .86 1.375v2.008a1.526 1.526 0 0 1-.86 1.251l-1.57.772a10.04 10.04 0 0 1-.71 1.653l.55 1.653a1.505 1.505 0 0 1-.38 1.544l-1.44 1.437a1.588 1.588 0 0 1-1.57.371l-1.68-.541a10.649 10.649 0 0 1-1.57.664l-.8 1.545a1.58 1.58 0 0 1-1.56.942zm-1.09-3.089h.11l.68-1.313a1.578 1.578 0 0 1 1.03-.8 7.258 7.258 0 0 0 2.11-.88 1.593 1.593 0 0 1 1.32-.155l1.41.464.08-.093-.46-1.39a1.525 1.525 0 0 1 .16-1.282 7.69 7.69 0 0 0 .88-2.1 1.566 1.566 0 0 1 .82-1.019l1.31-.664v-.127l-1.33-.695a1.546 1.546 0 0 1-.82-1 6.654 6.654 0 0 0-.88-2.085 1.523 1.523 0 0 1-.15-1.282l.45-1.39-.08-.078-1.39.433a1.6 1.6 0 0 1-1.31-.155 7.79 7.79 0 0 0-2.15-.88 1.563 1.563 0 0 1-1.03-.788l-.66-1.3h-.13l-.67 1.3a1.585 1.585 0 0 1-.96.773 9.951 9.951 0 0 0-2.26.895 1.6 1.6 0 0 1-1.31.155l-1.39-.433-.1.078.46 1.39a1.526 1.526 0 0 1-.16 1.282 7.757 7.757 0 0 0-.88 2.116 1.561 1.561 0 0 1-.81 1l-1.31.664v.124l1.32.664a1.536 1.536 0 0 1 .83 1.1 5.541 5.541 0 0 0 .91 2.055 1.525 1.525 0 0 1 .16 1.282l-.47 1.385.09.092 1.42-.463a1.586 1.586 0 0 1 1.3.155 9.635 9.635 0 0 0 2.2.88 1.6 1.6 0 0 1 .96.788zm0-4.634a10.66 10.66 0 1 1 .03-.015zm0-6.5a1.869 1.869 0 1 0 1.89 1.884v-.031a1.87 1.87 0 0 0-1.86-1.868z" transform="translate(-993.875 -647)"/></svg>