<svg width="82" height="82" viewBox="0 0 82 82" xmlns="http://www.w3.org/2000/svg"><title>amazon_connect</title><g fill-rule="nonzero" fill="none"><circle fill="#3D4C5E" cx="41" cy="41" r="41"/><path d="M67.6 29.6c-1.5-3.5-3.6-6.6-6.3-9.3-5.5-5.5-12.8-8.5-20.5-8.5h-.1c-5.2 0-10.4 1.5-15.1 4.3-4.4 2.7-8.1 6.4-10.4 10.6-.2.4-.1.8.3 1 .4.2.8.1 1-.3 2.1-3.9 5.6-7.5 9.8-10 4.4-2.7 9.4-4.1 14.3-4.1h.1c7.4 0 14.3 2.9 19.5 8.1 5.2 5.2 8.1 12.2 8.1 19.7 0 7.4-2.9 14.4-8.1 19.6-5.2 5.2-12.2 8.1-19.6 8.1-4.9 0-9.7-1.3-13.9-3.8-4.1-2.4-7.5-5.8-9.9-9.9-.2-.3-.6-.5-1-.3-.3.2-.5.6-.3 1 2.5 4.3 6.1 7.9 10.5 10.4 4.4 2.6 9.5 4 14.7 4 7.8 0 15.1-3 20.6-8.5 5.5-5.5 8.5-12.8 8.5-20.6.1-4.1-.7-7.9-2.2-11.5" stroke="#F17920" stroke-width=".995" fill="#F17920" stroke-linecap="round" stroke-linejoin="round"/><path d="M62.7 37.5c-1.3-1.7-3.2-2.8-5.5-3.3C56.5 31.8 55 30 53 29c-1.9-.9-4.1-.9-6.2-.1-1-3-2.9-5.2-5.6-6.7-2.6-1.4-5.6-1.8-8.6-1.1-2.9.6-5.3 2.2-6.9 4.5-1.7 2.4-2.3 5.4-1.9 8.7-5 1.1-7 5.2-6.9 8.8.2 3.7 2.7 7.9 8 8.3H34v11.8c0 .3.2.6.4.7.1 0 .2.1.3.1.2 0 .4-.1.5-.2l13.2-12.3h7.8c5.5-.6 8.1-4.6 8.3-8.3.1-2.1-.6-4.1-1.8-5.7z" fill="#63AFB6"/><path d="M24.6 35.8c.2 0 .4-.1.5-.3.1-.2.2-.4.1-.5-.5-3.2 0-6.1 1.6-8.4 1.4-1.9 3.5-3.3 6-3.9 4.9-1.1 10.9 1.1 12.7 7.5.1.2.2.4.4.5.2.1.4.1.6 0 2-.9 4-1 5.8-.2 1.7.8 3 2.5 3.6 4.6.1.3.3.5.6.5 4.7.9 6.7 4.5 6.6 7.7-.1 1.7-.7 3.3-1.8 4.5-1.2 1.4-3 2.2-5.1 2.4h-8c-.2 0-.4.1-.5.2L35.4 61.8V50.9c0-.4-.3-.7-.7-.7h-9.8c-1.9-.1-3.6-.9-4.8-2.3-1.1-1.2-1.7-2.9-1.8-4.6-.1-1.7.4-3.4 1.4-4.7 1.1-1.5 2.8-2.5 4.9-2.8" fill="#FFF"/><path d="M7.5 32.7h9.2c.4 0 .7-.3.7-.7 0-.4-.3-.7-.7-.7H7.5c-.4 0-.7.3-.7.7 0 .4.3.7.7.7M13.6 41.4c0-.4-.3-.7-.7-.7h-8c-.4 0-.7.3-.7.7 0 .4.3.7.7.7h8c.4 0 .7-.3.7-.7M16.7 50.8c0-.4-.3-.7-.7-.7H6.1c-.4 0-.7.3-.7.7 0 .4.3.7.7.7h9.8c.4 0 .8-.3.8-.7" stroke="#F17920" stroke-width=".796" fill="#F17920"/><path d="M51.5 42.3c-.9 0-1.6-.3-2.2-.8l-2.6 2c.3.5.4 1.1.4 1.6 0 2-1.6 3.5-3.6 3.5S40 47 40 45c0-1 .4-1.9 1-2.5l-1.9-4h-.6c-.9 0-1.8-.4-2.4-1l-2.8 2.2c.2.4.3.9.3 1.4 0 2-1.6 3.5-3.6 3.5S26.5 43 26.5 41s1.6-3.5 3.6-3.5c.9 0 1.8.4 2.4 1l2.8-2.2c-.2-.4-.3-.9-.3-1.4 0-2 1.6-3.5 3.6-3.5s3.5 1.6 3.5 3.6c0 1.2-.7 2.3-1.6 3l1.7 3.7c.4-.2.8-.2 1.3-.2.8 0 1.6.3 2.2.8l2.7-2c-.2-.5-.4-1-.4-1.6 0-2 1.6-3.5 3.6-3.5s3.5 1.6 3.5 3.6c-.1 1.9-1.7 3.5-3.6 3.5z" fill="#3D4C5E"/><path d="M30.1 39.3c1.2 0 2.1.9 2.1 2.1 0 1.2-.9 2.1-2.1 2.1-1.2 0-2.1-.9-2.1-2.1 0-1.2.9-2.1 2.1-2.1M38.5 33.1c1.2 0 2.1.9 2.1 2.1 0 1.2-.9 2.1-2.1 2.1-1.2 0-2.1-.9-2.1-2.1.1-1.2 1-2.1 2.1-2.1M45.6 45.1c0 1.2-.9 2.1-2.1 2.1-1.2 0-2.1-.9-2.1-2.1 0-1.2.9-2.1 2.1-2.1 1.1 0 2.1 1 2.1 2.1M51.5 36.6c1.2 0 2.1.9 2.1 2.1 0 1.2-.9 2.1-2.1 2.1-1.2 0-2.1-.9-2.1-2.1 0-1.1 1-2.1 2.1-2.1" fill="#FFF"/></g></svg>