<svg width="82" height="83" viewBox="0 0 82 83" xmlns="http://www.w3.org/2000/svg"><title>artificial_intelligence</title><g transform="translate(-7 -6)" fill-rule="nonzero" fill="none"><circle fill="#F7C012" transform="rotate(-80.148 48 47.957)" cx="48.001" cy="47.957" r="40.998"/><path d="M74.9 46.5c0-2.2-1.2-4.2-3-5.3.5-.9.8-2 .8-3.1 0-2.9-2-5.3-4.7-6v-.4c0-3.4-2.8-6.2-6.2-6.2-.8 0-1.5.1-2.3.4-.8-2.5-3.1-4.3-5.9-4.3-2.3 0-4.2 1.2-5.3 3-1.1-1.8-3-3-5.3-3-2.8 0-5.1 1.8-5.9 4.3-.7-.3-1.5-.4-2.3-.4-3.4 0-6.2 2.8-6.2 6.2v.4c-2.7.7-4.7 3.1-4.7 6 0 1.1.3 2.2.8 3.1-1.8 1.1-3 3-3 5.3 0 1.9.8 3.6 2.2 4.7-.4.8-.6 1.8-.6 2.7 0 3 2.2 5.5 5 6.1 0 .3-.1.6-.1.8 0 3.4 2.8 6.2 6.2 6.2.6 0 1.3-.1 1.9-.3.7 2.6 3.1 4.4 5.9 4.4.9 0 1.8-.2 2.7-.6.1 0 .1-.1.2-.1s.2-.1.2-.1c.1-.1.3-.2.6-.2.6 0 1.2.3 1.4.6v7.2c0 .5.4.8.9.8h.1c.5 0 .9-.4.9-.8v-7.2c0-.3.8-.6 1.4-.6.3 0 .5.1.6.2.1.1.1.1.2.1s.1.1.2.1c.8.4 1.7.6 2.6.6 2.8 0 5.2-1.9 5.9-4.4.6.2 1.2.3 1.9.3 3.4 0 6.2-2.8 6.2-6.2 0-.3 0-.6-.1-.8 2.9-.5 5-3 5-6.1 0-.9-.2-1.9-.6-2.7 1.5-1.1 2.4-2.8 2.4-4.7z" fill="#4A4F58"/><path d="M46.1 68.4c-.6 0-1.2.2-1.7.6-.6.3-1.3.4-1.9.4-2.5 0-4.5-2-4.5-4.5s2-4.5 4.5-4.5c.5 0 .8-.4.8-.8s-.4-.8-.8-.8c-3.4 0-6.2 2.8-6.2 6.2v.1c-.5.2-1.1.3-1.6.3-2.5 0-4.5-2-4.5-4.5 0-.3 0-.5.1-.8 3.1-.3 5.5-2.8 5.6-5.9V54c0-1.7 1.4-3.1 3.1-3.1 1.7 0 3 1.3 3 3.1 0 .5.4.8.8.8s.8-.4.8-.8c0-2.6-2.1-4.8-4.8-4.8-2.5 0-4.6 2-4.7 4.5v.2c0 2.5-2 4.5-4.5 4.5h-.1c-2.4-.1-4.4-2.1-4.4-4.5 0-.6.1-1.2.4-1.8.8.4 1.7.6 2.6.6.5 0 .8-.4.8-.8s-.4-.8-.8-.8c-.9 0-1.7-.3-2.4-.7h-.1c-1.2-.8-2-2.2-2-3.7 0-2.5 2-4.5 4.5-4.5s4.5 2 4.5 4.5c0 .5.4.8.8.8s.8-.4.8-.8c0-3.4-2.8-6.2-6.2-6.2-.6 0-1.1.1-1.6.2-.5-.7-.7-1.6-.7-2.4 0-2.5 2-4.5 4.5-4.5s4.5 2 4.5 4.5v.2c.1 2.3 2 4.2 4.4 4.2.5 0 .8-.4.8-.8s-.4-.8-.8-.8c-1.5 0-2.7-1.2-2.7-2.7v-.1c-.1-3.3-2.7-5.9-6-6v-.2c0-2.5 2-4.5 4.5-4.5.7 0 1.3.1 1.9.4h.1v.2c0 3.4 2.8 6.2 6.2 6.2.5 0 .8-.4.8-.8 0-.5-.4-.8-.8-.8-2.5 0-4.5-2-4.5-4.5s2-4.5 4.5-4.5c2.3 0 4.2 1.7 4.4 3.9 0 .2-.1.4-.1.6v40.8c-.4-.6-.8-.7-1.3-.7z" fill="#E8523F"/><path d="M71.7 53.9c0 2.4-1.9 4.4-4.4 4.5h-.2c-2.5 0-4.5-2-4.5-4.5v-.2c-.1-2.5-2.2-4.5-4.7-4.5-2.6 0-4.8 2.1-4.8 4.8 0 .5.4.8.8.8s.8-.4.8-.8c0-1.7 1.4-3.1 3.1-3.1 1.7 0 3.1 1.4 3.1 3.1v.2c.1 3.1 2.5 5.6 5.6 5.9 0 .3.1.5.1.8 0 2.5-2 4.5-4.5 4.5-.6 0-1.1-.1-1.6-.3V65c0-3.4-2.8-6.2-6.2-6.2-.5 0-.8.4-.8.8s.4.8.8.8c2.5 0 4.5 2 4.5 4.5s-2 4.5-4.5 4.5c-.7 0-1.3-.1-1.9-.4-.5-.4-1-.6-1.7-.6-.5 0-1.1.1-1.4.3V27.9c0-.2-.1-.4-.1-.6.3-2.2 2.2-3.9 4.4-3.9 2.5 0 4.5 2 4.5 4.5s-2 4.5-4.5 4.5c-.5 0-.8.4-.8.8 0 .5.4.8.8.8 3.4 0 6.2-2.8 6.2-6.2v-.2h.1c.6-.3 1.2-.4 1.9-.4 2.5 0 4.5 2 4.5 4.5v.2c-3.3.1-5.9 2.8-6 6v.1c0 1.5-1.2 2.7-2.7 2.7-.5 0-.8.4-.8.8s.4.8.8.8c2.4 0 4.3-1.9 4.4-4.2V38c0-2.5 2-4.5 4.5-4.5s4.5 2 4.5 4.5c0 .9-.3 1.7-.7 2.4-.5-.1-1.1-.2-1.6-.2-3.4 0-6.2 2.8-6.2 6.2 0 .5.4.8.8.8s.8-.4.8-.8c0-2.5 2-4.5 4.5-4.5s4.5 2 4.5 4.5c0 1.6-.8 2.9-2 3.7H71c-.7.5-1.5.7-2.4.7-.5 0-.8.4-.8.8s.4.8.8.8c.9 0 1.8-.2 2.6-.6.4.9.5 1.5.5 2.1z" fill="#63AFB6"/><path d="M43.1 41.2c0 .5.4.8.8.8s.8-.4.8-.8c0-2.4-2-4.4-4.4-4.4-.5 0-.8.4-.8.8s.4.8.8.8c1.5.1 2.8 1.3 2.8 2.8zM41.4 26c-.5 0-.8.4-.8.9s.4.8.9.8c.7 0 1.4.2 2 .7.5.5.9 1.2.9 1.9 0 .4.4.8.8.8.5 0 .8-.4.8-.9-.1-1.2-.6-2.2-1.4-3-.9-.8-2-1.2-3.2-1.2zM51.6 31c.1 0 .1 0 0 0 .5 0 .8-.3.9-.8.1-1.5 1.4-2.7 2.9-2.6.5 0 .8-.3.9-.8 0-.5-.3-.8-.8-.9-1.2-.1-2.3.3-3.2 1.1-.9.8-1.4 1.9-1.4 3-.1.6.3 1 .7 1zM40.2 44.9c-.4.1-.7.6-.5 1 .1.4.6.7 1 .5 1.4-.5 3 .3 3.4 1.8.1.3.4.6.8.6h.3c.4-.1.7-.6.5-1-.7-2.3-3.2-3.6-5.5-2.9zM44.7 61.3c-.5 0-.9.3-.9.7-.1 1.5-1.5 2.6-3 2.5-.5 0-.9.3-.9.7 0 .5.3.9.7.9h.4c2.2 0 4.1-1.7 4.4-4 .1-.3-.2-.7-.7-.8zM52.1 61.3c-.5 0-.8.4-.7.9.2 2.3 2.1 4 4.4 4h.4c.5 0 .8-.4.7-.9 0-.5-.4-.8-.9-.7-1.5.1-2.8-1-3-2.5-.1-.5-.5-.8-.9-.8zM68 45.5c-.4 0-.8.4-.8.8a2.732 2.732 0 0 1-2.7 2.7c-.5 0-.8.4-.8.8 0 .5.4.8.8.8h.1c1.1 0 2.2-.4 3-1.2.8-.8 1.3-1.9 1.3-3.1-.1-.4-.5-.8-.9-.8zM32.4 49a2.732 2.732 0 0 1-2.7-2.7c0-.5-.4-.8-.8-.8-.5 0-.8.4-.8.8 0 1.2.5 2.3 1.3 3.1.8.8 1.9 1.2 3 1.2h.1c.5 0 .8-.4.8-.8-.1-.5-.5-.8-.9-.8zM56.5 44.9c-2.3-.7-4.8.5-5.5 2.8-.1.4.1.9.5 1h.3c.3 0 .7-.2.8-.6.5-1.4 2-2.2 3.4-1.8.4.1.9-.1 1-.5.2-.3 0-.7-.5-.9zM52.9 42c.5 0 .8-.4.8-.8 0-1.5 1.2-2.7 2.7-2.7.5 0 .8-.4.8-.8s-.4-.8-.8-.8c-2.4 0-4.4 2-4.4 4.4.1.4.5.7.9.7z" fill="#4A4F58"/></g></svg>