<svg width="54" height="43" viewBox="0 0 54 43" xmlns="http://www.w3.org/2000/svg"><title>aws_icon9</title><g fill="#FF5A00" fill-rule="nonzero"><path d="M36 42.3H19.5c-.5 0-.9-.4-.9-.9 0-3.8 2.4-7.1 5.7-8.5-1.3-1-2.2-2.7-2.2-4.4 0-3.1 2.5-5.7 5.7-5.7 3.1 0 5.7 2.6 5.7 5.7 0 1.8-.9 3.4-2.2 4.4 3.3 1.4 5.6 4.7 5.6 8.5 0 .5-.4.9-.9.9zm-15.6-1.8h14.7c-.4-3.3-2.9-6-6.2-6.5-.7.2-1.5.2-2.2 0-3.3.5-5.9 3.2-6.3 6.5zm7.4-8.3c.3 0 .7 0 1 .1 1.7-.5 2.9-2 2.9-3.8 0-2.1-1.8-3.9-3.9-3.9-2.2 0-3.9 1.8-3.9 3.9 0 1.8 1.3 3.3 2.9 3.8.3 0 .7-.1 1-.1zM19.2 29.4H6.3c-.5 0-.9-.4-.9-.9 0-2.9 1.7-5.5 4.2-6.7-.9-.9-1.5-2.1-1.5-3.4 0-2.6 2.1-4.7 4.7-4.7 2.5 0 4.7 2.1 4.7 4.7 0 1.4-.6 2.6-1.5 3.4 2.5 1.2 4.1 3.7 4.1 6.7 0 .5-.4.9-.9.9zm-12-1.8h11.1c-.3-2.4-2.1-4.3-4.5-4.7-.7.1-1.4.1-2 0-2.4.5-4.2 2.4-4.6 4.7zm5.6-12.1c-1.6 0-2.9 1.3-2.9 2.9 0 1.3.9 2.4 2 2.8.6-.1 1.2-.1 1.8 0 1.2-.4 2-1.5 2-2.8 0-1.6-1.3-2.9-2.9-2.9zM48.4 29.4H35.5c-.5 0-.9-.4-.9-.9 0-2.9 1.7-5.4 4.2-6.6-1-.9-1.6-2.1-1.6-3.5 0-2.6 2.1-4.7 4.7-4.7s4.7 2.1 4.7 4.7c0 1.4-.6 2.6-1.5 3.4 2.5 1.2 4.2 3.7 4.2 6.7 0 .5-.4.9-.9.9zm-12-1.8h11.1c-.4-2.4-2.2-4.3-4.5-4.7-.6.2-1.4.2-2 0-2.4.5-4.2 2.4-4.6 4.7zm5.5-12.1c-1.6 0-2.9 1.3-2.9 2.9 0 1.3.9 2.4 2.1 2.8.6-.1 1.2-.1 1.8 0 1.2-.4 2-1.5 2-2.8-.1-1.6-1.4-2.9-3-2.9z"/><path d="M17.3 42.4H6.7c-1.7 0-3.1-.6-4.3-1.8C1.3 39.5.6 38 .6 36.3V9.9c0-1.7.6-3.1 1.8-4.3C3.5 4.5 5 3.8 6.7 3.8c.5 0 .9.4.9.9s-.4.9-.9.9c-1.2 0-2.3.4-3.1 1.2-.9.9-1.2 1.8-1.2 3.1v26.4c0 1.2.4 2.3 1.2 3.1.9.9 1.8 1.2 3.1 1.2h10.6c.5 0 .9.4.9.9s-.4.9-.9.9zM14.2 6.4h-1.4c-.5 0-.9-.4-.9-.9V4.1c0-.5.4-.9.9-.9s.9.4.9.9v.5h.5c.5 0 .9.4.9.9s-.4.9-.9.9z"/><path d="M12.8 7.8c-.5 0-.9-.4-.9-.9v-.5h-.5c-.5 0-.9-.4-.9-.9s.4-.9.9-.9h1.4c.5 0 .9.4.9.9v1.4c0 .5-.4.9-.9.9z"/><path d="M12.8 15c-.5 0-.9-.4-.9-.9V9.9c0-.5.4-.9.9-.9 1 0 1.9-.4 2.6-1 .7-.6 1-1.6 1-2.6s-.4-1.9-1-2.6c-.7-.7-1.5-1-2.6-1-.5 0-.9-.4-.9-.9s.4-.9.9-.9c1.5 0 2.7.5 3.8 1.6 1 1 1.6 2.3 1.6 3.8s-.5 2.8-1.6 3.8c-.8.8-1.8 1.3-2.9 1.5v3.4c0 .5-.4.9-.9.9z"/><path d="M12.8 10.9c-1.5 0-2.7-.5-3.8-1.6-1-1-1.6-2.3-1.6-3.8S7.9 2.7 9 1.7c1-1 2.3-1.6 3.8-1.6.5 0 .9.4.9.9s-.4.9-.9.9c-1 0-1.9.4-2.6 1-.7.7-1 1.6-1 2.6s.4 1.9 1 2.6c.7.7 1.5 1 2.6 1 .5 0 .9.4.9.9s-.4.9-.9.9zM27.7 24.5c-.5 0-.9-.4-.9-.9V10c0-.5.4-.9.9-.9 1 0 1.9-.4 2.6-1 .7-.7 1-1.5 1-2.6 0-1-.4-1.9-1-2.6-.7-.7-1.5-1-2.6-1-.5 0-.9-.4-.9-.9s.4-.9.9-.9c1.5 0 2.7.5 3.8 1.6 1 1 1.6 2.3 1.6 3.8s-.5 2.7-1.6 3.8c-.8.8-1.8 1.3-2.9 1.5v12.8c0 .5-.4.9-.9.9z"/><path d="M29.1 6.4h-1.4c-.5 0-.9-.4-.9-.9V4.1c0-.5.4-.9.9-.9s.9.4.9.9v.5h.5c.5 0 .9.4.9.9s-.4.9-.9.9z"/><path d="M27.7 7.8c-.5 0-.9-.4-.9-.9v-.5h-.5c-.5 0-.9-.4-.9-.9s.4-.9.9-.9h1.4c.5 0 .9.4.9.9v1.4c0 .5-.4.9-.9.9z"/><path d="M27.7 11c-1.5 0-2.7-.5-3.8-1.6-1-1-1.6-2.3-1.6-3.8s.5-2.7 1.6-3.8c1-1 2.3-1.6 3.8-1.6.5 0 .9.4.9.9s-.4.9-.9.9c-1 0-1.9.4-2.6 1-.7.7-1 1.5-1 2.6 0 1 .4 1.9 1 2.6.7.7 1.5 1 2.6 1 .5 0 .9.4.9.9s-.4.9-.9.9zM47.7 42.3h-10c-.5 0-.9-.4-.9-.9s.4-.9.9-.9h10c1.2 0 2.3-.4 3.1-1.2.9-.9 1.2-1.8 1.2-3.1V9.9c0-1.2-.4-2.3-1.2-3.1-.9-.9-1.8-1.2-3.1-1.2-.5 0-.9-.4-.9-.9s.4-.9.9-.9c1.7 0 3.1.6 4.3 1.8 1.1 1.1 1.8 2.6 1.8 4.3v26.3c0 1.7-.6 3.1-1.8 4.3-1.1 1.2-2.6 1.8-4.3 1.8z"/><path d="M41.9 11c-1.5 0-2.8-.5-3.8-1.6-1.1-1.1-1.6-2.3-1.6-3.8s.5-2.8 1.6-3.8C39.2.7 40.4.2 41.9.2c1.6 0 2.9.5 3.8 1.6 1 1 1.5 2.2 1.5 3.8 0 1.5-.5 2.8-1.6 3.8-1 1.1-2.2 1.6-3.7 1.6zm0-9c-1.1 0-1.9.3-2.6 1-.7.7-1 1.6-1 2.6 0 1.1.3 1.9 1 2.6.7.7 1.6 1 2.6 1 1.1 0 1.9-.3 2.6-1 .7-.7 1-1.6 1-2.6 0-1.1-.3-1.9-1-2.6-.6-.7-1.5-1-2.6-1z"/><path d="M41.9 15.1c-.5 0-.9-.4-.9-.9v-4c0-.5.4-.9.9-.9s.9.4.9.9v4c0 .5-.4.9-.9.9z"/><g><path d="M43.4 6.7H42c-.5 0-.9-.4-.9-.9V4.4c0-.5.4-.9.9-.9s.9.4.9.9v.5h.5c.5 0 .9.4.9.9s-.4.9-.9.9z"/><path d="M42 8.1c-.5 0-.9-.4-.9-.9v-.5h-.5c-.5 0-.9-.4-.9-.9s.4-.9.9-.9H42c.5 0 .9.4.9.9v1.4c0 .5-.4.9-.9.9z"/></g></g></svg>