<svg width="54" height="54" viewBox="0 0 54 54" xmlns="http://www.w3.org/2000/svg"><title>aws_icon3</title><path d="M35.7 54c-1 0-2-.4-2.7-1.1-.8-.8-1.1-1.6-1.1-2.7 0-1 .4-2 1.1-2.7.5-.5 1.1-.8 1.7-1v-2.7l-2.9-2.9-.4.4c-1.2 1.2-2.6 1.8-4.2 1.8s-3-.6-4.2-1.8l-.4-.4-2.9 2.9v2.7c.6.2 1.2.5 1.7 1 .8.8 1.1 1.6 1.1 2.7 0 1-.4 2-1.1 2.7-.8.8-1.6 1.1-2.7 1.1-1 0-2-.4-2.7-1.1-.8-.8-1.1-1.6-1.1-2.7 0-1 .4-2 1.1-2.7.5-.5 1.1-.8 1.7-1v-3.1c0-.3.1-.5.3-.7l3.2-3.2-2.5-2.4-8.2 8.2c.3.5.5 1.2.5 1.9 0 .9-.3 1.7-.8 2.4l-.1.1c0 .1-.1.2-.2.3-.9.9-1.8 1.1-2.6 1.2h-.1c-.9 0-1.8-.3-2.5-.9 0 0-.1 0-.1-.1l-.1-.1c-.8-.8-1.1-1.6-1.1-2.7 0-.9.3-1.8.8-2.4.1-.4.4-.7.7-.9.6-.5 1.4-.7 2.3-.7.7 0 1.4.2 1.9.5l8.2-8.2-2.4-2.4-3.1 3.1c-.2.2-.4.3-.7.3H7.9c-.2.6-.5 1.2-1 1.7-.8.8-1.6 1.1-2.7 1.1-1 0-2-.4-2.7-1.1-.8-.8-1.1-1.6-1.1-2.7 0-1 .4-2 1.1-2.7.8-.8 1.6-1.1 2.7-1.1 1 0 2 .4 2.7 1.1.5.5.8 1.1 1 1.7h2.7l2.9-2.9-.4-.4c-1.2-1.2-1.8-2.6-1.8-4.2s.6-3 1.8-4.2l.4-.4-2.9-2.9H7.9c-.2.6-.5 1.2-1 1.7-.8.8-1.6 1.1-2.7 1.1-1 0-2-.4-2.7-1.1-.8-.8-1.1-1.6-1.1-2.7 0-1 .4-2 1.1-2.7.8-.8 1.6-1.1 2.7-1.1 1 0 2 .4 2.7 1.1.5.6.8 1.1.9 1.7H11c.3 0 .5.1.7.3l3.2 3.2 2.4-2.4-8.2-8.2c-.5.3-1.2.5-1.9.5-.9 0-1.7-.3-2.4-.8l-.1-.1c-.1 0-.2-.1-.3-.2-.9-.9-1.1-1.8-1.2-2.6v-.1c0-.9.3-1.8.9-2.5 0 0 0-.1.1-.1l.1-.1C5 3.8 5.9 3.5 7 3.5c1 0 2 .4 2.7 1.1.1.1.3.3.4.5.4.6.7 1.3.7 2 .2.6.1 1.3-.3 2l8.2 8.2 2.4-2.4-3.1-3.2c-.2-.2-.3-.4-.3-.7V7.9c-.6-.2-1.2-.5-1.7-1-.8-.8-1.1-1.6-1.1-2.7 0-1 .4-2 1.1-2.7.8-.8 1.6-1.1 2.7-1.1 1 0 2 .4 2.7 1.1.8.8 1.1 1.6 1.1 2.7 0 1-.4 2-1.1 2.7-.5.5-1.1.8-1.7 1v2.7l2.8 3 .5-.5c1.2-1.2 2.5-1.7 4.2-1.7 1.6 0 2.9.5 4.2 1.7l.4.4 2.9-2.9V7.9c-.6-.2-1.2-.5-1.7-1-.8-.8-1.1-1.6-1.1-2.7 0-1 .4-2 1.1-2.7.8-.8 1.6-1.1 2.7-1.1 1 0 2 .4 2.7 1.1.8.8 1.1 1.6 1.1 2.7 0 1-.4 2-1.1 2.7-.5.5-1.1.8-1.7 1V11c0 .3-.1.5-.3.7l-3.2 3.2 2.5 2.5 8.1-8.1c-.3-.6-.5-1.2-.5-1.9 0-.9.2-1.6.7-2.3.1-.3.3-.4.4-.6.9-.7 1.8-1.1 2.8-1.1 1.1 0 2 .3 2.7 1.1l.1.1.2.2c.6.7.9 1.6.9 2.5v.1c-.1.8-.3 1.7-1.2 2.6-.1.1-.2.2-.3.2l-.1.1c-.7.5-1.5.8-2.4.8-.7 0-1.4-.2-1.9-.5L37 18.8l2.4 2.4 3.2-3.2c.2-.2.4-.3.7-.3h3.1c.2-.6.5-1.2 1-1.7.8-.8 1.6-1.1 2.7-1.1 1 0 2 .4 2.7 1.1.8.8 1.1 1.6 1.1 2.7 0 1-.4 2-1.1 2.7-.8.8-1.6 1.1-2.7 1.1-1 0-2-.4-2.7-1.1-.5-.5-.8-1.1-1-1.7h-2.7l-2.9 2.9.4.4c1.2 1.2 1.7 2.5 1.7 4.2 0 1.6-.5 2.9-1.7 4.2l-.4.4 2.9 2.9h2.7c.2-.6.5-1.2 1-1.7.8-.8 1.6-1.1 2.7-1.1 1 0 2 .4 2.7 1.1.8.8 1.1 1.6 1.1 2.7 0 1-.4 2-1.1 2.7-.8.8-1.6 1.1-2.7 1.1-1 0-2-.4-2.7-1.1-.5-.5-.8-1.1-1-1.7h-3.1c-.3 0-.5-.1-.7-.3l-3.2-3.2-2.4 2.4 8.2 8.2c.6-.3 1.2-.5 1.9-.5.9 0 1.7.3 2.4.8l.1.1c.1 0 .2.1.3.2.8.8 1.1 1.6 1.1 2.7 0 1-.4 2-1.1 2.7l-.1.1c-.6.6-1.6 1-2.6 1-1.1 0-2.1-.4-2.8-1.3-.1-.1-.2-.2-.3-.5-.5-.6-.7-1.4-.7-2.3 0-.6.1-1.2.4-1.7L35.7 37l-2.5 2.5 3.2 3.2c.2.2.3.4.3.7v3.1c.6.2 1.2.5 1.7 1 .8.8 1.1 1.6 1.1 2.7 0 1-.4 2-1.1 2.7-.7.8-1.6 1.1-2.7 1.1zm0-5.6c-.6 0-.9.1-1.3.5-.3.3-.5.8-.5 1.3 0 .6.1.9.5 1.3.3.3.8.5 1.3.5.6 0 .9-.1 1.3-.5.3-.3.5-.8.5-1.3 0-.6-.1-.9-.5-1.3-.3-.3-.8-.5-1.3-.5zm-17 0c-.6 0-.9.1-1.3.5-.3.3-.5.8-.5 1.3 0 .6.1.9.5 1.3.3.3.8.5 1.3.5.6 0 .9-.1 1.3-.5.3-.3.5-.8.5-1.3 0-.6-.1-.9-.5-1.3-.3-.3-.8-.5-1.3-.5zM6 48.8c.3.3.8.4 1.2.4.5-.1.8-.2 1.1-.5.1-.2.2-.3.3-.4.3-.3.4-.6.4-1.1 0-.4-.1-.9-.4-1.2l-.1-.1-.1-.1c-.2-.2-.5-.4-1.2-.4-.4 0-.8.1-1.1.3 0 .2-.1.3-.2.4-.3.3-.5.8-.5 1.3 0 .6.1.9.6 1.4zm40-.5s.1 0 0 0c.3.4.8.6 1.3.6.4 0 .9-.1 1.2-.4l.1-.1c.3-.3.5-.8.5-1.3s-.1-.8-.4-1.1c-.2-.1-.3-.2-.4-.3-.3-.2-.7-.4-1.1-.4-.6 0-.9.1-1.3.5-.1.1-.1.1-.2.1-.2.3-.2.7-.2.9 0 .5.1.9.4 1.2 0 .1.1.2.1.3zm-22.7-9.5l1.1 1.1c.8.8 1.7 1.2 2.8 1.2 1.1 0 2-.4 2.8-1.2l1.1-1.1 3.7-3.6c0-.1.1-.2.2-.3l4.9-4.9c.8-.8 1.1-1.7 1.1-2.8 0-1.2-.3-2-1.1-2.8L35 19.5c-.1-.1-.2-.2-.2-.3l-3.7-3.6-1.1-1.1c-.8-.8-1.7-1.1-2.8-1.1-1.2 0-2 .3-2.8 1.1l-1.1 1.1h-.1v.1l-8.7 8.7c-.8.8-1.2 1.7-1.2 2.8 0 1.1.4 2 1.2 2.8l1.1 1.1c.1.1.2.2.2.3l3.6 3.6 3.9 3.8zm25.1-3.1c0 .6.1.9.5 1.3.3.3.8.5 1.3.5.6 0 .9-.1 1.3-.5.3-.3.5-.8.5-1.3 0-.6-.1-.9-.5-1.3-.3-.3-.8-.5-1.3-.5-.6 0-.9.1-1.3.5-.3.3-.5.8-.5 1.3zM4.2 33.9c-.6 0-.9.1-1.3.5-.3.3-.5.8-.5 1.3 0 .6.1.9.5 1.3.3.3.8.5 1.3.5.6 0 .9-.1 1.3-.5.3-.3.5-.8.5-1.3s-.2-1-.5-1.3c-.3-.3-.8-.5-1.3-.5zm44.2-15.2c0 .6.1.9.5 1.3.3.3.8.5 1.3.5.6 0 .9-.1 1.3-.5.3-.3.5-.8.5-1.3 0-.6-.1-.9-.5-1.3-.3-.3-.8-.5-1.3-.5-.6 0-.9.1-1.3.5-.3.3-.5.8-.5 1.3zM4.2 16.9c-.6 0-.9.1-1.3.5-.3.3-.5.8-.5 1.3 0 .6.1.9.5 1.3.3.3.8.5 1.3.5.6 0 .9-.1 1.3-.5.3-.3.5-.8.5-1.3s-.2-1-.6-1.4c-.2-.2-.7-.4-1.2-.4zm41.7-8.3c.4.4.9.5 1.3.5.5 0 .8-.1 1.1-.4.1-.1.2-.2.4-.3.3-.3.4-.6.5-1.2 0-.4-.2-.8-.4-1.1l-.3-.3c-.3-.3-.7-.4-1.2-.4s-1 .2-1.4.5c0 .1-.1.1-.1.2-.3.3-.4.7-.4 1.2s.2 1 .5 1.3zm-39.8.1c.3.2.7.4 1.1.4.4 0 .9-.1 1.2-.4l.1-.1c.4-.4.5-.7.4-.7-.1-.1-.1-.3-.1-.4 0-.5-.1-.9-.4-1.2 0-.1-.1-.2-.1-.3-.4-.3-.8-.5-1.3-.5-.6 0-.9.1-1.3.5l-.1.1c-.3.3-.4.8-.4 1.2.1.6.2.9.5 1.2.1 0 .3.2.4.2zm29.6-6.3c-.6 0-.9.1-1.3.5-.3.3-.5.8-.5 1.3 0 .6.1.9.5 1.3.3.3.8.5 1.3.5.6 0 .9-.1 1.3-.5.3-.3.5-.8.5-1.3 0-.6-.1-.9-.5-1.3-.3-.3-.8-.5-1.3-.5zm-17 0c-.6 0-.9.1-1.3.5-.3.3-.5.8-.5 1.3 0 .6.1.9.5 1.3.3.3.8.5 1.3.5.6 0 .9-.1 1.3-.5.3-.3.5-.8.5-1.3 0-.6-.1-.9-.5-1.3-.3-.3-.8-.5-1.3-.5zM27.2 36c-.2 0-.3 0-.5-.1L20 32c-.3-.2-.5-.5-.5-.9v-7.8c0-.4.2-.7.5-.9l6.7-3.9c.3-.2.7-.2 1 0l6.7 3.9c.3.2.5.5.5.9v7.8c0 .4-.2.7-.5.9l-6.7 3.9c-.2.1-.3.1-.5.1zm-5.7-5.5l5.7 3.3 5.7-3.3v-6.6l-5.7-3.3-5.7 3.3v6.6zm5.7.4c-1 0-1.9-.4-2.6-1.1-.7-.7-1.1-1.6-1.1-2.6s.4-1.9 1.1-2.6c.8-1 1.9-1.1 2.6-1.1 1 0 1.9.4 2.6 1.1.7.7 1.1 1.6 1.1 2.6 0 .7-.1 1.8-1.2 2.7-.6.6-1.5 1-2.5 1zm0-5.4c-.6 0-.9.2-1.1.4-.4.4-.6.8-.6 1.3 0 .4.2.9.5 1.2.4.4.7.5 1.2.5.4 0 .9-.2 1.2-.5.3-.3.5-.6.5-1.2 0-.4-.2-.9-.5-1.2-.4-.3-.7-.5-1.2-.5z" fill="#FF5A00" fill-rule="nonzero"/></svg>