<svg width="47" height="58" viewBox="0 0 47 58" xmlns="http://www.w3.org/2000/svg"><title>aws_icon7</title><path d="M26.3 57.5h-5.2c-.2 0-.4-.1-.6-.3l-3.7-3.7c-.2-.2-.3-.4-.3-.6v-3.6c0-.5.4-.9.9-.9s.9.4.9.9v3.2l3.2 3.2H26l3.2-3.2v-3.2c0-.5.4-.9.9-.9s.9.4.9.9v3.6c0 .2-.1.4-.3.6L27 57.2c-.3.2-.5.3-.7.3zM21.9 54c-.4 0-.7-.2-.8-.6-.1-.5.1-.9.6-1.1l3.6-1c.5-.1.9.1 1.1.6.2.5-.1.9-.6 1.1l-3.6 1c-.1-.1-.2 0-.3 0zm0-3.1c-.4 0-.7-.2-.8-.6-.1-.5.1-.9.6-1.1l3.6-1c.5-.1.9.1 1.1.6.2.5-.1.9-.6 1.1l-3.6 1c-.1-.1-.2 0-.3 0zm7.7-4.3h-4.1c-.5 0-.9-.4-.9-.9s.4-.9.9-.9h4.1c1.5 0 1.6-.7 1.7-1 .2-1.2.6-2.3.8-3.1.3-1 .8-2.2 1.6-3.9.9-1.9 1.8-3.7 2.8-5.5v-.1c0-.1.1-.2.1-.2 0-.1 0-.2.1-.2.7-1.3 1.2-2.6 1.5-4.1.2-1 .3-2.1.3-3.1v-.1c0-4.2-1.4-7.7-4.3-10.6-.6-.6-1-1-1.6-1.4-2.5-2-5.6-3-9-3-3.5 0-6.5 1-9 2.9-.6.5-1.1 1-1.6 1.4-3 3-4.4 6.5-4.3 10.6v.1c0 1.1.1 2.2.3 3.1.3 1.3.8 2.6 1.5 4.2 0 .1.1.1.1.2s.1.1.1.2v.1c.8 1.5 1.6 3 2.2 4.3l.6 1.2c.8 1.7 1.3 2.9 1.6 3.9.2.6.3 1.2.5 1.9l.3 1.2c.1.3.2 1.1 1.7 1.1h4.1c.5 0 .9.4.9.9s-.4.9-.9.9h-4.1c-1.8 0-3.1-.9-3.3-2.4-.1-.3-.2-.8-.3-1.2-.2-.6-.3-1.2-.5-1.7-.3-.9-.8-2.1-1.6-3.7l-.6-1.2c-.6-1.3-1.4-2.8-2.2-4.3l-.1-.3c0-.1-.1-.1-.1-.2s-.1-.1-.1-.2C8 29.9 7.5 28.4 7.2 27c-.2-1.1-.3-2.2-.3-3.5v-.1c-.1-4.5 1.5-8.5 4.9-11.8.5-.5 1.2-1 1.8-1.6 2.8-2.2 6.2-3.3 10-3.3 3.9 0 7.2 1.1 10 3.3.6.4 1.2.9 1.8 1.6 3.3 3.3 4.9 7.1 4.9 11.8v.1c0 1.1-.1 2.3-.3 3.5-.3 1.7-.8 3.1-1.6 4.6 0 .1-.1.1-.1.2s0 .1-.1.2l-.1.2c-1 1.8-1.9 3.6-2.8 5.5-.8 1.6-1.3 2.8-1.6 3.7-.3.8-.6 1.8-.8 2.9-.1.8-.8 2.3-3.3 2.3zm-3.3-10.2c-.9 0-1.7-.4-2.4-1.1l-.4-.4c-.1.1-.1.2-.2.2-1.4 1.4-3.4 1.4-4.8 0-.4-.4-.7-.9-.9-1.4h-.5c-1.5 0-2.7-.5-3.7-1.6-1-.9-1.6-2.2-1.6-3.7 0-.3 0-.6.1-.9l-.3-.3c-.8-.8-1.3-1.9-1.3-3.1 0-1.2.4-2.3 1.3-3.1.2-.2.4-.3.6-.5-.1-.4-.1-.8-.1-1.3 0-1.5.5-2.7 1.6-3.7.8-.9 1.8-1.4 3-1.5.2-.5.5-.9 1-1.4.9-.8 1.8-1.2 2.9-1.2 1.1 0 2.2.4 2.9 1.2.1.1.2.2.2.3.1-.1.2-.2.2-.3.9-.8 1.8-1.2 2.9-1.2 1.1 0 2.2.4 2.9 1.2.4.4.8.9 1 1.4 1.2.1 2.2.6 3 1.5 1 .9 1.6 2.2 1.6 3.7 0 .5 0 .9-.1 1.3.2.1.4.3.6.5.8.8 1.2 1.9 1.2 3.1 0 1.2-.4 2.3-1.3 3.1-.1.1-.3.3-.5.4.1.3.1.6.1 1 0 1.5-.5 2.7-1.6 3.7-.9 1-2.2 1.6-3.7 1.6h-.5c-.2.5-.5 1-.9 1.4-.6.7-1.4 1.1-2.3 1.1zM24.6 32v.9c0 .4.2.8.5 1.2.7.7 1.6.7 2.4 0 .4-.4.5-.8.5-1.2 0-.3.1-.5.3-.7.2-.2.5-.2.7-.2.4.1.7.2 1 .2 1 0 1.9-.3 2.5-1 .8-.8 1.1-1.5 1.1-2.5 0-.3-.1-.6-.2-1v-.3c-.2-.6-.4-1-.9-1.4-.5-.5-1.3-1-2.3-1-.5 0-.9-.4-.9-.9s.4-.9.9-.9c1.3 0 2.5.5 3.5 1.6.3.3.6.7.9 1.1.4-.5.6-1 .6-1.7 0-.8-.2-1.4-.7-1.9-.2-.2-.4-.4-.8-.5-.4-.2-.6-.7-.4-1.1.2-.4.2-.9.2-1.4 0-1-.3-1.9-1-2.5-.8-.8-1.5-1.1-2.5-1.1-.4 0-.8-.3-.8-.7-.1-.4-.3-.7-.7-1.1-.4-.4-1-.6-1.7-.6s-1.2.2-1.7.7c-.3.3-.4.6-.5 1v.6c0 .1 0 .3-.1.4v1.3c0 .9.4 1.7 1 2.4.6.6 1.3 1 2.2 1.1.5 0 .8.5.8.9s-.5.8-.9.8c-1.2-.1-2.2-.6-3.1-1.4v9.3h1.4c.5 0 .9.4.9.9s-.4.7-.9.7h-1.3zm-6.3-.2c.2 0 .4.1.5.2.2.2.3.4.3.7 0 .4.2.8.5 1.2.7.7 1.6.7 2.4 0 .4-.4.5-.8.5-1.2v-.9h-1.3c-.5 0-.9-.4-.9-.9s.4-.9.9-.9h1.4v-9c-.9.8-1.9 1.3-3.1 1.4-.5 0-.9-.3-.9-.8s.3-.9.8-.9c.8-.1 1.6-.4 2.2-1.1.7-.7 1-1.5 1-2.4v-1.7-.6c-.1-.4-.3-.7-.6-1-.4-.4-1-.6-1.7-.6s-1.2.2-1.7.7c-.3.3-.5.7-.6 1.1-.1.4-.4.7-.8.7-1 0-1.9.3-2.5 1-.8.8-1.1 1.5-1.1 2.5 0 .5.1 1 .2 1.4.2.4 0 .9-.4 1.1-.3.2-.6.3-.8.5-.5.5-.7 1.1-.7 1.9 0 .7.2 1.2.6 1.7.2-.4.5-.8.8-1.1.9-.9 2.1-1.4 3.4-1.5.5 0 .9.3.9.8s-.3.9-.8.9c-1 .1-1.8.4-2.4 1.1-.4.4-.7 1-.9 1.5 0 .1-.1.2-.2.3-.1.2-.1.4-.1.6 0 1 .3 1.9 1 2.5 1 1 1.9 1.3 3.5.9.4 0 .5-.1.6-.1zM4 35.8c-.3 0-.6-.2-.7-.4-.2-.4-.1-.9.3-1.2l2.3-1.3c.4-.2.9-.1 1.2.3.3.4.1.9-.3 1.2l-2.3 1.3c-.2 0-.4.1-.5.1zm39.4 0c-.1 0-.3 0-.4-.1l-2.3-1.3c-.4-.2-.6-.8-.3-1.2.2-.4.8-.6 1.2-.3l2.3 1.3c.4.2.6.8.3 1.2-.2.2-.5.4-.8.4zM31 30.5s-.1 0 0 0c-1.3-.1-2.4-.6-3.3-1.6-1-1-1.6-2.3-1.6-3.7 0-.5.4-.9.9-.9s.9.4.9.9c0 1 .3 1.8 1 2.5.6.6 1.3 1 2.2 1.1.5 0 .8.5.8.9-.1.4-.5.8-.9.8zm-14.7 0c-.4 0-.8-.3-.9-.8 0-.5.3-.9.8-.9.8-.1 1.6-.4 2.2-1.1.7-.7 1-1.5 1-2.5 0-.5.4-.9.9-.9s.9.4.9.9c0 1.5-.5 2.7-1.6 3.7-.9.9-2 1.4-3.3 1.6.1 0 0 0 0 0zM31.5 22c-.5 0-.9-.4-.9-.9 0-1-.3-1.8-1-2.5-.6-.6-1.3-1-2.2-1.1-.5 0-.8-.5-.8-.9 0-.5.5-.8.9-.8 1.2.1 2.3.6 3.2 1.5 1 1 1.6 2.3 1.6 3.7.1.6-.3 1-.8 1zm-15.7 0c-.5 0-.9-.4-.9-.9 0-1.5.5-2.7 1.6-3.7.9-.9 2-1.4 3.2-1.5.5-.1.9.3.9.8s-.3.9-.8.9c-.8.1-1.6.4-2.2 1.1-.7.7-1 1.5-1 2.5.1.4-.3.8-.8.8zm27.7-1c-.4 0-.8-.3-.8-.7-.1-.5.2-.9.7-1l2.6-.5c.5-.1.9.2 1 .7.1.5-.2.9-.7 1l-2.6.5h-.2zM4 21h-.2l-2.7-.5c-.5-.1-.8-.5-.7-1 .1-.5.5-.8 1-.7l2.7.5c.5.1.8.5.7 1 0 .4-.4.7-.8.7zM36.6 9.1c-.2 0-.4-.1-.6-.2-.4-.3-.4-.8-.1-1.2l1.7-2c.3-.4.9-.4 1.2-.1.4.3.4.8.1 1.2l-1.7 2c-.1.2-.4.3-.6.3zm-25.8 0c-.2 0-.5-.1-.7-.3l-1.7-2c-.3-.4-.3-.9.1-1.2.4-.3.9-.3 1.2.1l1.7 2c.3.4.3.9-.1 1.2-.1.1-.3.2-.5.2zm12.9-4.7c-.5 0-.9-.4-.9-.9V.9c0-.5.4-.9.9-.9s.9.4.9.9v2.6c0 .5-.4.9-.9.9z" fill="#FF5A00" fill-rule="nonzero"/></svg>