<svg width="58" height="52" viewBox="0 0 58 52" xmlns="http://www.w3.org/2000/svg"><title>aws_icon2</title><path d="M51 51.5h-.9c-.3 0-.5-.1-.7-.3l-6.7-6.6c-2.1.2-4.1.3-6.1.3-2.8 0-5.2-.1-7.5-.4-.2 0-.5 0-.8-.1l-1.9-.3h-.1L26 44c-2.5-.5-4.3-1.2-5.6-2.2-1.5-1.1-2.7-2.6-3.3-4.3-.8-2.6-1.2-4.9-1.2-7.2v-.8c0-.3 0-.6.1-1v-.9c0-.2 0-.4.1-.5v-.2-.4c.2-1 .4-2.2.8-3.3.7-1.8 1.8-3.3 3.4-4.4 1-.7 2.3-1.3 3.9-1.7.3-.1.6-.1.8-.2.3-.1.6-.2.9-.2l.4-.1h.1c2.5-.4 5.3-.6 8.5-.7h1.5c.6 0 1 .4 1 1s-.4 1-1 1h-1.5c-3 .1-5.7.3-8.2.7l-.3.1c-.3.1-.5.1-.8.2-.3.1-.6.2-.9.2-1.3.4-2.4.8-3.2 1.4-1.2.9-2.1 2-2.6 3.4-.3.9-.5 2-.7 3v.2c0 .2-.1.4-.1.5 0 .5 0 .8-.1 1.2v1.6c0 2.1.3 4.1 1.1 6.5.5 1.4 1.4 2.5 2.6 3.4 1.1.8 2.6 1.4 4.8 1.8l.4.1 1 .1v-3.2c-.6-.2-1.2-.5-1.6-.9-.7-.7-1.1-1.6-1.1-2.6s.4-1.9 1.1-2.6c.7-.7 1.6-1.1 2.6-1.1.7 0 1.8.1 2.7 1.2.7.7 1 1.5 1 2.5s-.4 1.9-1.1 2.6c-.5.5-1 .8-1.6.9v3.5c2.1.2 4.3.3 6.8.3 2.1 0 4.2-.1 6.4-.3.3 0 .6.1.8.3l5.4 5.3-1.7-5c-.1-.3-.1-.6.1-.8.1-.2.4-.4.6-.5 1.3-.3 2.4-.8 3.6-1.6 1.2-.9 2.1-2 2.6-3.4.2-.5.3-1 .4-1.5h-14c-.3 0-.5-.1-.7-.3l-4.8-4.8c-.4-.4-.4-1 0-1.4.4-.4 1-.4 1.4 0l4.5 4.5h13.9c.1-.9.2-1.8.2-2.9 0-.6 0-1.3-.1-1.9h-5.8c-.1.6-.4 1.1-1.1 1.7-.6.6-1.6 1-2.5 1-1 0-1.9-.4-2.6-1.1-.7-.7-1.1-1.6-1.1-2.6s.4-1.9 1.1-2.6c.7-.7 1.6-1.1 2.6-1.1s1.9.4 2.6 1.1c.5.4.8 1 .9 1.6H55c-.2-.9-.4-1.7-.7-2.6-.5-1.4-1.4-2.5-2.6-3.4-1.1-.7-2.7-1.3-4.8-1.7l-.4-.1c-.3 0-.7-.1-1-.1-.4-.1-.8-.1-1.1-.2-.5-.1-.9-.6-.8-1.1.1-.5.6-.9 1.1-.8.3 0 .7.1 1.1.1.4.1.8.1 1.1.2h.1l.4.1c2.4.4 4.2 1.1 5.5 2 1.6 1.1 2.7 2.6 3.4 4.4.4 1.3.7 2.4.9 3.7.1.2.2.4.2.6 0 .1 0 .2-.1.4.1.8.2 1.7.2 2.5 0 1.4-.1 2.6-.3 3.7v.2c0 .2-.1.4-.2.6-.2.8-.4 1.7-.7 2.6-.7 1.8-1.8 3.3-3.4 4.4-1.1.7-2.1 1.2-3.2 1.6l2.3 6.7c.1.3.1.6-.1.9-.2.3-.6.2-.9.2zM28.8 33.8c-.5 0-.8.2-1.2.5-.3.3-.5.8-.5 1.2 0 .4.2.9.5 1.2.6.6 1.8.6 2.4 0 .3-.3.5-.8.5-1.2 0-.5-.2-.8-.5-1.2-.3-.3-.6-.5-1.2-.5zm17.1-8c-.5 0-.8.2-1.2.5-.3.3-.5.8-.5 1.2 0 .5.2.8.5 1.2.6.6 1.8.6 2.4 0 .3-.3.5-.6.5-1.2 0-.4-.2-.9-.5-1.2-.3-.3-.8-.5-1.2-.5zM7.4 35.3h-.9c-.3 0-.6-.2-.8-.4-.2-.3-.2-.6-.1-.9l2.3-6.6c-1.1-.4-2.1-.8-3.2-1.5-1.6-1.1-2.7-2.6-3.4-4.4-.4-1.4-.7-2.8-1-4.3v-.4c-.1-.8-.1-1.6-.1-2.4 0-1.6.1-3.1.4-4.4.2-.8.4-1.7.7-2.7C2 5.5 3.2 4 4.7 2.9 6.1 2 7.9 1.3 10.3.8l.3-.1h.1C14.8.2 18 0 20.9 0c2.5 0 4.9.1 7.5.3.1 0 .3 0 .4.1H29.1l2.1.3h.1l.4.1c2 .3 3.9 1 5.5 2 1.5 1.1 2.7 2.5 3.5 4.2v.1c.8 2.3 1.2 4.5 1.2 7.1v.1c0 .9-.1 1.7-.2 2.5v.2c0 .6-.1 1.1-.2 1.6-.2.8-.4 1.7-.7 2.7-.7 1.8-1.8 3.3-3.4 4.4-1 .7-2.2 1.3-3.8 1.7-.7.2-1.3.3-1.9.4l-.3.1h-.1c-2.9.3-6.3.7-9.8.7-.6 0-1-.4-1-1s.4-1 1-1c3.4 0 6.7-.3 9.5-.7l.3-.1c.6-.1 1.2-.2 1.7-.4 1.4-.4 2.4-.9 3.2-1.5 1.2-.9 2.1-2 2.6-3.4.3-.9.5-1.7.7-2.5.1-.4.2-.9.2-1.3V16.4c.1-.8.2-1.5.2-2.3V14c0-2.3-.3-4.4-1-6.4-.7-1.4-1.6-2.5-2.8-3.4-1.4-.9-3-1.5-4.8-1.7h-.1l-.4-.1-1-.1v2.9c.6.2 1.1.5 1.6 1 .7.7 1.1 1.6 1.1 2.6s-.4 1.9-1.1 2.6c-.7.7-1.6 1.1-2.6 1.1-.7 0-1.8-.1-2.7-1.2-.6-.6-1-1.6-1-2.5 0-1 .4-1.9 1.1-2.6.6-.5 1.1-.8 1.6-.9v-3c-2.3-.2-4.6-.3-6.9-.3-2.8 0-6 .2-9.8.7l-.3.1c-2.2.4-3.8 1-4.9 1.7-1.2.9-2.1 2-2.6 3.4-.1.4-.3.8-.4 1.2h13.8c.3 0 .5.1.7.3l4.8 4.8c.4.4.4 1 0 1.4-.4.4-1 .4-1.4 0l-4.5-4.5H2.4c-.2 1-.2 2-.2 3.2v1.6h5.9c.2-.6.5-1.1 1-1.6.7-.7 1.6-1.1 2.6-1.1s1.9.4 2.6 1.1c.7.7 1.1 1.6 1.1 2.6 0 .7-.1 1.8-1.2 2.7-.6.6-1.6 1-2.5 1-1 0-1.9-.4-2.6-1.1-.5-.5-.8-1-.9-1.6H2.5c.2 1 .4 1.9.7 2.8.5 1.4 1.4 2.5 2.6 3.4 1.2.7 2.3 1.2 3.6 1.5.3.1.5.2.6.5.1.3.2.5.1.8L8.4 32l4.4-4.4c.4-.4 1-.4 1.4 0 .4.4.4 1 0 1.4l-6.1 6c-.2.2-.4.3-.7.3zM10 17c0 .4.2.9.5 1.2.4.4.7.5 1.2.5.4 0 .9-.2 1.2-.5.3-.3.5-.6.5-1.2 0-.4-.2-.9-.5-1.2-.6-.6-1.8-.6-2.4 0-.3.4-.5.7-.5 1.2zm18.8-9.7c-.4 0-.8.2-1.3.6-.3.3-.4.7-.4 1.1 0 .4.2.9.5 1.2.3.3.6.5 1.2.5.4 0 .9-.2 1.2-.5.3-.3.5-.8.5-1.2 0-.4-.2-.9-.5-1.2-.4-.3-.7-.5-1.2-.5zm.1 17.5c-.6 0-1-.4-1-1v-.5h-.5c-.6 0-1-.4-1-1s.4-1 1-1h.5v-.5c0-.6.4-1 1-1s1 .4 1 1v.5h.5c.6 0 1 .4 1 1s-.4 1-1 1h-.5v.5c0 .6-.4 1-1 1z" fill="#FF5A00" fill-rule="nonzero"/></svg>