<svg width="54" height="61" viewBox="0 0 54 61" xmlns="http://www.w3.org/2000/svg"><title>aws_icon10</title><path d="M26.6 60.6c-7.3 0-13.6-2.6-18.7-7.8-2.5-2.6-4.2-5.1-5.4-7.7C.9 41.7.1 37.9.1 34c0-7.3 2.6-13.6 7.8-18.7.1-.1.1-.2.2-.2H1.4c-.5 0-.9-.4-.9-.9s.4-.9.9-.9h8.8c.5 0 .9.4.9.9V23c0 .5-.4.9-.9.9s-.9-.4-.9-.9v-6.8l-.2.2C4.3 21.3 1.9 27.2 1.9 34c0 3.7.7 7.2 2.2 10.4 1.1 2.4 2.7 4.7 5 7.2 4.8 4.8 10.7 7.2 17.5 7.2 4.7 0 8.8-1.1 12.7-3.4.4-.2.9-.1 1.2.3.3.4.1.9-.3 1.2-4.2 2.5-8.6 3.7-13.6 3.7zm0-5.3c-.5 0-.9-.4-.9-.9v-4.6c0-.5.4-.9.9-.9s.9.4.9.9v4.6c0 .5-.4.9-.9.9zm25.1-.9H43c-.5 0-.9-.4-.9-.9v-8.7c0-.5.4-.9.9-.9s.9.4.9.9v7l.3-.3c2.2-2.2 3.9-4.6 5-7.1 1.5-3.3 2.2-6.8 2.2-10.5 0-6.9-2.4-12.6-7.2-17.5-1.8-1.8-3.4-3.1-5.1-4.1-3.6-2.1-7.8-3.2-12.4-3.2-4.7 0-8.8 1.1-12.5 3.3-.1.1-.2.1-.3.1-.3.3-.9.3-1.2 0-.3-.3-.3-.9 0-1.2.2-.2.4-.3.7-.4 3.6-2.2 7.8-3.3 12.4-3.4V1.9h-4.6c-.5 0-.9-.4-.9-.9s.4-.9.9-.9h10.9c.5 0 .9.4.9.9s-.4.9-.9.9h-4.5v5.6c4.5.1 8.7 1.3 12.4 3.4 1.8 1.1 3.6 2.4 5.5 4.3 5.1 5.1 7.8 11.4 7.8 18.7 0 3.9-.8 7.7-2.4 11.2-1.2 2.7-3 5.2-5.3 7.6h6.2c.5 0 .9.4.9.9s-.5.8-1 .8zm-14.9-1.9c-.3 0-.6-.2-.7-.4l-2.3-4c-.2-.4-.1-.9.3-1.2.4-.2.9-.1 1.2.3l2.3 4c.2.4.1.9-.3 1.2-.2 0-.4.1-.5.1zm-20.5 0c-.1 0-.3 0-.4-.1-.4-.2-.6-.8-.3-1.2l2.3-4c.2-.4.8-.6 1.2-.3.4.2.6.8.3 1.2L17 52c-.1.3-.4.5-.7.5zM8.8 45c-.3 0-.6-.2-.7-.4-.2-.4-.1-.9.3-1.2l4.1-2.4c.4-.2.9-.1 1.2.3.2.4.1.9-.3 1.2l-4.1 2.4c-.2 0-.4.1-.5.1zm28-4.3c-.1 0-.3 0-.4-.1l-7.1-4.1c-.7.7-1.6 1.1-2.6 1.1-1.1 0-1.9-.3-2.6-1.1-.7-.7-1.1-1.6-1.1-2.6 0-1.1.3-1.9 1.1-2.6.6-.5 1.2-.8 1.7-1V13.4c0-.5.4-.9.9-.9s.9.4.9.9v16.9c.7.1 1.2.5 1.7 1 .7.7 1.2 1.6 1.2 2.5 0 .3 0 .8-.2 1.2l7 4c.4.2.6.8.3 1.2-.2.3-.5.5-.8.5zM26.6 32c-.5 0-.9.2-1.5.6-.3.4-.5.7-.5 1.3 0 .5.2 1 .5 1.4.4.4.8.5 1.4.5.5 0 1-.2 1.4-.5l.2-.2.3-.3c.1-.2.2-.5.2-.9s-.2-.9-.6-1.3c-.4-.5-.8-.6-1.4-.6zM47 34.8h-4.5c-.5 0-.9-.4-.9-.9s.4-.9.9-.9H47c.5 0 .9.4.9.9s-.4.9-.9.9zm-36.3 0H6.1c-.5 0-.9-.4-.9-.9s.4-.9.9-.9h4.6c.5 0 .9.4.9.9s-.4.9-.9.9zm29.6-8c-.3 0-.6-.2-.7-.4-.2-.4-.1-.9.3-1.2l4-2.3c.4-.2.9-.1 1.2.3.2.4.1.9-.3 1.2l-4 2.3c-.2 0-.4.1-.5.1zM34.5 21c-.1 0-.3 0-.4-.1-.4-.2-.6-.8-.3-1.2l2.3-4c.2-.4.8-.6 1.2-.3.4.2.6.8.3 1.2l-2.3 4c-.2.2-.5.4-.8.4zm-15.8 0c-.3 0-.6-.2-.7-.4l-2.3-4c-.2-.4-.1-.9.3-1.2.4-.2.9-.1 1.2.3l2.3 4c.2.4.1.9-.3 1.2-.2 0-.4.1-.5.1z" fill="#FF5A00" fill-rule="nonzero"/></svg>