<svg width="58" height="61" viewBox="0 0 58 61" xmlns="http://www.w3.org/2000/svg"><title>aws_icon1</title><path d="M24.2 60.6h-.6-.1c-.9-.1-1.7-.5-2.5-1.3-.9-.9-1.3-1.9-1.3-3.1 0-1.3.5-2.4 1.3-3.2.6-.6 1.6-1.1 2.7-1.2h.1l2.4-13.9h-8.1L17 45.1c-.1.5-.5.8-1 .8h-4.7c-.2.8-.6 1.5-1.2 2.1-.9.9-1.9 1.3-3.1 1.3h-.2c-1.1 0-2-.4-2.9-1.3-.9-.9-1.3-1.9-1.3-3.1 0-1.3.5-2.4 1.3-3.2.6-.6 1.6-1.1 2.7-1.2H7c1.2 0 2.2.4 3.1 1.3.6.6 1 1.3 1.2 2.1h3.9l1-6h-4.4c-3.1 0-5.9-1.2-8.2-3.5C1.2 32 0 29.1 0 25.9c0-3.3 1.2-6.2 3.5-8.5 2-2 4.3-3.1 7.1-3.5.1-3.8 1.5-7 4.2-9.7C17.6 1.4 21 0 24.9 0c3.9 0 7.3 1.4 10.2 4.2.6.6 1.2 1.4 1.8 2.2 1.2-.7 2.4-1 3.8-1 2 0 3.9.8 5.4 2.3 1.5 1.5 2.2 3.3 2.2 5.4v1.1c2.2.5 4.1 1.5 5.7 3.2 2.3 2.4 3.5 5.3 3.5 8.5 0 3.3-1.2 6.2-3.5 8.5-2.4 2.3-5.3 3.5-8.5 3.5h-7.2l-2 11.6h3.5c.2-.8.6-1.5 1.2-2.1.8-.9 1.8-1.3 3.1-1.3H44.4c1.1.1 2.1.6 2.8 1.3.8.7 1.3 1.8 1.3 3.1 0 1.2-.4 2.2-1.3 3.1-.9.9-1.8 1.3-2.9 1.3h-.2c-1.2 0-2.2-.4-3.1-1.3-.6-.6-1-1.3-1.2-2.1h-4.7c-.3 0-.6-.1-.8-.4-.2-.2-.3-.5-.2-.8l2.1-12.4h-8.1l-2.4 14.2c.5.2 1 .5 1.5 1 .9.9 1.3 1.9 1.3 3.1 0 1.2-.4 2.2-1.3 3.1-.8.9-1.8 1.3-3 1.3zm-.5-2h.5c.7 0 1.2-.2 1.7-.7.5-.5.7-1 .7-1.7s-.2-1.2-.7-1.7c-.4-.4-.8-.6-1.3-.7H24c-.5.1-1.1.2-1.6.7-.6.5-.7 1.3-.7 1.7 0 .7.2 1.2.7 1.7.4.4.8.6 1.3.7zm20.5-10.5c-.7 0-1.3.2-1.6.7l-.1.1c-.5.5-.7 1-.7 1.7s.2 1.2.7 1.7c.5.5 1 .7 1.7.7h.2c.5 0 1-.2 1.5-.7.5-.5.7-1 .7-1.7 0-.4-.1-1.2-.7-1.6-.5-.5-1.1-.7-1.6-.8h-.1v-.1zM6.9 42.5c-.5.1-1.1.2-1.6.7-.6.5-.7 1.3-.7 1.7 0 .7.2 1.2.7 1.7.5.5.9.7 1.5.7H7c.7 0 1.2-.2 1.7-.7.5-.5.7-1 .7-1.7s-.2-1.2-.7-1.7c-.5-.5-1-.7-1.7-.7h-.1zm31.8-6.6h6.8c2.7 0 5.1-1 7.1-2.9 1.9-1.9 2.9-4.3 2.9-7.1 0-2.7-1-5.1-2.9-7.1-1.6-1.6-3.4-2.5-5.6-2.8-.3 0-.6-.2-.7-.5-.2-.3-.2-.6-.1-.8.1-.4.1-.9.1-1.6 0-1.6-.5-2.9-1.6-4s-2.5-1.7-4-1.7c-1.3 0-2.4.4-3.5 1.2-.2.2-.5.2-.8.2-.3-.1-.5-.2-.7-.5-.7-1.1-1.3-2-2-2.7C31.2 3.2 28.3 2 24.9 2c-3.4 0-6.3 1.2-8.7 3.6-2.4 2.4-3.6 5.3-3.6 8.7v.5c0 .5-.4 1-.9 1-2.8.2-4.9 1.1-6.8 3C3 20.7 2 23.1 2 25.9 2 28.6 3 31 4.9 33c1.9 1.9 4.2 2.9 6.8 2.9h4.7l.8-4.8c.1-.5.6-.9 1.1-.8.5.1.9.6.8 1.1l-.7 4.4h8.1l.8-4.8c.1-.5.6-.9 1.1-.8.5.1.9.6.8 1.1l-.7 4.4h8.1l.8-4.8c.1-.5.6-.9 1.1-.8.5.1.9.6.8 1.1l-.6 4.7zM27.4 28c-2 0-3.6-.7-5-2.1-1.4-1.4-2.1-3-2.1-5s.7-3.6 2.1-5c1.4-1.4 3-2.1 5-2.1 2 .1 3.8.8 5 2.1 1.4 1.4 2.1 3 2.1 5s-.7 3.6-2.1 5c-1.4 1.4-3 2.1-5 2.1zm-.1-12.2c-1.4 0-2.5.5-3.5 1.5s-1.5 2.2-1.5 3.6.5 2.6 1.5 3.6S26 26 27.4 26s2.6-.5 3.6-1.5 1.5-2.2 1.5-3.6-.5-2.6-1.5-3.6c-.9-.9-2.2-1.4-3.7-1.5zM40 26.5c-.6 0-1-.4-1-1v-1.4h-1.4c-.6 0-1-.4-1-1s.4-1 1-1H39v-1.4c0-.6.4-1 1-1s1 .4 1 1v1.4h1.4c.6 0 1 .4 1 1s-.4 1-1 1H41v1.4c0 .6-.4 1-1 1zm-25 0c-.6 0-1-.4-1-1v-1.4h-1.4c-.6 0-1-.4-1-1s.4-1 1-1H14v-1.4c0-.6.4-1 1-1s1 .4 1 1v1.4h1.4c.6 0 1 .4 1 1s-.4 1-1 1H16v1.4c0 .6-.4 1-1 1z" fill="#FF5A00" fill-rule="nonzero"/></svg>