<svg width="54" height="56" viewBox="0 0 54 56" xmlns="http://www.w3.org/2000/svg"><title>aws_icon4</title><path d="M34.7 55.2h-8.9c-.6 0-1-.4-1-1v-1.7c-.9-.5-1.9-1.7-2.5-3.9-.6-1.8-1.3-3.2-2.2-4l-.5-.5c-.6-.6-.9-1.2-.9-1.9 0-.5.1-1.3.7-1.9.5-.5 1.2-.8 1.9-.8.9 0 1.5.4 1.9.7v-7.6a2.732 2.732 0 0 1 2.7-2.7 2.732 2.732 0 0 1 2.7 2.7V35h.5c.5 0 1.2.1 1.8.8.1.1.2.3.3.5.2-.1.5-.1.8-.1.7 0 1.4.2 1.8.7.1.1.3.3.4.5.3-.1.5-.1.8-.1.7 0 1.4.2 1.8.7.5.5.7 1.1.7 1.8v7.3c.1 3-.8 4.6-1.8 5.3v1.8c0 .6-.4 1-1 1zm-7.9-2h6.9v-1.3c0-.4.2-.7.5-.9 1.2-.7 1.3-2.7 1.3-3.9v-7.3c0-.2 0-.3-.1-.4-.1-.1-.6-.1-.8 0-.1.1-.1.2-.1.2 0 .6-.4 1-1 1s-1-.4-1-1v-.9c0-.2 0-.3-.1-.4-.1-.1-.6-.1-.8 0-.1.1-.1.2-.1.2 0 .6-.4 1-1 1s-1-.4-1-1v-.9c0-.2 0-.3-.1-.4l-.1-.1c0-.1-.1-.1-.1-.1h-.1c-.2 0-.3 0-.4.1-.1.1-.1.2-.1.2 0 .6-.4 1-1 1s-1-.4-1-1v-4.7c0-.2-.1-.4-.2-.5-.1-.1-.4-.2-.5-.2-.2 0-.4.1-.5.2-.1.1-.2.3-.2.5v9.7c0 .4-.2.7-.6.9-.3.2-.8.1-1.1-.1L22 41.8c-.6-.5-.9-.3-1.2-.1 0 0-.1.2-.1.5 0 .1.1.3.3.5l.5.5c1.2 1.1 2.1 2.7 2.8 4.9.3 1.1.8 2.5 1.9 2.8.4.1.7.5.7.9v1.4h-.1zm16.6-9.7c-.8 0-1.5-.3-2.2-.8 0 0-.1 0-.1-.1-.6-.6-.9-1.4-.9-2.3 0-.8.3-1.5.8-2.2 0 0 0-.1.1-.1.3-.3.8-.6 1.3-.8v-3.5h-4.5c0 .8-.2 1.5-.5 2-.2.5-.8.7-1.3.4-.5-.2-.7-.8-.4-1.3.2-.4.3-.9.3-1.7v-9.7c0-1.1-.4-2.1-1.2-2.9-.8-.8-1.8-1.2-2.9-1.2h-9.7c-1.1 0-2.1.4-2.9 1.2-.8.8-1.2 1.8-1.2 2.9v9.7c0 1.1.4 2.1 1.2 2.9.1.1.2.2.3.2.2.1.3.2.4.4.4.4.4 1 0 1.4-.4.4-1 .4-1.4 0-.1-.1-.2-.2-.3-.2-.2-.1-.3-.2-.4-.4-1.1-1.1-1.7-2.3-1.8-3.8h-4.5v3.5c.4.1.8.4 1.2.7 0 0 .1 0 .1.1.6.6.9 1.4.9 2.3 0 .8-.3 1.5-.8 2.2 0 0 0 .1-.1.1-.6.6-1.4.9-2.3.9-.8 0-1.5-.3-2.2-.8 0 0-.1 0-.1-.1-.6-.6-.9-1.4-.9-2.3 0-.8.3-1.5.8-2.2 0 0 0-.1.1-.1.3-.3.8-.6 1.3-.8v-4.5c0-.6.4-1 1-1H16v-2.4H6.9c-.1.5-.4.9-.8 1.3l-.1.1c-.7.6-1.4.8-2.2.8-.9 0-1.7-.3-2.3-.9l-.1-.1c-.6-.7-.8-1.4-.8-2.2 0-.8.3-1.5.8-2.2 0-.1.1-.1.2-.2.7-.6 1.4-.8 2.2-.8.9 0 1.7.3 2.3.9l.1.1c.3.4.5.8.7 1.2H16V25h-5.5c-.6 0-1-.4-1-1v-4.6c-.5-.1-1-.4-1.4-.8l-.1-.1c-.6-.7-.8-1.4-.8-2.2 0-.9.3-1.7.9-2.3l.1-.1c.7-.6 1.4-.8 2.2-.8.9 0 1.7.3 2.3.9l.1.1c.6.7.8 1.4.8 2.2 0 .9-.3 1.7-.9 2.3-.4.4-.8.7-1.2.9V23H16c.1-1.5.7-2.7 1.8-3.8 1.1-1.1 2.3-1.7 3.8-1.8v-2c0-.6.4-1 1-1s1 .4 1 1v2H26v-2c0-.6.4-1 1-1s1 .4 1 1v2h2.3v-2c0-.6.4-1 1-1s1 .4 1 1v2c1.5.1 2.7.7 3.8 1.8 1.1 1.1 1.7 2.3 1.8 3.8h4.6v-3.6c-.5-.1-1-.4-1.4-.8l-.1-.1c-.6-.7-.8-1.4-.8-2.2 0-.9.3-1.7.9-2.3l.1-.1c.7-.6 1.4-.8 2.2-.8.9 0 1.7.3 2.3.9l.1.1c.6.7.8 1.4.8 2.2 0 .9-.3 1.7-.9 2.3-.4.4-.8.7-1.2.9V24c0 .6-.4 1-1 1h-5.6v2.3H47c.1-.4.4-.8.7-1.2 0-.1.1-.1.2-.2.7-.6 1.4-.8 2.2-.8.9 0 1.7.3 2.3.9l.1.1c.6.7.8 1.4.8 2.2 0 .9-.3 1.7-.9 2.3l-.1.1c-.7.6-1.4.8-2.2.8-.9 0-1.7-.3-2.3-.9l-.1-.1c-.3-.4-.5-.8-.7-1.2h-9.1v2.4h5.5c.6 0 1 .4 1 1v4.5c.4.1.8.4 1.2.7 0 0 .1 0 .1.1.6.6.9 1.4.9 2.3 0 .8-.3 1.5-.8 2.2 0 0 0 .1-.1.1-.6.6-1.4.9-2.3.9zm-.9-2.3c.3.2.6.3.9.3.3 0 .7-.1.9-.3.2-.3.3-.6.3-.9 0-.3-.1-.7-.3-.9-.3-.2-.6-.3-.9-.3-.3 0-.7.1-.9.3-.2.3-.3.6-.3.9 0 .3.1.7.3.9zm-32.9 0c.3.2.6.3.9.3.3 0 .7-.1.9-.3.2-.3.3-.6.3-.9 0-.3-.1-.7-.3-.9-.3-.2-.6-.3-.9-.3-.3 0-.7.1-.9.3-.2.3-.3.6-.3.9 0 .3.1.7.3.9zm39.6-12c.2.2.5.3.9.3.3 0 .6-.1.9-.3.2-.2.3-.5.3-.9 0-.3-.1-.6-.3-.9-.2-.2-.5-.3-.9-.3-.3 0-.6.1-.9.3-.2.3-.3.6-.3.9 0 .3.1.6.3.9zm-46.3 0c.2.2.5.3.9.3.3 0 .6-.1.9-.3.2-.2.3-.4.3-.9 0-.3-.1-.6-.3-.9-.2-.2-.5-.3-.9-.3-.3 0-.6.1-.9.3-.2.3-.3.6-.3.9 0 .3.1.6.3.9zm6.6-12c.2.2.5.3.9.3h.1c.4.1.5 0 .7-.2 0 0 0-.1.1-.1.2-.2.3-.5.3-.9 0-.3-.1-.6-.3-.9-.2-.2-.5-.3-.9-.3-.3 0-.6.1-.9.3-.2.2-.3.5-.3.9 0 .3.1.6.3.9zm33 0c.2.2.5.3.9.3h.1c.4.1.5 0 .7-.2 0 0 0-.1.1-.1.2-.2.3-.5.3-.9 0-.3-.1-.6-.3-.9-.2-.2-.5-.3-.9-.3-.3 0-.6.1-.9.3-.2.2-.3.5-.3.9 0 .3.1.6.3.9zM31 32.3c-.3 0-.6-.1-.8-.4-.3-.4-.2-1.1.2-1.4v-4.2l-3.5-2-3.5 2V29c0 .6-.4 1-1 1s-1-.4-1-1v-3.3c0-.4.2-.7.5-.9l4.5-2.6c.3-.2.7-.2 1 0l4.5 2.6c.3.2.5.5.5.9V31c0 .3-.1.6-.4.8l-.4.3c-.2.1-.4.2-.6.2zm1.5-21.2c-.4 0-.7-.2-.9-.6-.2-.5-.5-.8-.9-1.2-1.1-1.1-2.3-1.6-3.8-1.6-1.4 0-2.7.5-3.8 1.6-.4.5-.7.9-1 1.3-.3.5-.9.6-1.4.3-.5-.3-.6-.9-.3-1.4.3-.6.8-1.1 1.2-1.6 0 0 0-.1.1-.1 1.5-1.5 3.2-2.2 5.2-2.2 2.1 0 3.7.7 5.2 2.2.6.6.9 1.1 1.3 1.8.2.5 0 1.1-.4 1.3-.2.2-.3.2-.5.2zm4.7-2.5c-.4 0-.7-.2-.9-.6-.4-.8-1-1.7-1.8-2.4-2.1-2.1-4.5-3.1-7.6-3.1-3.1 0-5.5 1-7.6 3.1-.8.8-1.4 1.6-1.8 2.4-.3.5-.9.7-1.4.4-.5-.3-.7-.9-.4-1.4.5-1 1.3-1.9 2.2-2.8 2.5-2.5 5.4-3.7 9-3.7 3.6 0 6.5 1.2 9 3.7.9.9 1.7 1.9 2.2 3 .2.5 0 1.1-.4 1.3-.2.1-.3.1-.5.1z" fill="#FF5A00" fill-rule="nonzero"/></svg>