<svg width="57" height="52" viewBox="0 0 57 52" xmlns="http://www.w3.org/2000/svg"><title>aws_icon6</title><path d="M54.4 16.3c-1.3-3.1-3.1-5.8-5.5-8.2C44.1 3.3 37.7.7 30.9.7h-.1C26.2.7 21.7 2 17.6 4.5c-3.9 2.3-7.1 5.6-9.1 9.3-.2.3-.1.7.3.9.3.2.7.1.9-.3 1.9-3.4 4.9-6.6 8.6-8.8C22.2 3.3 26.5 2 30.8 2c6.5 0 12.6 2.5 17.1 7.1 4.6 4.6 7.1 10.7 7.1 17.2s-2.5 12.6-7.1 17.2-10.7 7.1-17.2 7.1c-4.3 0-8.5-1.1-12.2-3.3-3.6-2.1-6.6-5.1-8.7-8.7-.2-.3-.6-.4-.9-.2-.3.2-.4.6-.2.9 2.2 3.8 5.4 6.9 9.2 9.1 3.9 2.3 8.3 3.5 12.9 3.5 6.8 0 13.3-2.7 18.1-7.5 4.8-4.8 7.5-11.3 7.5-18.1 0-3.5-.7-6.8-2-10M3.6 19.1h8c.4 0 .6-.3.6-.6 0-.4-.3-.6-.6-.6h-8c-.4 0-.6.3-.6.6s.2.6.6.6m5.3 7.6c0-.4-.3-.6-.6-.6h-7c-.4 0-.6.3-.6.6s.3.6.6.6h7c.3 0 .6-.3.6-.6m2.7 8.2c0-.4-.3-.6-.6-.6H2.4c-.4 0-.6.3-.6.6 0 .4.3.6.6.6H11c.3 0 .6-.2.6-.6m5.7-13.3c.2 0 .3-.1.4-.3.1-.1.1-.3.1-.5-.5-2.8 0-5.4 1.4-7.3 1.2-1.7 3.1-2.9 5.3-3.4 4.3-1 9.5 1 11.1 6.6.1.2.2.3.3.4.2.1.4.1.5 0 1.8-.8 3.5-.9 5-.2s2.6 2.2 3.1 4c.1.2.3.4.5.5 4.1.8 5.9 3.9 5.8 6.7-.1 1.5-.6 2.9-1.6 4-1.1 1.2-2.6 1.9-4.5 2.1h-7c-.2 0-.3.1-.4.2l-10.7 9.9v-9.5c0-.4-.3-.6-.6-.6h-8.6c-1.7-.1-3.2-.8-4.2-2-1-1.1-1.5-2.5-1.6-4.1-.1-1.5.4-3 1.3-4.1 1-1.3 2.5-2.1 4.4-2.4m-6.9 6.6c.1 3.3 2.4 7 7 7.3h7.9v10.4c0 .3.2.5.4.6.1 0 .2.1.3.1.2 0 .3-.1.4-.2L38 35.6H44.9c4.8-.5 7.1-4 7.2-7.3.1-1.8-.5-3.6-1.6-5-1.2-1.5-2.8-2.5-4.8-2.9-.6-2.1-1.9-3.6-3.7-4.5-1.6-.8-3.6-.8-5.5-.1-.9-2.6-2.6-4.6-4.9-5.8-2.3-1.2-4.9-1.6-7.5-1-2.5.6-4.6 1.9-6 3.9-1.5 2.1-2 4.7-1.7 7.7-4.3.8-6.1 4.4-6 7.6m10.5-3.4c1 0 1.8.8 1.8 1.8s-.8 1.8-1.8 1.8-1.8-.8-1.8-1.8.8-1.8 1.8-1.8m7.4-5.5c1 0 1.8.8 1.8 1.8s-.8 1.8-1.8 1.8-1.8-.8-1.8-1.8c0-.9.8-1.8 1.8-1.8m6.2 10.6c0 1-.8 1.8-1.8 1.8s-1.8-.8-1.8-1.8.8-1.8 1.8-1.8 1.8.8 1.8 1.8m5.2-7.4c1 0 1.8.8 1.8 1.8s-.8 1.8-1.8 1.8-1.8-.8-1.8-1.8.8-1.8 1.8-1.8m-18.8 7.2c1.7 0 3.1-1.4 3.1-3.1 0-.4-.1-.9-.3-1.2l2.4-2c.6.5 1.3.8 2.1.8h.5l1.7 3.5c-.6.6-.9 1.3-.9 2.2 0 1.7 1.4 3.1 3.1 3.1 1.7 0 3.1-1.4 3.1-3.1 0-.5-.1-1-.4-1.4l2.3-1.8c.5.4 1.2.7 2 .7 1.7 0 3.1-1.4 3.1-3.1 0-1.7-1.4-3.1-3.1-3.1-1.7 0-3.1 1.4-3.1 3.1 0 .5.1 1 .3 1.4l-2.3 1.8c-.5-.4-1.2-.7-1.9-.7-.4 0-.8.1-1.1.2L30 23.8c.9-.6 1.4-1.5 1.4-2.6 0-1.7-1.4-3.1-3.1-3.1-1.7 0-3.1 1.4-3.1 3.1 0 .4.1.8.2 1.2l-2.5 2c-.6-.5-1.3-.8-2.1-.8-1.7 0-3.1 1.4-3.1 3.1.1 1.7 1.5 3 3.2 3" fill="#FFF" fill-rule="nonzero"/></svg>