<svg width="55" height="55" viewBox="0 0 55 55" xmlns="http://www.w3.org/2000/svg"><title>aws_icon5</title><path d="M35.7 54.5c-.6 0-1-.4-1-1v-4.8H31v4.8c0 .6-.4 1-1 1s-1-.4-1-1v-4.8h-3.6v4.8c0 .6-.4 1-1 1s-1-.4-1-1v-4.8h-3.7v4.8c0 .6-.4 1-1 1s-1-.4-1-1v-4.8h-1c-3 0-5.6-1-7.6-3.1C7 43.4 6 40.9 6 38v-.9H1.2c-.6 0-1-.4-1-1s.4-1 1-1H6v-3.7H1.2c-.6 0-1-.4-1-1s.4-1 1-1H6v-3.6H1.2c-.6 0-1-.4-1-1s.4-1 1-1H6v-3.6H1.2c-.6 0-1-.4-1-1s.4-1 1-1H6v-1c0-3 1-5.6 3.1-7.5 2-2 4.6-3.1 7.6-3.1h1V1.7c0-.6.4-1 1-1s1 .4 1 1v4.8h3.6V1.7c0-.6.4-1 1-1s1 .4 1 1v4.8H29V1.7c0-.6.4-1 1-1s1 .4 1 1v4.8h3.6V1.7c0-.6.4-1 1-1s1 .4 1 1v4.8h1c3 0 5.4 1 7.5 3.1 2.1 2.1 3.1 4.6 3.1 7.5v1H53c.6 0 1 .4 1 1s-.4 1-1 1h-4.7v3.7h4.8c.6 0 1 .4 1 1s-.4 1-1 1h-4.8v3.6h4.8c.6 0 1 .4 1 1s-.4 1-1 1h-4.8v3.7h4.8c.6 0 1 .4 1 1s-.4 1-1 1h-4.8v1c0 3-1 5.4-3.1 7.5-2.1 2.1-4.6 3.1-7.5 3.1h-1v4.8c0 .6-.4 1-1 1zM30 46.7H37.7c2.4 0 4.4-.8 6.1-2.5 1.7-1.7 2.5-3.6 2.5-6.1V19.5c-.1-.1-.1-.3-.1-.4v-2c0-2.4-.8-4.4-2.5-6.1-1.7-1.7-3.6-2.5-6.1-2.5H19.1c-.1.1-.3.1-.4.1h-2c-2.5 0-4.5.8-6.2 2.5C8.8 12.7 8 14.7 8 17.2V38c0 2.4.8 4.4 2.5 6.2 1.7 1.7 3.7 2.5 6.2 2.5H30zm.3-4.2c-1.2 0-2.1-.4-2.9-1.2l-.2-.2-.2.2c-.8.8-1.8 1.2-2.9 1.2-1.2 0-2.1-.4-2.9-1.2-.5-.5-.9-1.1-1-1.7h-.6c-1.8 0-3.2-.6-4.5-1.9-1.2-1.2-1.9-2.8-1.9-4.5 0-.4 0-.7.1-1l-.6-.6c-1-1-1.6-2.3-1.6-3.7 0-1.5.6-2.8 1.6-3.7.2-.2.5-.4.7-.6-.1-.5-.2-1-.2-1.6 0-1.8.6-3.2 1.9-4.5 1.1-1.1 2.4-1.7 3.9-1.9.2-.6.6-1.2 1.2-1.7.9-.9 2-1.3 3.3-1.3 1.3 0 2.5.5 3.4 1.4l.4.4c.1-.2.3-.3.4-.4.9-.9 2.1-1.4 3.4-1.4 1.3 0 2.5.5 3.4 1.4.5.5.8 1 1.1 1.6 1.5.1 2.8.7 3.9 1.9 1.2 1.2 1.9 2.8 1.9 4.5 0 .6-.1 1.1-.2 1.6.2.2.5.4.7.6 1 1 1.6 2.3 1.6 3.7 0 1.5-.6 2.8-1.6 3.7-.2.2-.4.3-.6.5.1.3.1.7.1 1.1 0 1.8-.6 3.2-1.9 4.5-1.2 1.2-2.8 1.9-4.5 1.9h-.7c-.2.7-.5 1.2-1 1.7-.9.8-1.9 1.2-3 1.2zm-2.1-5.2v1.1c0 .6.2 1.1.6 1.5.4.4.9.6 1.5.6s1.1-.2 1.5-.6c.4-.4.6-.9.6-1.5 0-.3.1-.6.4-.8.2-.2.5-.3.8-.2.5.1.9.2 1.3.2 1.2 0 2.2-.5 3.1-1.3.9-.9 1.3-1.9 1.3-3.1 0-.3-.1-.7-.1-1v-.1c-.3-.8-.6-1.4-1.2-1.9-.7-.8-1.7-1.2-2.9-1.3-.6 0-1-.5-.9-1.1 0-.6.5-1 1.1-.9 1.7.1 3.1.8 4.2 1.9.4.4.7.8 1 1.3.7-.6.9-1.3.9-2.2 0-.9-.3-1.6-1-2.3-.3-.3-.6-.6-.9-.7-.5-.3-.7-.9-.5-1.3.2-.4.3-.9.3-1.6 0-1.2-.5-2.2-1.3-3.1-.9-.9-1.9-1.3-3.1-1.3h-.1c-.4 0-.8-.3-1-.7-.2-.6-.4-1-.8-1.5-.5-.5-1.2-.8-2-.8s-1.4.2-2 .8c-.5.5-.8 1.2-.8 2v2.1c0 1.1.5 2.2 1.3 3 .7.7 1.6 1.1 2.7 1.2.5 0 1 .5.9 1.1-.1.6-.5 1-1.1.9-1.5-.1-2.8-.7-3.8-1.7v11.3h1.7c.6 0 1 .4 1 1s-.4 1-1 1h-1.7zm-7.2.1c.2 0 .5.1.6.2.2.2.4.5.4.8 0 .6.2 1.1.6 1.5.4.4.9.6 1.5.6s1.1-.2 1.5-.6c.4-.4.6-.9.6-1.5v-1.1h-1.7c-.6 0-1-.4-1-1s.4-1 1-1h1.7V24c-1 1-2.3 1.6-3.8 1.7-.6 0-1-.4-1.1-.9-.1-.5.4-1 .9-1.1 1.1-.1 1.9-.5 2.7-1.2.8-.8 1.3-1.9 1.3-3v-2-.1c0-.8-.3-1.4-.8-2-.5-.5-1.2-.8-2-.8s-1.4.2-2 .8c-.4.3-.6.8-.8 1.5-.1.4-.5.7-1 .7h-.1c-1.2 0-2.2.5-3.1 1.3-.9.9-1.3 1.9-1.3 3.1 0 .6.2 1.2.3 1.7.1.4 0 .9-.3 1.1-.1.1-.3.2-.4.3-.2.2-.5.3-.6.5-.7.6-1 1.3-1 2.3 0 .8.3 1.5.9 2.2.3-.5.6-.9 1-1.3 1.2-1.2 2.5-1.8 4.1-1.9.6 0 1 .4 1.1.9 0 .6-.4 1-.9 1.1-1.2.1-2 .5-2.9 1.3-.5.5-.8.9-1 1.5v.2c-.1.5-.2.9-.2 1.3 0 1.2.5 2.2 1.3 3.1 1.2 1.2 2.5 1.5 4.4 1.1h.1zm15.1-2.1s-.1 0 0 0c-1.6-.1-2.9-.7-4-1.8-1.3-1.1-1.9-2.6-1.9-4.4 0-.6.4-1 1-1s1 .4 1 1c0 1.2.4 2.2 1.3 3 .8.8 1.6 1.2 2.7 1.2.6 0 1 .5.9 1.1 0 .5-.5.9-1 .9zm-17.9 0c-.5 0-1-.4-1-.9 0-.6.4-1 .9-1.1 1.1-.1 1.9-.5 2.7-1.2.9-.8 1.3-1.7 1.3-3 0-.6.4-1 1-1s1 .4 1 1c0 1.8-.6 3.3-1.9 4.4-1.1 1.1-2.4 1.7-4 1.8.1 0 0 0 0 0zm18.4-10c-.6 0-1-.4-1-1 0-1.2-.4-2.2-1.3-3-.8-.8-1.6-1.2-2.7-1.2-.5 0-1-.5-.9-1.1 0-.5.5-1 1.1-.9 1.5.1 2.9.7 3.9 1.8 1.3 1.1 1.9 2.6 1.9 4.4 0 .6-.4 1-1 1zm-18.9 0c-.6 0-1-.4-1-1 0-1.8.6-3.3 1.9-4.4 1-1 2.4-1.6 3.9-1.8.6 0 1 .4 1.1.9 0 .6-.4 1-.9 1.1-1.1.1-1.9.5-2.7 1.2-.9.8-1.3 1.7-1.3 3 0 .6-.4 1-1 1z" fill="#FF5A00" fill-rule="nonzero"/></svg>