<svg width="101" height="60" viewBox="0 0 101 60" xmlns="http://www.w3.org/2000/svg"><title>aws_logo-01</title><g fill-rule="nonzero" fill="none"><path d="M75.4 29.4c.9.5 2.2 1 3.8 1.3 1.6.4 3.4.5 5.1.5 1.7 0 3.3-.2 4.7-.7 1.4-.4 2.6-1.1 3.7-1.9 1-.8 1.9-1.7 2.4-3 .5-1.2.9-2.4.9-3.9 0-1.7-.5-3.3-1.5-4.7-1-1.3-2.7-2.4-5.1-3.2l-4.7-1.5c-1.7-.5-3.1-1.2-3.7-1.9-.7-.7-1-1.4-1-2.4 0-1.3.5-2.4 1.5-3 1.1-.7 2.5-1 4.5-1 2.4 0 4.5.4 6.5 1.3.5.5.9.7 1.3.7.5 0 .8-.3.8-1.1V3.6c0-.4-.1-.9-.3-1.1-.2-.3-.5-.7-1-.9-.3-.2-.9-.4-1.4-.5-.5-.2-1.2-.3-1.9-.5-.7-.1-1.4-.3-2.2-.3C87 0 86.2 0 85.5 0c-1.5 0-2.8.2-4.2.5-1.3.4-2.5 1-3.5 1.7-1 .8-1.7 1.6-2.4 2.7s-.9 2.3-.9 3.7c0 1.7.5 3.4 1.6 4.8 1.1 1.5 2.8 2.6 5.4 3.4l4.8 1.5c1.6.5 2.7 1.1 3.4 1.7.7.7.9 1.4.9 2.3 0 1.3-.5 2.4-1.7 3.2-1.2.8-2.7 1.1-4.9 1.1-1.3 0-2.6-.1-3.9-.4-1.3-.2-2.5-.7-3.7-1.2-.3-.1-.7-.2-.9-.3-.2-.1-.4-.1-.7-.1-.5 0-.8.3-.8 1.1v1.6c0 .3.1.7.2 1 .3.6.6.8 1.2 1.1zM18.8 13.2c-1.2-.2-2.4-.2-3.5-.2-3.4 0-6.1.9-8.2 2.6C5 17.3 4 19.6 4 22.5c0 2.7.8 4.8 2.4 6.5 1.6 1.6 3.8 2.4 6.7 2.4 3.9 0 7.2-1.5 9.8-4.6.3.8.7 1.4 1 2 .3.5.8 1.1 1.2 1.5.3.3.7.4 1 .4.2 0 .5-.1.9-.3l2.1-1.4c.4-.3.7-.7.7-1 0-.2-.1-.4-.2-.8-.4-.9-.9-1.6-1.1-2.4-.2-.8-.3-1.7-.3-3V10.9c0-3.6-.9-6.3-2.7-8.2C23.6.9 20.7 0 16.7 0c-1.9 0-3.6.2-5.2.7-1.5.4-3 .9-4.2 1.5-.5.2-.8.4-.9.6-.2.3-.2.7-.2 1.2v1.6c0 .7.2 1.1.7 1.1.1 0 .3 0 .5-.1.2 0 .6-.1 1.2-.4 1.2-.4 2.4-.9 3.6-1.1 1.2-.3 2.4-.4 3.6-.4 2.6 0 4.4.5 5.5 1.5 1.1 1 1.5 2.8 1.5 5.4V14c-1.4-.3-2.6-.5-4-.8zm3.9 5.9c0 1.1-.1 2.1-.3 2.8-.2.8-.5 1.5-1.1 2.1-.9 1-2 1.7-3.2 2.1-1.2.4-2.4.7-3.5.7-1.5 0-2.7-.4-3.5-1.2-.8-.8-1.2-2-1.2-3.5 0-1.6.5-3 1.6-3.8 1.1-.9 2.7-1.3 4.9-1.3 1 0 2.1.1 3.2.2s2.1.3 3.1.5v1.4zM39.5 28.9c.2.7.4 1.1.7 1.3.2.2.7.3 1.3.3h2.8c.7 0 1.1-.1 1.3-.3.2-.2.4-.7.7-1.3l5.1-21.5 5.2 21.5c.1.7.3 1.1.7 1.3.2.2.8.3 1.3.3h2.8c.5 0 1-.1 1.3-.3.2-.2.5-.7.7-1.3l8.1-25.8c.1-.3.2-.7.2-.8 0-.2.1-.3.1-.5 0-.5-.2-.8-.8-.8h-3.1c-.7 0-1.1.1-1.3.3-.2.2-.4.7-.7 1.3L60.3 25 54.9 2.5c-.1-.7-.3-1.1-.7-1.3-.1-.2-.7-.3-1.2-.3h-2.7c-.7 0-1.1.1-1.3.3-.2.2-.4.7-.7 1.3L43 24.6 37.4 2.5c-.2-.7-.4-1.1-.7-1.3-.2-.2-.7-.3-1.3-.3h-3.3c-.5 0-.8.2-.8.8 0 .2.1.7.3 1.3l7.9 25.9z" fill="#252F3E"/><path d="M89.1 45.1c-12.2 5.2-25.7 7.8-37.8 7.8-18 0-35.5-4.9-49.7-13.2-1.2-.8-2.2.5-1.1 1.5C13.6 52.9 30.9 60 50.1 60c13.7 0 29.6-4.3 40.7-12.5 1.7-1.2.1-3.2-1.7-2.4z" fill="#F79910"/><path d="M82.2 40.5c-1 .7-.8 1.6.2 1.5 3.5-.4 11.5-1.4 12.8.4 1.4 1.7-1.5 9.2-2.8 12.6-.4 1 .4 1.4 1.4.7 5.9-4.9 7.4-15.3 6.2-16.7-1.2-1.7-11.6-2.9-17.8 1.5z" fill="#F79910"/></g></svg>