<svg width="109" height="43" viewBox="0 0 109 43" xmlns="http://www.w3.org/2000/svg"><title>aws_logo-01</title><g fill="none" fill-rule="evenodd"><path d="M14 40.4l-6.4-2.3v-9.4l6.4 2.2v9.5m1.2 0l6.4-2.3v-9.4l-6.4 2.2v9.5M8.3 28.1l6.5-1.8 6 1.9-6 2-6.5-2.1m-1.9-.8L0 25v-9.4l6.4 2.2v9.5m1.2 0L14 25v-9.4l-6.4 2.2v9.5M.7 14.9l6.5-1.8 6 1.9-6 2-6.5-2.1m20.6 12.4L14.9 25v-9.4l6.4 2.2v9.5m1.2 0l6.4-2.3v-9.4l-6.4 2.2v9.5m-6.9-12.4l6.5-1.8 6 1.9-6 2-6.5-2.1m13.4-.7l-6.4-2.3V2.5L29 4.7v9.5m1.1 0l6.4-2.3V2.5l-6.4 2.2v9.5M23.2 1.8L29.7 0l6 1.9-6 2-6.5-2.1m20.7 12.4l-6.4-2.3V2.5l6.4 2.2v9.5m1.2 0l6.4-2.3V2.5l-6.4 2.2v9.5M38.2 1.8L44.6 0l6 1.9-6 2-6.4-2.1" fill="#F3991E"/><path fill="#020202" d="M40.7 34.3l-2.2 7.5h-.9l-1.7-5.6-1.5 5.6h-1l-2.2-7.5h1.2l1.6 5.6 1.6-5.6h.9l1.7 5.6 1.7-5.6z"/><path stroke="#020202" stroke-width=".044" fill="#020202" d="M40.7 34.3l-2.2 7.5h-.9l-1.7-5.6-1.5 5.6h-1l-2.2-7.5h1.2l1.6 5.6 1.6-5.6h.9l1.7 5.6 1.7-5.6z"/><path d="M46.6 39.6l1.1.2c-.2.6-.6 1.2-1.2 1.6-.6.4-1.2.6-2 .6-1 0-1.8-.4-2.5-1.1-.6-.7-.9-1.7-.9-2.8 0-1.2.3-2.2 1-2.9.7-.7 1.5-1.1 2.5-1.1s1.8.3 2.4 1c.6.7.9 1.7.9 3h-5.4c0 1.1.2 1.9.7 2.3.5.4 1 .6 1.5.6.8 0 1.5-.5 1.9-1.4zm-.1-2.3c0-.4-.1-.8-.2-1.1-.1-.3-.3-.6-.6-.8-.3-.3-.7-.4-1.1-.4-.6 0-1.1.2-1.5.6-.4.4-.6 1-.7 1.7h4.1z" fill="#020202"/><path d="M46.6 39.6l1.1.2c-.2.6-.6 1.2-1.2 1.6-.6.4-1.2.6-2 .6-1 0-1.8-.4-2.5-1.1-.6-.7-.9-1.7-.9-2.8 0-1.2.3-2.2 1-2.9.7-.7 1.5-1.1 2.5-1.1s1.8.3 2.4 1c.6.7.9 1.7.9 3h-5.4c0 1.1.2 1.9.7 2.3.5.4 1 .6 1.5.6.8 0 1.5-.5 1.9-1.4zm-.1-2.3c0-.4-.1-.8-.2-1.1-.1-.3-.3-.6-.6-.8-.3-.3-.7-.4-1.1-.4-.6 0-1.1.2-1.5.6-.4.4-.6 1-.7 1.7h4.1z" stroke="#020202" stroke-width=".044" fill="#020202"/><path d="M49.9 41.8h-.6V31.7h1.2v3.9c.5-1 1.3-1.5 2.2-1.5.9 0 1.6.3 2.2 1 .6.7.9 1.7.9 2.9 0 1.1-.3 2-.9 2.8-.6.8-1.3 1.1-2.2 1.1-1 0-1.8-.5-2.3-1.4l-.5 1.3zm.6-2.9c.1.8.3 1.3.7 1.7.4.3.9.5 1.3.5.6 0 1.1-.3 1.4-.8.4-.5.5-1.2.5-2.1 0-1-.2-1.7-.5-2.3-.3-.6-.8-.8-1.5-.8-.5 0-.9.2-1.3.6-.4.4-.6.9-.7 1.5l.1 1.7z" fill="#020202"/><path d="M49.9 41.8h-.6V31.7h1.2v3.9c.5-1 1.3-1.5 2.2-1.5.9 0 1.6.3 2.2 1 .6.7.9 1.7.9 2.9 0 1.1-.3 2-.9 2.8-.6.8-1.3 1.1-2.2 1.1-1 0-1.8-.5-2.3-1.4l-.5 1.3zm.6-2.9c.1.8.3 1.3.7 1.7.4.3.9.5 1.3.5.6 0 1.1-.3 1.4-.8.4-.5.5-1.2.5-2.1 0-1-.2-1.7-.5-2.3-.3-.6-.8-.8-1.5-.8-.5 0-.9.2-1.3.6-.4.4-.6.9-.7 1.5l.1 1.7z" stroke="#020202" stroke-width=".044" fill="#020202"/><path d="M58.7 39.9l1.1-.2c.2.9 1 1.4 2.3 1.4.5 0 .9-.1 1.2-.3.3-.2.5-.5.5-.9 0-.6-.4-1-1.3-1.1l-1.5-.4c-.6-.1-1.1-.4-1.5-.7-.4-.3-.5-.8-.5-1.4 0-.6.2-1.2.7-1.6.5-.4 1.2-.6 2-.6 1.6 0 2.6.6 3 1.9l-1.1.2c-.3-.8-.9-1.2-1.9-1.2-.5 0-.9.1-1.2.3-.3.2-.5.5-.5.8 0 .5.4.9 1.2 1l1.5.3c1.5.3 2.3 1 2.3 2.2 0 .7-.3 1.2-.9 1.7-.4.5-1.2.7-2.1.7-1.8 0-2.9-.7-3.3-2.1z" fill="#020202"/><path d="M58.7 39.9l1.1-.2c.2.9 1 1.4 2.3 1.4.5 0 .9-.1 1.2-.3.3-.2.5-.5.5-.9 0-.6-.4-1-1.3-1.1l-1.5-.4c-.6-.1-1.1-.4-1.5-.7-.4-.3-.5-.8-.5-1.4 0-.6.2-1.2.7-1.6.5-.4 1.2-.6 2-.6 1.6 0 2.6.6 3 1.9l-1.1.2c-.3-.8-.9-1.2-1.9-1.2-.5 0-.9.1-1.2.3-.3.2-.5.5-.5.8 0 .5.4.9 1.2 1l1.5.3c1.5.3 2.3 1 2.3 2.2 0 .7-.3 1.2-.9 1.7-.4.5-1.2.7-2.1.7-1.8 0-2.9-.7-3.3-2.1z" stroke="#020202" stroke-width=".044" fill="#020202"/><path d="M71.3 39.6l1.1.2c-.2.6-.6 1.2-1.2 1.6-.6.4-1.2.6-2 .6-1 0-1.8-.4-2.5-1.1-.6-.7-.9-1.7-.9-2.8 0-1.2.3-2.2 1-2.9.7-.7 1.5-1.1 2.5-1.1s1.8.3 2.4 1c.6.7.9 1.7.9 3h-5.4c0 1.1.2 1.9.7 2.3.5.4 1 .6 1.5.6.8 0 1.5-.5 1.9-1.4zm-.1-2.3c0-.4-.1-.8-.2-1.1-.1-.3-.3-.6-.6-.8-.3-.2-.7-.3-1.1-.3-.6 0-1.1.2-1.5.6-.4.4-.6 1-.7 1.7l4.1-.1z" fill="#020202"/><path d="M71.3 39.6l1.1.2c-.2.6-.6 1.2-1.2 1.6-.6.4-1.2.6-2 .6-1 0-1.8-.4-2.5-1.1-.6-.7-.9-1.7-.9-2.8 0-1.2.3-2.2 1-2.9.7-.7 1.5-1.1 2.5-1.1s1.8.3 2.4 1c.6.7.9 1.7.9 3h-5.4c0 1.1.2 1.9.7 2.3.5.4 1 .6 1.5.6.8 0 1.5-.5 1.9-1.4zm-.1-2.3c0-.4-.1-.8-.2-1.1-.1-.3-.3-.6-.6-.8-.3-.2-.7-.3-1.1-.3-.6 0-1.1.2-1.5.6-.4.4-.6 1-.7 1.7l4.1-.1z" stroke="#020202" stroke-width=".044" fill="#020202"/><path d="M74.9 41.8h-1.2v-7.5h1V36c.4-.8.7-1.3 1.1-1.6.4-.2.7-.4 1.1-.4h.5v1.1h-.2c-.6 0-1.2.2-1.6.7-.4.5-.6 1.1-.7 1.9v4.1z" fill="#020202"/><path d="M74.9 41.8h-1.2v-7.5h1V36c.4-.8.7-1.3 1.1-1.6.4-.2.7-.4 1.1-.4h.5v1.1h-.2c-.6 0-1.2.2-1.6.7-.4.5-.6 1.1-.7 1.9v4.1z" stroke="#020202" stroke-width=".044" fill="#020202"/><path fill="#020202" d="M84.7 34.3l-2.6 7.5h-1.2l-2.7-7.5h1.3l2.1 6.1 2.1-6.1z"/><path stroke="#020202" stroke-width=".044" fill="#020202" d="M84.7 34.3l-2.6 7.5h-1.2l-2.7-7.5h1.3l2.1 6.1 2.1-6.1z"/><path d="M85.6 31.7h1.2V33h-1.2v-1.3zm0 2.6h1.2v7.5h-1.2v-7.5z" fill="#020202"/><path d="M85.6 31.7h1.2V33h-1.2v-1.3zm0 2.6h1.2v7.5h-1.2v-7.5z" stroke="#020202" stroke-width=".044" fill="#020202"/><path d="M92.9 39.2l1 .2c-.1.8-.5 1.5-1 1.9-.5.4-1.1.7-1.9.7-1 0-1.8-.4-2.4-1.1-.5-.8-.8-1.7-.8-2.8 0-1.1.3-2.1.9-2.8.6-.8 1.3-1.1 2.3-1.1.8 0 1.5.2 2 .7.5.5.8 1.1.9 1.9l-1 .2c-.2-1.2-.8-1.9-1.8-1.9-.6 0-1.1.3-1.5.8-.3.5-.5 1.3-.5 2.1 0 1 .2 1.7.5 2.2.3.5.8.8 1.4.8 1 0 1.6-.6 1.9-1.8z" fill="#020202"/><path d="M92.9 39.2l1 .2c-.1.8-.5 1.5-1 1.9-.5.4-1.1.7-1.9.7-1 0-1.8-.4-2.4-1.1-.5-.8-.8-1.7-.8-2.8 0-1.1.3-2.1.9-2.8.6-.8 1.3-1.1 2.3-1.1.8 0 1.5.2 2 .7.5.5.8 1.1.9 1.9l-1 .2c-.2-1.2-.8-1.9-1.8-1.9-.6 0-1.1.3-1.5.8-.3.5-.5 1.3-.5 2.1 0 1 .2 1.7.5 2.2.3.5.8.8 1.4.8 1 0 1.6-.6 1.9-1.8z" stroke="#020202" stroke-width=".044" fill="#020202"/><path d="M100.5 39.6l1.1.2c-.2.6-.6 1.2-1.2 1.6-.6.4-1.2.6-2 .6-1 0-1.8-.4-2.5-1.1-.6-.7-.9-1.7-.9-2.8 0-1.2.3-2.2 1-2.9.7-.7 1.5-1.1 2.5-1.1s1.8.3 2.4 1c.6.7.9 1.7.9 3h-5.4c0 1.1.2 1.9.7 2.3.5.4 1 .6 1.5.6.8 0 1.5-.5 1.9-1.4zm-.1-2.3c0-.4-.1-.8-.2-1.1-.1-.3-.3-.6-.6-.8-.3-.2-.7-.3-1.1-.3-.6 0-1.1.2-1.5.6-.4.4-.6 1-.7 1.7l4.1-.1z" fill="#020202"/><path d="M100.5 39.6l1.1.2c-.2.6-.6 1.2-1.2 1.6-.6.4-1.2.6-2 .6-1 0-1.8-.4-2.5-1.1-.6-.7-.9-1.7-.9-2.8 0-1.2.3-2.2 1-2.9.7-.7 1.5-1.1 2.5-1.1s1.8.3 2.4 1c.6.7.9 1.7.9 3h-5.4c0 1.1.2 1.9.7 2.3.5.4 1 .6 1.5.6.8 0 1.5-.5 1.9-1.4zm-.1-2.3c0-.4-.1-.8-.2-1.1-.1-.3-.3-.6-.6-.8-.3-.2-.7-.3-1.1-.3-.6 0-1.1.2-1.5.6-.4.4-.6 1-.7 1.7l4.1-.1z" stroke="#020202" stroke-width=".044" fill="#020202"/><path d="M102.4 39.9l1.1-.2c.2.9 1 1.4 2.3 1.4.5 0 .9-.1 1.2-.3.3-.2.5-.5.5-.9 0-.6-.4-1-1.3-1.1l-1.6-.3c-.6-.1-1.1-.4-1.5-.7-.4-.3-.5-.8-.5-1.4 0-.6.2-1.2.7-1.6.5-.4 1.2-.6 2-.6 1.6 0 2.6.6 3 1.9l-1.1.2c-.3-.8-.9-1.2-1.9-1.2-.5 0-.9.1-1.2.3-.3.2-.5.5-.5.8 0 .5.4.9 1.2 1l1.5.3c1.5.3 2.3 1 2.3 2.2 0 .7-.3 1.2-.9 1.7-.6.4-1.3.6-2.3.6-1.5 0-2.6-.7-3-2.1z" fill="#020202"/><path d="M102.4 39.9l1.1-.2c.2.9 1 1.4 2.3 1.4.5 0 .9-.1 1.2-.3.3-.2.5-.5.5-.9 0-.6-.4-1-1.3-1.1l-1.6-.3c-.6-.1-1.1-.4-1.5-.7-.4-.3-.5-.8-.5-1.4 0-.6.2-1.2.7-1.6.5-.4 1.2-.6 2-.6 1.6 0 2.6.6 3 1.9l-1.1.2c-.3-.8-.9-1.2-1.9-1.2-.5 0-.9.1-1.2.3-.3.2-.5.5-.5.8 0 .5.4.9 1.2 1l1.5.3c1.5.3 2.3 1 2.3 2.2 0 .7-.3 1.2-.9 1.7-.6.4-1.3.6-2.3.6-1.5 0-2.6-.7-3-2.1z" stroke="#020202" stroke-width=".044" fill="#020202"/><path d="M76.1 18.4v-1.8c0-.2.2-.4.4-.5h8c.3 0 .5.2.5.5v1.5c0 .3-.2.6-.6 1.1l-4.2 6c1.5 0 3.2.2 4.6 1 .3.2.4.4.4.7v1.9c0 .3-.3.6-.6.4-2.5-1.3-5.8-1.4-8.5 0-.3.1-.6-.2-.6-.4V27c0-.3 0-.8.3-1.2l4.8-6.9h-4.2c-.1-.1-.3-.3-.3-.5M47.3 29.6h-2.4c-.2 0-.4-.2-.4-.4V16.6c0-.3.2-.5.5-.5h2.3c.2 0 .4.2.4.4v1.6c.6-1.6 1.7-2.3 3.2-2.3 1.5 0 2.5.7 3.2 2.3.6-1.6 1.9-2.3 3.4-2.3 1 0 2.1.4 2.8 1.4.8 1.1.6 2.6.6 3.9V29c0 .3-.2.5-.5.5H58c-.2 0-.4-.2-.4-.5v-6.7c0-.5 0-1.9-.1-2.4-.2-.6-.7-.9-1.5-.9-.6 0-1.2.4-1.5 1-.3.6-.2 1.7-.2 2.4v6.7c0 .3-.2.5-.5.5h-2.4c-.2 0-.4-.2-.4-.5v-6.7c0-1.4.2-3.5-1.5-3.5-1.8 0-1.7 2-1.7 3.5v6.7c0 .3-.2.5-.5.5M91 15.9c3.6 0 5.6 3.1 5.6 7.1 0 3.8-2.2 6.9-5.6 6.9-3.5 0-5.5-3.1-5.5-7 0-4 2-7 5.5-7zm0 2.9c-1.8 0-1.9 2.5-1.9 4s0 4.5 1.9 4.5 2-2.3 2-3.9c0-1.1 0-2.3-.4-3.3-.3-1-.8-1.3-1.6-1.3zm10.8 10.8h-2.4c-.2 0-.4-.2-.4-.5V16.5c0-.2.2-.4.5-.4h2.3c.2 0 .4.2.4.4v1.9c.7-1.7 1.6-2.5 3.3-2.5 1.1 0 2.2.4 2.9 1.5.6 1 .6 2.7.6 3.9v7.9c0 .2-.2.4-.5.4H106c-.2 0-.4-.2-.4-.4v-6.8c0-1.4.2-3.4-1.5-3.4-.6 0-1.1.4-1.4 1-.3.8-.4 1.5-.4 2.4v6.8c-.1.2-.3.4-.5.4m-31.8-6c0 1 0 1.7-.5 2.6-.4.7-1 1.1-1.7 1.1-.9 0-1.5-.7-1.5-1.8 0-2.1 1.9-2.5 3.6-2.5l.1.6zm2.5 5.9c-.2.1-.4.2-.6.1-.8-.7-1-1-1.4-1.6-1.3 1.4-2.3 1.8-4 1.8-2.1 0-3.7-1.3-3.7-3.8 0-2 1.1-3.3 2.6-4 1.3-.6 3.2-.7 4.6-.8v-.3c0-.6 0-1.3-.3-1.8s-.9-.6-1.4-.6c-.9 0-1.8.5-2 1.5 0 .2-.2.4-.4.4l-2.4-.4c-.2 0-.4-.2-.4-.5.5-2.9 3.1-3.7 5.5-3.7 1.2 0 2.7.3 3.7 1.2 1.2 1.1 1.1 2.6 1.1 4.2V25c0 1.1.5 1.7.9 2.3.2.2.2.5 0 .6-.5.4-1.4 1.2-1.8 1.6zm-34.3-5.9c0 1 0 1.7-.5 2.6-.4.7-1 1.1-1.7 1.1-.9 0-1.5-.7-1.5-1.8 0-2.1 1.9-2.5 3.6-2.5l.1.6zm2.4 5.9c-.2.1-.4.2-.6.1-.8-.7-1-1-1.4-1.6-1.3 1.4-2.3 1.8-4 1.8-2.1 0-3.7-1.3-3.7-3.8 0-2 1.1-3.3 2.6-4 1.3-.6 3.2-.7 4.6-.8v-.3c0-.6 0-1.3-.3-1.8s-.9-.6-1.4-.6c-.9 0-1.8.5-2 1.5 0 .2-.2.4-.4.4l-2.3-.4c-.2 0-.4-.2-.4-.5.5-2.9 3.1-3.7 5.5-3.7 1.2 0 2.7.3 3.7 1.2 1.2 1.1 1.1 2.6 1.1 4.2V25c0 1.1.5 1.7.9 2.3.2.2.2.5 0 .6-.5.4-1.4 1.2-1.9 1.6z" fill="#020202"/></g></svg>