<svg width="46" height="56" viewBox="0 0 46 56" xmlns="http://www.w3.org/2000/svg"><title>aws_icon8</title><g fill="#FF5A00" fill-rule="nonzero"><path d="M21 34.8c-.9 0-1.9-.1-2.8-.2-.5 0-.8-.5-.8-.9l.1-1.6c0-.8-.3-1.3-.9-1.7l-2.1-1.2c-.5-.3-1-.4-2.1.1l-1.3.7c-.3.2-.8.1-1.1-.2-1.4-1.5-2.3-3.2-2.9-5-.1-.4.1-.8.4-1L9 23c.9-.6 1-1.2 1-1.6V19c0-.4-.1-1.1-1.1-1.7l-1.5-.8c-.4-.2-.6-.7-.4-1.1.7-1.8 1.7-3.5 2.9-4.9.3-.3.8-.4 1.1-.2l1.4.9c.7.4 1.4.4 2 .1l2.1-1.2c.6-.3.9-.9.9-1.8l-.1-1.6c0-.4.3-.8.7-.9 1-.2 2-.2 2.9-.2.9 0 1.9.1 2.8.2.4 0 .8.4.8.9v1.6c0 .8.3 1.4.9 1.8l2.2 1.2c.6.3 1.2.3 2-.1l1.3-.9c.3-.2.8-.2 1.1.1 1.4 1.5 2.3 3.2 2.9 5 .1.4-.1.8-.4 1l-1.5 1c-.9.6-1 1.2-1 1.6v2.5c0 .4.1 1.1 1.1 1.7l1.5.8c.4.2.5.6.4 1-.7 1.8-1.6 3.5-2.9 5-.3.3-.8.4-1.1.2l-1.4-.9c-.5-.2-1.3-.5-1.9-.1l-2.2 1.2c-.6.3-.9.9-.9 1.7v1.6c0 .4-.3.8-.7.8-1 .3-2 .3-2.9.3zm-1.8-1.9c1.3.1 2.5.2 3.6 0V32c0-1.5.6-2.6 1.7-3.2l2.2-1.2c1-.6 2.3-.6 3.6.1l.8.5c.7-1 1.3-2 1.8-3.2l-.8-.4c-1.6-1-2-2.3-2-3.2V19c0-.9.3-2.2 1.9-3.1l.9-.5c-.4-1.1-1-2.2-1.8-3.2l-.8.5c-1.4.7-2.6.7-3.7.1l-2.2-1.2c-1.2-.7-1.7-1.8-1.7-3.3v-.7c-1.3-.1-2.5-.2-3.6 0l.1.9c0 1.5-.6 2.7-1.7 3.3L15.4 13c-1.1.6-2.4.6-3.7-.1l-.8-.5c-.7.9-1.3 2-1.8 3.1l.8.4c1.6 1 2 2.3 2 3.2v2.4c0 .9-.3 2.2-1.9 3.1L9 25c.4 1.1 1 2.2 1.8 3.2l.8-.5c1-.4 2.3-.9 3.7-.1l2.1 1.2c1.1.7 1.7 1.8 1.7 3.2l.1.9z"/><path d="M21.1 26.7c-1.8 0-3.3-.6-4.5-1.9-1.2-1.2-1.9-2.7-1.9-4.5 0-1.6.6-3.1 1.8-4.5 1.3-1.3 2.8-1.9 4.5-1.9 1.8 0 3.3.6 4.5 1.9 1.2 1.3 1.9 2.7 1.9 4.5 0 1.8-.6 3.3-1.9 4.5-1.3 1.2-2.6 1.9-4.4 1.9zm0-11c-1.3 0-2.4.4-3.3 1.3-.9 1-1.3 2.1-1.3 3.3 0 1.3.4 2.4 1.3 3.3.9.9 2 1.3 3.3 1.3 1.3 0 2.4-.4 3.3-1.3.9-.9 1.3-2 1.3-3.3 0-1.3-.4-2.4-1.3-3.3-.9-.9-2-1.3-3.3-1.3z"/><path d="M32.5 55.3l-23.1-.2c-.3 0-.5-.1-.7-.3-.2-.2-.2-.5-.1-.7C11 45.5 10 38.8 5.5 33.7 1.9 29.6.1 24.8.2 19.7c.7-9.5 6-15.5 15.5-17.9C24.5-.6 31.3 1 36 6.3c0 0 0 .1.1.1 1.6 2.4 3.1 5.5 4.3 9.1.3.7.2 1.6-.3 2.7-.1.3 0 1.1 1.3 2.4l3.4 3.8c.8 1 1.1 1.9.9 2.7-.2.9-1 1.6-2.4 2.1-.1.1-.2.1-.2.1s0 .1.1.4c.6 1.5.2 2.4-.4 3 .3.7.2 1.5-.3 2.3-.3.3-.3.8-.1 1.3.7 1.6.8 3 .2 4.1-.5 1-1.6 1.7-3.1 2.1l-4.2 1c-2 .5-2.8 4.4-2 10.7 0 .2-.1.5-.2.7-.1.3-.4.4-.6.4zm-22-1.9l21 .2c-.7-7 .5-10.9 3.5-11.6l4.2-1c1-.2 1.7-.6 2-1.2.3-.6.2-1.5-.3-2.7-.5-1.5-.1-2.4.3-3 .3-.4.2-.6-.1-.8-.2-.2-.3-.5-.3-.8 0-.3.2-.5.5-.7.5-.2.8-.4.4-1.4-.5-1.3-.1-2.2 1.1-2.7.8-.3 1.3-.6 1.3-1 .1-.3-.1-.7-.6-1.2l-3.4-3.8c-2.1-2.1-2-3.5-1.6-4.4.3-.6.4-1.1.3-1.3-1.2-3.5-2.6-6.4-4.1-8.7-4.3-4.8-10.5-6.2-18.6-4.1C7.2 5.6 2.5 10.9 1.9 19.7c-.1 4.6 1.6 9 4.9 12.8 4.6 5.2 5.8 12.3 3.7 20.9z"/></g></svg>