<svg width="1312" height="559" viewBox="0 0 1312 559" xmlns="http://www.w3.org/2000/svg"><title>banner_over</title><path d="M0 0v558h870.1c.3-22.5 18.4-40.6 40.7-40.6 8.5 0 16.4 2.6 22.9 7.3 2.3 1.6 4.6 3.4 6.5 5.5.4.7 1.2 1.2 1.9 1.9 2.5 2.6 5.4 5.2 8.3 7.3 19.6 16.1 50.5 13.1 71.1-7.6 16.5-16.5 21.8-39.5 15-58.1-2.7-8.9-6.9-16.7-13.6-22.8l-.7-.6c-6.3-5.7-11-13.2-12.7-21.8-.5-2.7-.8-5.6-.8-8.4 0-22.4 18.5-40.7 41.2-40.7 22.7 0 41.2 18.2 41.2 40.7 0 8.5-2.7 16.3-7.3 22.9-1.6 2.3-2.6 3.7-4.7 5.9-.6.5-1.7 1.8-2.5 2.5-4 3.7-7.3 8.1-9.9 12.8-13.1 19.6-9.4 48.2 10.1 67.6 21 21 52.8 23.8 72.2 6.6 2.5-1.9 4.8-3.9 7-6.2.7-.7 1.5-1.2 1.9-1.9 2-2 4.2-3.8 6.5-5.5 6.5-4.5 14.4-7.3 22.9-7.3 22.3 0 40.4 18.2 40.7 40.6h83.6V0H0zm909.8 376.1c22.7 0 41.1 18.4 41.1 41.1 0 22.7-18.4 41.1-41.1 41.1-22.7 0-41.1-18.4-41.1-41.1 0-22.7 18.4-41.1 41.1-41.1zm108.7-20.1c-1.7 8.6-6 16.1-12.2 21.8l-.4.4c-1.9 1.8-3.7 3.7-5.3 5.8-17.2 18.4-15.9 48.6 2.7 70l.2-.2.2.5c1.2 1.6 2.3 3.3 3.8 4.6.5.2.8.7 1.3 1.3 1.6 1.6 3 3.2 4.3 4.9 11.9 13.6 10.1 35.5-4.6 50.3-13.6 13.6-33.4 16.2-47.1 7-3.4-1.9-6.3-4.1-8.9-6.8-.5-.5-1.4-1.3-1.7-1.7-1.6-1.5-2.4-2.2-4-3.3l.2-.2c-16.1-13.8-37.2-17.8-54.4-11.6-8.9 2.7-16.9 7.8-23.1 14.3l-.4.4c-5.7 6.3-13.2 10.6-21.8 12.2-2.7.5-5.6.8-8.4.8-22.4 0-40.7-18.5-40.7-41.2 0-22.7 18.2-41.2 40.7-41.2 8.5 0 16.4 2.6 22.9 7.3 2.3 1.6 4.6 3.4 6.5 5.5.4.7 1.2 1.2 1.9 1.9 3.7 4 8.1 7.3 12.8 9.9 19.6 13.1 48.2 9.4 67.6-10.1 21-21 23.8-52.8 6.6-72.2-1.9-2.5-3.9-4.8-6.2-7-.7-.7-1.2-1.5-1.9-1.9-2-2-3.8-4.2-5.5-6.5-4.5-6.5-7.3-14.4-7.3-22.9 0-22.4 18.5-40.7 41.2-40.7 22.7 0 41.2 18.2 41.2 40.7.6 2.4.3 5.1-.2 7.9zm213.7 61.2c0 22.7-18.4 41.1-41.1 41.1-22.7 0-41.1-18.4-41.1-41.1 0-22.7 18.4-41.1 41.1-41.1 22.7 0 41.1 18.4 41.1 41.1zm29.6 110.2c-2.9 0-5.8-.3-8.4-.8-8.6-1.7-16.1-6-21.8-12.2l-.4-.4c-6.2-6.5-14.2-11.6-23.1-14.3-17.1-6.2-38.3-2.2-54.4 11.6l.2.2c-1.6 1.1-2.4 1.8-4 3.3-.3.4-1.3 1.3-1.7 1.7-2.6 2.7-5.6 5.2-8.9 6.8-13.6 9-33.4 6.5-47.1-7-14.6-14.6-16.5-36.7-4.6-50.3 1.3-1.8 2.7-3.4 4.3-4.9.5-.5.8-1.1 1.3-1.3 1.4-1.4 2.6-2.9 3.8-4.6l.2-.5.2.2c18.6-21.3 20-51.6 2.7-70-1.6-2-3.4-4-5.3-5.8l-.4-.4c-6.3-5.7-10.6-13.2-12.2-21.8-.5-2.7-.8-5.6-.8-8.4 0-22.4 18.5-40.7 41.2-40.7 22.7 0 41.2 18.2 41.2 40.7 0 8.5-2.6 16.4-7.3 22.9-1.6 2.3-3.4 4.6-5.5 6.5-.7.4-1.2 1.2-1.9 1.9-2.3 2.2-4.4 4.5-6.2 7-17.1 19.4-14.5 51.1 6.6 72.2 19.6 19.6 48.2 23.2 67.6 10.1 4.7-2.6 9-6 12.8-9.9.7-.7 1.5-1.2 1.9-1.9 2-2 4.2-3.8 6.5-5.5 6.5-4.5 14.4-7.3 22.9-7.3 22.4 0 40.7 18.5 40.7 41.2.5 23.2-17.7 41.7-40.1 41.7z" fill="#3D4C5E" fill-rule="nonzero"/></svg>