<svg width="175" height="174" viewBox="0 0 175 174" xmlns="http://www.w3.org/2000/svg"><title>brand_simbol_blank</title><g fill="#80C41C" fill-rule="nonzero"><path d="M98.9 126.9c-.6-.8-1.2-1.6-1.9-2.3-.3-.1-.4-.4-.6-.6-.7-.7-1.4-1.5-2-2.3-5.7-6.7-4.8-17.6 2.5-24.8 7.4-7.4 18.7-8.3 25.3-2 .7.6 1.4 1.2 2 1.8l.1.1c2 2.2 4.6 3.7 7.5 4.2.9.2 1.9.3 2.9.3 7.8 0 14.1-6.4 14.1-14.3s-6.3-14.3-14.1-14.3c-2.9 0-5.7.9-7.9 2.5-.8.6-1.6 1.2-2.3 1.9-.1.3-.4.4-.6.6-.7.8-1.6 1.5-2.4 2.1-6.7 5.9-17.7 5-25-2.3-6.8-6.8-8-16.6-3.5-23.4.9-1.6 2.1-3.1 3.4-4.4.3-.3.6-.7.9-.9.8-.8 1.1-1.2 1.7-2.1 1.5-2.3 2.5-5 2.5-7.9 0-7.8-6.4-14.1-14.3-14.1S72.9 31 72.9 38.8c0 1 .1 2 .3 2.9.6 3 2.2 5.6 4.4 7.5l.3.2c2.3 2.2 3.7 4.8 4.7 7.9 2.2 6.7.4 14.7-5.3 20.4-7.2 7.2-17.9 8.2-24.6 2.6-1-.7-2-1.6-2.9-2.5-.3-.3-.5-.4-.6-.6-.7-.7-1.5-1.3-2.3-1.9-2.3-1.6-5-2.5-7.9-2.5-7.8 0-14.1 6.4-14.1 14.3s6.3 14.3 14.1 14.3c1 0 2-.1 2.9-.3 3-.6 5.6-2.1 7.5-4.2l.1-.1c1-1.1 2.2-2.1 3.6-2.9 6.8-5.1 17.1-3.9 24.1 3.1 6.7 6.7 8 16.4 3.7 23.2-.9 1.5-2 2.9-3.3 4.2l-.1.1c-2.2 2-3.7 4.6-4.2 7.5-.2.9-.3 1.9-.3 2.9 0 7.8 6.4 14.1 14.3 14.1s14.3-6.3 14.3-14.1c-.2-3-1.2-5.7-2.7-8z"/><path d="M14.1 76c1 0 2-.1 2.9-.3 3-.6 5.6-2.1 7.5-4.2l.1-.1c2.2-2.3 4.9-4 8-5 5.9-2.2 13.2-.7 18.8 4l-.1.1c.5.4.8.6 1.4 1.1.1.2.4.4.6.6.9 1 1.9 1.8 3.1 2.4 4.7 3.2 11.6 2.3 16.3-2.4 5.1-5.1 5.7-12.7 1.6-17.4-.4-.6-.9-1.2-1.5-1.7-.2-.2-.3-.4-.4-.4-.5-.5-.9-1-1.3-1.6l-.1-.3-.1.1C64.5 43.5 64 33 70 26.7c.6-.7 1.2-1.4 1.8-2l.1-.1c2.2-2 3.7-4.6 4.2-7.5.2-.9.3-1.9.3-2.9C76.5 6.3 70.1 0 62.2 0c-7.9 0-14.3 6.3-14.3 14.1 0 2.9.9 5.7 2.5 7.9.6.8 1.2 1.6 1.9 2.3.3.1.4.4.6.6.8.7 1.5 1.6 2.1 2.4 5.9 6.7 5 17.7-2.3 25-6.8 6.8-16.6 8-23.4 3.5-1.6-.9-3.1-2.1-4.4-3.4-.3-.3-.5-.4-.6-.6-.7-.7-1.5-1.3-2.3-1.9-2.3-1.6-5-2.5-7.9-2.5C6.3 47.4 0 53.8 0 61.7S6.3 76 14.1 76zM71.9 149.1l-.1-.1c-.7-.6-1.3-1.3-1.8-2-6-6.4-5.5-16.8 1-24.2l.1.1.1-.2c.4-.6.8-1.1 1.3-1.6.2-.1.3-.3.4-.4.5-.5 1-1.1 1.5-1.7 4.1-4.7 3.5-12.3-1.6-17.4-4.7-4.7-11.6-5.6-16.3-2.4-1.1.6-2.2 1.4-3.1 2.4-.2.2-.5.4-.6.6-.5.5-.8.8-1.4 1.1l.1.1c-5.6 4.8-12.9 6.2-18.8 4-3.1-1-5.9-2.7-8-5l-.1-.1c-2-2.2-4.6-3.7-7.5-4.2-.9-.2-1.9-.3-2.9-.3C6.3 97.6 0 104 0 111.9c0 7.9 6.3 14.3 14.1 14.3 2.9 0 5.7-.9 7.9-2.5.8-.6 1.6-1.2 2.3-1.9.1-.3.4-.4.6-.6 1.3-1.4 2.8-2.5 4.4-3.4 6.8-4.5 16.7-3.2 23.4 3.5 7.3 7.3 8.2 18.3 2.3 25-.6.9-1.4 1.7-2.1 2.4-.3.3-.4.5-.6.6-.7.7-1.3 1.5-1.9 2.3-1.6 2.3-2.5 5-2.5 7.9 0 7.8 6.4 14.1 14.3 14.1s14.3-6.3 14.3-14.1c0-1-.1-2-.3-2.9-.6-3-2.1-5.6-4.3-7.5zM102.5 24.9l.1.1c.7.6 1.3 1.3 1.8 2 6 6.4 5.5 16.8-1 24.2l-.1-.1-.1.2c-.4.6-.8 1.1-1.3 1.6-.2.1-.3.3-.4.4-.5.5-1 1.1-1.5 1.7-4.1 4.7-3.5 12.3 1.6 17.4 4.7 4.7 11.6 5.6 16.3 2.4 1.1-.6 2.2-1.4 3.1-2.4.2-.2.5-.4.6-.6.5-.5.8-.8 1.4-1.1l-.1-.1c5.6-4.8 12.9-6.2 18.8-4 3.1 1 5.9 2.7 8 5l.1.1c2 2.2 4.6 3.7 7.5 4.2.9.2 1.9.3 2.9.3 7.8 0 14.1-6.4 14.1-14.3s-6.3-14.3-14.1-14.3c-2.9 0-5.7.9-7.9 2.5-.8.6-1.6 1.2-2.3 1.9-.1.3-.4.4-.6.6-1.3 1.4-2.8 2.5-4.4 3.4-6.8 4.5-16.7 3.2-23.4-3.5-7.3-7.3-8.2-18.3-2.3-25 .6-.9 1.4-1.7 2.1-2.4.3-.3.4-.5.6-.6.7-.7 1.3-1.5 1.9-2.3 1.6-2.3 2.5-5 2.5-7.9 0-7.8-6.4-14.1-14.3-14.1C104.4.3 98 6.6 98 14.4c0 1 .1 2 .3 2.9.6 3 2 5.6 4.2 7.6zM160.4 97.6c-1 0-2 .1-2.9.3-3 .6-5.6 2.1-7.5 4.2l-.1.1c-2.2 2.3-4.9 4-8 5-5.9 2.2-13.2.8-18.8-4l.1-.1c-.5-.4-.8-.6-1.4-1.1-.1-.2-.4-.4-.6-.6-.9-1-1.9-1.8-3.1-2.4-4.7-3.2-11.6-2.2-16.3 2.4-5.1 5.1-5.7 12.7-1.6 17.4.4.6.9 1.2 1.5 1.7.2.2.3.4.4.4.5.5.9 1 1.3 1.6l.1.2.1-.1c6.5 7.4 6.9 17.9 1 24.2-.6.7-1.2 1.4-1.8 2l-.1.1c-2.2 2-3.7 4.6-4.2 7.5-.2.9-.3 1.9-.3 2.9 0 7.8 6.4 14.1 14.3 14.1s14.3-6.3 14.3-14.1c0-2.9-.9-5.7-2.5-7.9-.6-.8-1.2-1.6-1.9-2.3-.3-.1-.4-.4-.6-.6-.8-.7-1.5-1.6-2.1-2.4-5.9-6.7-5-17.7 2.3-25 6.8-6.8 16.7-8 23.4-3.5 1.6.9 3.2 2.1 4.4 3.4.3.3.5.4.6.6.7.7 1.5 1.3 2.3 1.9 2.3 1.6 5 2.5 7.9 2.5 7.8 0 14.1-6.4 14.1-14.3-.3-7.7-6.6-14.1-14.3-14.1z"/><circle cx="38.5" cy="38.2" r="14.2"/><path d="M135.9 121.4c-7.9 0-14.2 6.4-14.2 14.2 0 7.9 6.4 14.2 14.2 14.2 7.9 0 14.2-6.4 14.2-14.2 0-7.8-6.3-14.2-14.2-14.2z"/><circle cx="38.5" cy="135.7" r="14.2"/><path d="M121.7 38.2c0 7.9 6.4 14.2 14.2 14.2 7.9 0 14.2-6.4 14.2-14.2 0-7.9-6.4-14.2-14.2-14.2-7.9-.1-14.2 6.3-14.2 14.2z"/></g></svg>