<svg width="138" height="37" viewBox="0 0 138 37" xmlns="http://www.w3.org/2000/svg"><title>brand_ic</title><g fill="#FFF" fill-rule="nonzero"><path d="M62.7 13.4c-1.9-2-4.3-2.9-7.3-2.9-6.5 0-11.9 5.8-11.9 13s5.3 13 12.8 13c7.5 0 12.7-5.8 12.7-13V0h-6.4v13.4h.1zm-6.4 17.1c-3.5 0-6.4-3-6.4-7 0-4.1 2.8-7.1 6.4-7.1 3.5 0 6.4 3.2 6.4 7.1 0 3.9-2.9 7-6.4 7zM74 11.4V36h6.4V16.8h4.5v-5.6h-4.5c0-3.4 1.7-4.7 4.7-4.4v-6C77.9-.1 74 4.8 74 11.4zM110.5 11.1h-7.2l-4.6 7.5-4.6-7.5h-7.3l8.2 12-8.7 12.8h7.2l5.2-8.4 5.2 8.4h7.2l-8.7-12.8zM125.8 11.8c-1.6 0-3.3.3-5.1 1.3l1.2-4.7H135v-6h-18l-4 18.4h6.3c1.4-2 3.6-3 5.7-3 3 0 6.1 2.1 6.1 6.4 0 3.8-2.4 6.5-6.1 6.5-3.1 0-5.5-1.6-6.2-4h-6.5c.3 2.3 1.3 4.3 2.8 6 2.4 2.5 6 4 9.9 4 7.2 0 12.5-5.2 12.5-12.4.1-7.4-5.4-12.5-11.7-12.5zM20.6 26.7c-.1-.2-.2-.3-.4-.5l-.1-.2c-.2-.1-.3-.3-.4-.5-1.2-1.4-1-3.7.5-5.2 1.6-1.6 3.9-1.7 5.3-.4.1.1.3.2.4.4.4.5 1 .8 1.6.9.2 0 .4.1.6.1 1.6 0 2.9-1.3 2.9-3s-1.3-3-2.9-3c-.6 0-1.2.2-1.7.5-.2.1-.3.2-.5.4l-.1.1c-.2.2-.3.3-.5.4-1.4 1.2-3.7 1-5.2-.5-1.4-1.4-1.7-3.5-.7-4.9.2-.3.4-.7.7-.9l.2-.2c.2-.2.2-.3.3-.4.3-.5.5-1 .5-1.7 0-1.6-1.3-2.9-3-2.9-1.6 0-3 1.3-3 2.9 0 .2 0 .4.1.6.1.6.5 1.2.9 1.6h.1c.5.4.8 1 1 1.7.5 1.3.1 3-1.1 4.2-1.5 1.5-3.7 1.7-5.1.5-.2-.2-.4-.3-.6-.5l-.1-.1c-.1-.1-.3-.3-.5-.4-.5-.3-1-.5-1.7-.5-1.6 0-2.9 1.3-2.9 3s1.3 3 2.9 3c.2 0 .4 0 .6-.1.6-.1 1.2-.4 1.6-.9.2-.2.5-.4.7-.6 1.4-1.1 3.6-.8 5 .6s1.7 3.4.8 4.8c-.2.3-.4.6-.7.9-.5.4-.8 1-.9 1.6 0 .2-.1.4-.1.6 0 1.6 1.3 2.9 3 2.9 1.6 0 3-1.3 3-2.9.1-.4-.1-1-.5-1.4z"/><path d="M2.9 16c.2 0 .4 0 .6-.1.6-.1 1.2-.4 1.6-.9.4-.5 1-.8 1.7-1 1.2-.5 2.8-.2 3.9.8.1.1.2.1.3.2l.1.1c.2.2.4.4.6.5 1 .7 2.4.5 3.4-.5 1.1-1.1 1.2-2.7.3-3.6-.1-.1-.2-.2-.3-.4L15 11l-.3-.3c-1.3-1.5-1.4-3.7-.2-5.1.1-.1.2-.3.4-.4.5-.4.8-1 .9-1.6 0-.2.1-.4.1-.6 0-1.6-1.3-2.9-3-2.9-1.6 0-3 1.3-3 2.9 0 .6.2 1.2.5 1.7.1.2.2.3.4.5l.1.1c.2.2.3.3.4.5 1.2 1.4 1 3.7-.5 5.2-1.4 1.4-3.5 1.7-4.9.7-.3-.2-.7-.4-.9-.7h.1c-.1-.1-.3-.3-.5-.4-.5-.3-1-.5-1.7-.5-1.6 0-2.9 1.3-2.9 3S1.3 16 2.9 16zM15 31.3l-.4-.4c-1.2-1.3-1.1-3.5.2-5.1l.3-.3.1-.1c.1-.1.2-.2.3-.4.9-1 .7-2.6-.3-3.6s-2.4-1.2-3.4-.5c-.2.1-.5.3-.6.5l-.2.1c-.1.1-.2.2-.3.2-1.2 1-2.7 1.3-3.9.8-.6-.2-1.2-.6-1.7-1-.4-.5-1-.8-1.6-.9-.2 0-.4-.1-.6-.1-1.6 0-2.9 1.3-2.9 3 0 1.6 1.3 3 2.9 3 .6 0 1.2-.2 1.7-.5.2-.1.3-.2.5-.4l.1-.1c.3-.3.6-.5.9-.7 1.4-.9 3.5-.7 4.9.7 1.5 1.5 1.7 3.8.5 5.2-.1.2-.3.4-.4.5l-.1.1c-.1.1-.3.3-.4.5-.3.5-.5 1-.5 1.7 0 1.6 1.3 2.9 3 2.9 1.6 0 3-1.3 3-2.9 0-.2 0-.4-.1-.6-.2-.7-.5-1.2-1-1.6zM33.5 10.1c-.6 0-1.2.2-1.7.5-.2.1-.3.2-.5.4l-.1.1c-.3.3-.6.5-.9.7-1.4.9-3.5.7-4.9-.7-1.5-1.5-1.7-3.8-.5-5.2.1-.2.3-.4.4-.5l.1-.1c.1-.1.3-.3.4-.5.3-.5.5-1 .5-1.7 0-1.6-1.3-2.9-3-2.9-1.6 0-3 1.3-3 2.9 0 .2 0 .4.1.6.1.6.4 1.2.9 1.6l.4.4c1.2 1.3 1.1 3.5-.2 5.1l-.3.3-.1.1c-.1.1-.2.2-.3.4-.9 1-.7 2.6.3 3.6s2.4 1.2 3.4.5c.2-.1.5-.3.6-.5l.1-.1c.1-.1.2-.2.3-.2 1.2-1 2.7-1.3 3.9-.8.6.2 1.2.6 1.7 1 .4.5 1 .8 1.6.9.2 0 .4.1.6.1 1.6 0 2.9-1.3 2.9-3 .2-1.6-1.1-3-2.7-3zM33.5 20.5c-.2 0-.4 0-.6.1-.6.1-1.2.4-1.6.9-.4.5-1 .8-1.7 1-1.2.5-2.8.2-3.9-.8-.1-.1-.2-.1-.3-.2l-.1-.1c-.2-.2-.4-.4-.6-.5-1-.7-2.4-.5-3.4.5-1.1 1-1.3 2.6-.4 3.6.1.1.2.2.3.4l.1.1.3.3c1.3 1.5 1.4 3.7.2 5.1-.1.1-.2.3-.4.4-.5.4-.8 1-.9 1.6 0 .2-.1.4-.1.6 0 1.6 1.3 2.9 3 2.9 1.6 0 3-1.3 3-2.9 0-.6-.2-1.2-.5-1.7-.1-.2-.2-.3-.4-.5l-.1-.1c-.2-.2-.3-.3-.4-.5-1.2-1.4-1-3.7.5-5.2 1.4-1.4 3.5-1.7 4.9-.7.3.2.7.4.9.7l.1.1c.1.1.3.3.5.4.5.3 1 .5 1.7.5 1.6 0 2.9-1.3 2.9-3-.1-1.6-1.4-3-3-3z"/><path d="M8 11.1c1.6 0 3-1.3 3-3 0-1.6-1.3-3-3-3-1.6 0-3 1.3-3 3 .1 1.7 1.4 3 3 3zM28.4 25.5c-1.6 0-3 1.3-3 3s1.3 3 3 3c1.6 0 3-1.3 3-3s-1.4-3-3-3zM11 28.5c0-1.6-1.3-3-3-3-1.6 0-3 1.3-3 3s1.3 3 3 3 3-1.4 3-3zM25.4 8.1c0 1.6 1.3 3 3 3 1.6 0 3-1.3 3-3 0-1.6-1.3-3-3-3-1.7.1-3 1.4-3 3z"/></g></svg>