<svg width="114" height="31" viewBox="0 0 114 31" xmlns="http://www.w3.org/2000/svg"><title>brand</title><g fill-rule="nonzero" fill="none"><g fill="#FFF"><path d="M57.5 19.6c0 6-4.4 10.8-10.6 10.8-6.3 0-10.7-4.8-10.7-10.8 0-6 4.5-10.8 9.9-10.8 2.5 0 4.5.8 6.1 2.4V0h5.3v19.6zm-10.6-5.9c-2.9 0-5.3 2.5-5.3 6 0 3.3 2.4 5.8 5.3 5.8s5.3-2.6 5.3-5.8c0-3.4-2.3-6-5.3-6zM69.8 9.3V14h-3.7v16h-5.3V9.5c0-5.5 3.3-9.6 9.3-8.9v5c-2.5-.2-3.9.8-3.9 3.7h3.6zM86.6 29.9l-4.3-7-4.3 7h-6l7.2-10.7-6.8-10h6l3.9 6.3 3.8-6.3h6l-6.8 10 7.2 10.7zM103.6 30.5c-3.3 0-6.3-1.2-8.2-3.3-1.3-1.4-2.1-3.1-2.3-5h5.4c.6 2 2.6 3.3 5.2 3.3 3.1 0 5.1-2.2 5.1-5.4 0-3.6-2.6-5.4-5.1-5.4-1.8 0-3.7.9-4.8 2.5h-5.3L97 2h15v5h-11l-1 3.9c1.4-.8 2.9-1 4.2-1 5.2 0 9.8 4.2 9.8 10.3.1 5.9-4.4 10.3-10.4 10.3z"/></g><path d="M23.4 12.8c-.5 0-1 .2-1.4.4-.1.1-.3.2-.4.3l-.1.1-.4.4c-1.2 1-3.1.9-4.4-.4-1.2-1.2-1.4-2.9-.6-4.1.2-.3.4-.5.6-.8 0 0 .1-.1.1-.2.1-.1.2-.2.3-.4.3-.4.4-.9.4-1.4 0-1.4-1.1-2.4-2.5-2.4s-2.5 1.1-2.5 2.4c0 .2 0 .3.1.5.1.5.4 1 .8 1.3.4.4.7.8.8 1.4.4 1.1.1 2.5-.9 3.5-1.2 1.2-3.1 1.4-4.3.5 0 .1-.2 0-.3-.2l-.1-.1c-.1-.1-.3-.2-.4-.3-.4-.3-.9-.4-1.4-.4-1.4 0-2.4 1.1-2.4 2.5s1.1 2.5 2.4 2.5c.2 0 .3 0 .5-.1.5-.1 1-.4 1.3-.7.2-.2.4-.4.6-.5 1.2-.9 3-.7 4.2.5 1.2 1.2 1.4 2.9.6 4-.2.3-.3.5-.6.7-.4.3-.6.8-.7 1.3 0 .2-.1.3-.1.5 0 1.4 1.1 2.4 2.5 2.4s2.5-1.1 2.5-2.4c0-.5-.2-1-.4-1.4-.1-.1-.2-.3-.3-.4l-.1-.1c-.1-.1-.2-.3-.4-.4-1-1.2-.8-3.1.4-4.3 1.3-1.3 3.2-1.4 4.4-.3l.3.3c.3.4.8.6 1.3.7.2 0 .3.1.5.1 1.4 0 2.4-1.1 2.4-2.5.2-1.4-.9-2.5-2.3-2.5z" fill="#7D7874"/><path d="M10.8.1C9.4.1 8.3 1.2 8.3 2.5c0 .5.2 1 .4 1.4.2.2.3.3.4.5l.1.1.4.4c1 1.2.9 3.1-.4 4.4-1.2 1.1-2.9 1.4-4.1.6-.3-.2-.5-.4-.8-.6l-.1-.1c-.1-.2-.2-.3-.4-.4-.4-.2-.8-.4-1.4-.4C1.1 8.4 0 9.5 0 10.9s1.1 2.5 2.4 2.5c.2 0 .3 0 .5-.1.5-.1 1-.4 1.3-.7.4-.4.9-.7 1.4-.9 1-.4 2.3-.1 3.3.7l.2.2.1.1c.2.2.3.3.5.4.8.5 2 .4 2.8-.4.9-.9 1-2.2.3-3l-.3-.3s0-.1-.1-.1c-.1-.1-.2-.2-.2-.3-1.1-1.3-1.2-3.1-.2-4.2l.3-.3c.4-.3.6-.8.7-1.3 0-.2.1-.3.1-.5.2-1.5-.9-2.6-2.3-2.6z" fill="#C2000B"/><path d="M10.8 30.4c-1.4 0-2.5-1.1-2.5-2.4 0-.5.2-1 .4-1.4.1-.1.2-.3.3-.4l.1-.1.4-.4c1-1.2.9-3.1-.4-4.4-1.2-1.2-2.9-1.4-4.1-.6-.3.2-.5.4-.8.6l-.1.1c-.1.1-.3.2-.4.3-.4.3-.9.4-1.4.4C1.1 22.1 0 21 0 19.6s1.1-2.5 2.4-2.5c.2 0 .3 0 .5.1.5.1 1 .4 1.3.7.4.4.9.7 1.4.9 1 .4 2.3.1 3.3-.7.1-.1.2-.1.3-.2l.1-.1c.2-.2.3-.3.5-.4.8-.5 2-.4 2.8.4.9.9 1 2.2.3 3l-.3.3s0 .1-.1.1c-.1.1-.2.2-.2.3-1.1 1.3-1.2 3.1-.2 4.2l.3.3c.4.3.6.8.7 1.3 0 .2.1.3.1.5.1 1.5-1 2.6-2.4 2.6z" fill="#2E58A6"/><path d="M19.5.2C20.9.2 22 1.3 22 2.6c0 .5-.2 1-.4 1.4-.1.1-.2.3-.3.4l-.1.1c-.2.2-.3.3-.4.5-1 1.2-.9 3.1.4 4.4 1.2 1.2 2.9 1.4 4.1.6.3-.2.5-.4.8-.6l.1-.1c.1-.1.3-.2.4-.3.4-.3.9-.4 1.4-.4 1.4 0 2.4 1.1 2.4 2.5s-1.1 2.5-2.4 2.5c-.2 0-.3 0-.5-.1-.5-.1-1-.4-1.3-.7-.4-.4-.9-.7-1.4-.9-1-.4-2.3-.1-3.3.7l-.2.2-.1.1c-.2.2-.3.3-.5.4-.8.5-2 .4-2.8-.4-.9-.9-1-2.2-.3-3l.3-.3s0-.1.1-.1c.1-.1.2-.2.2-.3 1.1-1.3 1.2-3.1.2-4.2l-.3-.3c-.4-.3-.6-.8-.7-1.3-.3-.4-.4-.6-.4-.8C17 1.3 18.2.2 19.5.2z" fill="#12491D"/><path d="M19.5 30.4c1.4 0 2.5-1.1 2.5-2.4 0-.5-.2-1-.4-1.4-.1-.1-.2-.3-.3-.4l-.1-.1-.4-.4c-1-1.2-.9-3.1.4-4.4 1.2-1.2 2.9-1.4 4.1-.6.3.2.5.4.8.6l.1.1c.1.1.3.2.4.3.4.3.9.4 1.4.4 1.4 0 2.4-1.1 2.4-2.5s-1.1-2.5-2.4-2.5c-.2 0-.3 0-.5.1-.5.1-1 .4-1.3.7-.4.4-.9.7-1.4.9-1 .4-2.3.1-3.3-.7l-.2-.2-.1-.1c-.2-.2-.3-.3-.5-.4-.8-.5-2-.4-2.8.4-.9.9-1 2.2-.3 3l.3.3s0 .1.1.1c.1.1.2.2.2.3 1.1 1.3 1.2 3.1.2 4.2l-.3.3c-.4.3-.6.8-.7 1.3 0 .2-.1.3-.1.5-.3 1.5.9 2.6 2.2 2.6z" fill="#FE330A"/><circle fill="#FD1A16" cx="6.7" cy="6.8" r="2.5"/><circle fill="#FEA621" cx="23.7" cy="23.8" r="2.5"/><circle fill="#4FA0CA" cx="6.7" cy="23.8" r="2.5"/><circle fill="#80C41C" cx="23.7" cy="6.8" r="2.5"/></g></svg>