<svg width="30" height="29" viewBox="0 0 30 29" xmlns="http://www.w3.org/2000/svg"><title>call</title><path d="M26.6 10.9c-.3 0-.6 0-.8.1-.6-5.8-3.6-9.1-8.2-9.8-.1 0-.1-.1-.1-.1-2.6-.5-5.5 0-7.8 1.1h-.1c-.2.2-.5.4-.7.5-.2.1-.4.2-.6.4-.2.1-.4.2-.6.4-2 1.6-3.3 4-3.7 7.4-.2 0-.3-.1-.6 0-2.3.3-2.8 2.4-2.4 4.8.4 2.4 1.8 4.3 4.3 4.3.2 0 .4-.1.5-.1 1.9 3.5 5 6.2 8 6.8l.1-1.7c-4.2-.8-7.4-5.8-7.4-11.9v-1c.3.3 1.1.3 1.6.4 1.8.1 2.9-.6 4.7-2.6.8 1.4 2.4 2.5 4.5 3 2.2.5 4.9.4 6.3-.3v.5c0 4.6-1.8 8.6-4.6 10.6.4.3.7.7 1 1 1.6-1.3 3-3 4.1-5 .1.1.3.2.5.2-1 3.1-3.7 5.3-6.2 5.7-.3-.3-.7-.5-1.2-.5-1 0-1.8.8-1.8 1.8s.8 1.8 1.8 1.8c.8 0 1.4-.5 1.7-1.2 4.2-.6 7.8-4.1 8.2-8.3 1-.8 1.6-2.1 1.9-3.6.4-2.3-.1-4.4-2.4-4.7zm-14.5 4.8c0 .7-.6 1.3-1.3 1.3-.7 0-1.3-.6-1.3-1.3 0-.7.6-1.3 1.3-1.3.7 0 1.3.6 1.3 1.3zm8.3 0c0 .7-.6 1.3-1.3 1.3-.7 0-1.3-.6-1.3-1.3 0-.7.6-1.3 1.3-1.3.7 0 1.3.6 1.3 1.3z" fill="#2D3143" fill-rule="nonzero"/></svg>