<svg width="94" height="10" viewBox="0 0 94 10" xmlns="http://www.w3.org/2000/svg"><title>chubb-01</title><g fill="#231F20" fill-rule="nonzero"><path d="M87 7.8h-9.9V5.5H87v2.3zm-9.9-6.2H87v2.3h-9.9V1.6zm9.1 7.8c1.7 0 2.6-.7 2.6-2V6.3c0-.3-.1-.5-.4-.7l-1.1-1 1.1-1c.3-.2.4-.4.4-.7V2c0-1.3-.8-2-2.6-2H75.3v9.4h10.9zM67.9 7.8H58V5.5h9.9v2.3zM58 1.6h9.9v2.3H58V1.6zm9.1 7.8c1.7 0 2.6-.7 2.6-2V6.3c0-.3-.1-.5-.4-.7l-1.1-1 1.1-1c.3-.2.4-.4.4-.7V2c0-1.3-.8-2-2.6-2H56.2v9.4h10.9zM48.3 0v7.7H39V0h-1.8v7.3c0 1.3.8 2.2 2.4 2.2h8.1c1.6 0 2.4-.8 2.4-2.2V0h-1.8zM19.8 3.9V0H18v9.4h1.8V5.5h9.5v3.9h1.8V0h-1.8v3.8h-9.5v.1zm-7-2.2V0H2.4C.8 0 0 .8 0 2.2v5.1c0 1.3.8 2.2 2.4 2.2h10.4V7.7h-11v-6h11zM92.4.1c.2.1.3.2.4.3.1.1.2.3.3.4.1.2.1.3.1.5s0 .4-.1.5c-.1.2-.2.3-.3.4-.1.1-.3.2-.4.3-.2.1-.3.1-.5.1s-.4 0-.5-.1c-.2-.1-.3-.2-.4-.3-.1-.1-.2-.3-.3-.4-.1-.2-.1-.3-.1-.5s0-.3.1-.5.2-.3.3-.4c.1-.1.3-.2.4-.3.1-.1.3-.1.5-.1s.4 0 .5.1zm-.9.2c-.1.1-.2.1-.3.2-.2.1-.2.2-.3.4-.1.1-.1.3-.1.4 0 .2 0 .3.1.4.1.1.1.3.2.4.1.1.2.2.3.2.1.1.3.1.4.1.2 0 .3 0 .4-.1.1-.1.2-.1.3-.2.1-.1.2-.2.2-.3.3-.2.3-.4.3-.5 0-.2 0-.3-.1-.4-.1-.1-.1-.2-.2-.3-.1-.1-.2-.2-.3-.2-.1-.1-.3-.1-.4-.1-.2-.1-.4-.1-.5 0zM91.4 2V.5h.6c.2 0 .3 0 .4.1.1.1.1.2.1.3v.2s0 .1-.1.1l-.1.1h-.1l.4.7h-.2l-.4-.7h-.3V2h-.3zm.6-.8h.1s.1 0 .1-.1V1 .9s0-.1-.1-.1H92h-.4v.5h.2c.1-.1.2-.1.2-.1z"/></g></svg>