<svg width="69" height="26" viewBox="0 0 69 26" xmlns="http://www.w3.org/2000/svg"><title>crm-01</title><g fill="#231F20" fill-rule="nonzero"><path d="M0 12.8c0-3.7.2-5 .7-6.7C2 2.1 5.2 0 9.7 0c4.4 0 7.5 2.1 8.9 5.6.1.3.1.4-.2.5l-4.8 2.1c-.3.1-.4 0-.5-.2-.7-1.5-1.6-2.3-3.2-2.3s-2.6.8-3 2.1c-.3.8-.4 1.5-.4 5s.1 4.2.4 5c.4 1.4 1.4 2.1 3 2.1 1.7 0 2.5-.9 3.2-2.3.1-.3.3-.3.5-.2l4.8 2.1c.3.1.3.3.2.5-1.4 3.6-4.5 5.6-8.9 5.6-4.5 0-7.7-2.1-9-6.1-.5-1.7-.7-3-.7-6.7zM34.8 25.2c-.3 0-.4-.1-.5-.4l-3.8-8.5h-2.4c-.1 0-.2.1-.2.2v8.2c0 .2-.1.4-.4.4h-5.7c-.2 0-.4-.1-.4-.4V.7c0-.2.1-.4.4-.4h10.1c5.7 0 8.9 3.3 8.9 8 0 3.1-1.5 5.6-4.1 6.9l4.6 9.4c.1.2 0 .4-.3.4h-6.2v.2zm-.3-16.7c0-1.6-1.1-2.6-2.9-2.6h-3.4c-.1 0-.2.1-.2.2v4.8c0 .1.1.2.2.2h3.4c1.8 0 2.9-1 2.9-2.6zM44.4.8c0-.2.1-.4.4-.4h5.4c.3 0 .5.1.6.4l5.7 12.9h.1L62.2.8c.1-.3.4-.4.6-.4h5.3c.2 0 .4.1.4.4v24c0 .2-.1.4-.4.4H63c-.2 0-.4-.1-.4-.4V12.1h-.2l-4 9.3c-.2.4-.5.5-.7.5H55c-.2 0-.5-.1-.7-.5l-4-9.3h-.2v12.7c0 .2-.1.4-.4.4h-5.1c-.2 0-.4-.1-.4-.4V.8h.2z"/></g></svg>