<svg width="82" height="82" viewBox="0 0 82 82" xmlns="http://www.w3.org/2000/svg"><title>cti_integrations</title><g fill="none" fill-rule="evenodd"><circle fill="#E8523F" fill-rule="nonzero" cx="41" cy="41" r="41"/><path d="M26.4 72.5c2.7-10.4 1.2-19.1-4.4-25.8-4.2-4.8-6.2-10.1-6-15.9.9-10.9 6.6-17.5 17.6-20.3 3-.8 5.9-1.2 8.5-1.2 6 0 11 2.1 14.6 6.4 1.9 2.8 3.6 6.4 5 10.7.1.4 0 1.1-.3 1.9-.6 1.3 0 3 2 5.1l4.2 4.7c.4.4.9 1.1.7 1.6-.1.5-.7 1-1.8 1.5-.6.3-1.1.7-1.3 1.2-.2.5-.2 1.2.1 1.9.6 1.4 0 1.8-.5 2-.2.1-.4.3-.5.6 0 .3 0 .5.2.7.6.6.5.9.2 1.3-.5.5-1 1.6-.3 3.3.7 1.6.8 2.8.3 3.7-.4.7-1.3 1.3-2.6 1.6L57 58.6c-3.6.7-5 5.3-4.2 14.1l-26.4-.2z" fill="#3D4C5E"/><path d="M42 10.2c5.8 0 10.4 2 14 6 1.9 2.8 3.5 6.3 4.9 10.5 0 .1.1.4-.3 1.3-1.1 2.5 1.3 5.1 2.1 5.9l4.2 4.7c.5.6.6.9.6.9 0 .1-.3.5-1.3.9s-1.5 1.1-1.7 1.6c-.3.7-.3 1.6.1 2.5.2.5.2.7.2.8 0 0-.1.1-.3.2-.5.2-.8.7-.9 1.2-.1.5.1 1.1.5 1.4l.2.2v.1c-.6.8-1.2 2.1-.5 4.1v.1c.5 1.3.7 2.3.3 3-.3.5-1 .9-2.1 1.2L56.9 58c-5.4 1.1-5.3 9.5-4.9 14.1l-24.5-.2c2.4-10.3.8-18.8-4.8-25.5-4.1-4.7-6-9.7-5.8-15.3.9-10.5 6.4-16.9 17-19.6 2.8-.9 5.6-1.3 8.1-1.3m0-1.6c-2.7 0-5.5.4-8.6 1.2-11.3 2.8-17.3 9.8-18.2 21-.2 6 1.9 11.5 6.2 16.4 5.7 6.7 7 15.4 4 26.1l28.3.2c-.9-8.8.2-13.5 3.5-14.1l5.2-1.2c3.3-.7 4.2-2.8 2.8-6.3-.4-1.1-.3-1.9.2-2.5.6-.8.5-1.6-.3-2.4 1.3-.5 1.6-1.6.9-3-.4-1-.2-1.6.7-2 2.5-1.1 3-2.5 1.4-4.3L64 32.9c-1.7-1.8-2.3-3.2-1.8-4.2.5-1 .6-1.8.4-2.5-1.5-4.4-3.2-8-5.2-11-4-4.4-9.1-6.6-15.4-6.6z" fill="#FFF" fill-rule="nonzero"/><path d="M53 30.1l3.4-.9-1.5-5.7-3.6.9c-.8-1.5-1.9-2.8-3.2-3.8l1.8-3-5.1-3-1.9 3.2c-1.6-.4-3.2-.6-4.9-.5l-.9-3.3-5.7 1.5.9 3.6c-1.5.8-2.8 1.9-3.8 3.2l-3-1.8-3 5.1 3.2 1.9c-.4 1.6-.6 3.2-.5 4.9l-3.4.9 1.5 5.7 3.6-.9c.8 1.5 1.9 2.8 3.2 3.8l-1.8 3 5.1 3 1.9-3.2c1.6.4 3.2.6 4.9.5l.9 3.4 5.7-1.5-.9-3.6c1.5-.8 2.8-1.9 3.8-3.2l3 1.8 3-5.1-3.2-1.9c.5-1.6.6-3.2.5-5zM40.7 42.5c-6.2.9-11.9-3.4-12.7-9.6-1-6.2 3.3-11.9 9.5-12.8 6.2-.9 11.9 3.4 12.7 9.6.9 6.2-3.4 11.9-9.5 12.8zm-5.9-15.3c1.2-1.2 2.6-1.8 4.2-1.8s3.1.6 4.2 1.8c1.2 1.2 1.8 2.6 1.8 4.2 0 1.7-.6 3.1-1.8 4.2-1.2 1.2-2.6 1.8-4.2 1.8s-3.1-.6-4.2-1.8C33.6 34.4 33 33 33 31.4c.1-1.7.7-3.1 1.8-4.2z" fill="#F7C012" fill-rule="nonzero"/></g></svg>