<svg xmlns="http://www.w3.org/2000/svg" width="113" height="47.031" viewBox="0 0 113 47.031"><defs><style>.cls-1{fill:#fff;fill-rule:evenodd}</style></defs><path id="dfx_cruies.svg" class="cls-1" d="M197.426 204l9.366 3.936s-33.024 8.749-47.966 18.153c0-.002 20.897-17.28 38.6-22.089zM240 207.9s-33.205-7.73-96.329 28.793c0 0 39.141-19.41 67.726-21.652 0 0-36.543 9.241-49.7 17.278 0 0 30.858-11.646 49.048-12.3 0 0-13.48 3.28-17.54 6.069 0 0 19.031-4.048 26.581 3.636zm-113 25.4s2.057 11.263 29.559 4.046 35.839-10.935 49.265-10.06 16.891 9.4 16.891 9.4-7.038-11.2-37.355-1.553-55.876 11.785-58.366-1.833zm92.791 5.8s-6.6-8.967-25.986-3.172-25.12 13.888-39.3 13.888c0 0 9.529 4.7 26.2-4.483s30.095-9.623 39.08-6.233zm-50.212 2.815s-18.109 6.4-33.457 2.379a28.65 28.65 0 0 0 20.464 2.788c11.85-2.706 12.987-5.167 12.987-5.167z" transform="translate(-127 -204)"/></svg>