<svg width="111" height="30" viewBox="0 0 111 30" xmlns="http://www.w3.org/2000/svg"><title>dfx_brand_bl-01</title><g fill-rule="nonzero" fill="none"><g fill="#231F20"><path d="M55.8 19c0 5.8-4.3 10.5-10.3 10.5-6.1 0-10.3-4.7-10.3-10.5s4.3-10.5 9.6-10.5c2.4 0 4.3.7 5.9 2.3V0h5.1v19zm-10.3-5.7c-2.8 0-5.1 2.5-5.1 5.8 0 3.2 2.3 5.7 5.1 5.7s5.1-2.5 5.1-5.7c.1-3.3-2.3-5.8-5.1-5.8zM67.7 9v4.6h-3.6v15.5H59V9.2c0-5.3 3.2-9.3 9-8.7v4.8c-2.5-.2-3.8.8-3.8 3.6h3.5V9zM84 29l-4.2-6.8-4.2 6.8h-5.8l7-10.4-6.6-9.7H76l3.7 6.1 3.7-6.1h5.9l-6.6 9.7 7 10.4zM100.5 29.5c-3.2 0-6.1-1.2-8-3.2-1.2-1.3-2-3-2.3-4.8h5.2c.6 2 2.5 3.2 5 3.2 3 0 5-2.1 5-5.2 0-3.5-2.5-5.2-5-5.2-1.8 0-3.5.9-4.6 2.5h-5.1L94.1 2h14.5v4.8H98l-1 3.8c1.4-.7 2.8-1 4.1-1 5.1 0 9.5 4.1 9.5 9.9 0 5.8-4.3 10-10.1 10z"/></g><path d="M22.7 12.4c-.5 0-1 .2-1.3.4-.1.1-.3.2-.4.3l-.1.1-.4.4c-1.1 1-3 .8-4.2-.4-1.1-1.1-1.4-2.8-.6-4 .1-.2.3-.4.6-.7l.1-.1.3-.3c.3-.4.4-.8.4-1.3 0-1.3-1.1-2.4-2.4-2.4-1.3 0-2.4 1.1-2.4 2.4 0 .2 0 .3.1.5.1.5.4.9.7 1.3.4.4.6.8.8 1.3.4 1.1.1 2.4-.9 3.4-1.2 1.2-3 1.4-4.2.4-.2-.1-.3-.3-.5-.4l-.1-.1c0-.2-.2-.3-.3-.3-.4-.3-.8-.4-1.3-.4-1.3 0-2.4 1.1-2.4 2.4 0 1.3 1.1 2.4 2.4 2.4.2 0 .3 0 .5-.1.5-.1.9-.3 1.3-.7.1-.2.3-.4.6-.5 1.1-.9 2.9-.7 4.1.5 1.1 1.1 1.4 2.8.6 3.9-.2.3-.3.5-.6.7-.4.3-.6.8-.7 1.3 0 .2-.1.3-.1.5 0 1.3 1.1 2.4 2.4 2.4 1.3 0 2.4-1.1 2.4-2.4 0-.5-.2-1-.4-1.3-.1-.1-.2-.3-.3-.4l-.1-.1c-.1-.1-.2-.2-.3-.4-1-1.1-.8-3 .4-4.2 1.3-1.3 3.1-1.4 4.3-.3l.3.3c.3.4.8.6 1.3.7.2 0 .3.1.5.1 1.3 0 2.4-1.1 2.4-2.4 0-1.3-1.2-2.5-2.5-2.5z" fill="#888B8C"/><path d="M10.5.1C9.2.1 8.1 1.2 8.1 2.5c0 .5.2 1 .4 1.3.1.2.2.3.3.4l.1.1.4.4c1 1.1.8 3-.4 4.2-1.1 1.1-2.8 1.4-4 .6-.2-.1-.5-.3-.7-.5l-.1-.1c-.1-.1-.2-.2-.4-.3-.4-.3-.8-.5-1.3-.5C1.1 8.1 0 9.2 0 10.5 0 11.9 1.1 13 2.4 13c.2 0 .3 0 .5-.1.5-.1.9-.3 1.3-.7.4-.4.8-.7 1.4-.8 1-.4 2.2-.1 3.2.7l.2.2.1.1c.2.2.3.3.5.4.8.5 2 .4 2.7-.4.9-.9 1-2.1.3-2.9l-.3-.3s0-.1-.1-.1c-.1-.1-.2-.2-.2-.3-1.1-1.2-1.2-3-.2-4.1l.3-.3c.4-.3.6-.8.7-1.3 0-.2.1-.3.1-.5 0-1.4-1.1-2.5-2.4-2.5z" fill="#BE1A2D"/><path d="M10.5 29.4c-1.3 0-2.4-1.1-2.4-2.4 0-.5.2-1 .4-1.3.1-.1.2-.3.3-.4l.1-.1.4-.4c1-1.1.8-3-.4-4.2-1.1-1.1-2.8-1.4-4-.6-.3.2-.5.3-.8.6l-.1.1c0 .1-.1.2-.3.3-.4.3-.8.4-1.3.4C1.1 21.4 0 20.3 0 19c0-1.3 1.1-2.4 2.4-2.4.2 0 .3 0 .5.1.5.1.9.3 1.3.7.4.4.8.7 1.4.8 1 .4 2.2.1 3.2-.7l.2-.2.1-.1c.2-.2.3-.3.5-.4.8-.5 2-.4 2.7.4.9.9 1 2.1.3 2.9l-.3.3s0 .1-.1.1c-.1.1-.2.2-.2.3-1.1 1.2-1.2 3-.2 4.1l.3.3c.4.3.6.8.7 1.3 0 .2.1.3.1.5 0 1.4-1.1 2.4-2.4 2.4z" fill="#2074AF"/><path d="M18.9.2c1.3 0 2.4 1.1 2.4 2.4 0 .5-.2 1-.4 1.3-.1.1-.2.3-.3.4l-.1.1-.4.4c-1 1.1-.8 3 .4 4.2 1.1 1.1 2.8 1.4 4 .6.3-.1.5-.3.7-.6l.1-.1c.1-.1.2-.2.4-.3.4-.3.8-.4 1.3-.4 1.3 0 2.4 1.1 2.4 2.4 0 1.3-1.1 2.4-2.4 2.4-.2 0-.3 0-.5-.1-.5-.1-.9-.3-1.3-.7-.4-.4-.8-.7-1.4-.8-1-.4-2.2-.1-3.2.7l-.2.2-.1.1c-.2.2-.3.3-.5.4-.8.5-2 .4-2.7-.4-.9-.9-1-2.1-.3-2.9.2-.2.2-.3.3-.4 0 0 0-.1.1-.1.1-.1.2-.2.2-.3 1.1-1.2 1.2-3 .2-4.1l-.3-.3c-.4-.3-.6-.8-.7-1.3 0-.2-.1-.3-.1-.5 0-1.2 1.1-2.3 2.4-2.3z" fill="#0F6838"/><path d="M18.9 29.4c1.3 0 2.4-1.1 2.4-2.4 0-.5-.2-1-.4-1.3-.1-.1-.2-.3-.3-.4l-.1-.1-.4-.4c-1-1.1-.8-3 .4-4.2 1.1-1.1 2.8-1.4 4-.6.3.2.5.3.8.6l.1.1c.1.1.2.2.4.3.4.3.8.4 1.3.4 1.3 0 2.4-1.1 2.4-2.4 0-1.3-1.1-2.4-2.4-2.4-.2 0-.3 0-.5.1-.5.1-.9.3-1.3.7-.4.4-.8.7-1.4.8-1 .4-2.2.1-3.2-.7l-.2-.2-.1-.1c-.2-.2-.3-.3-.5-.4-.8-.5-2-.4-2.7.4-.9.9-1 2.1-.3 2.9l.3.3s0 .1.1.1c.1.1.2.2.2.3 1.1 1.2 1.2 3 .2 4.1l-.3.3c-.4.3-.6.8-.7 1.3 0 .2-.1.3-.1.5-.1 1.4 1 2.4 2.3 2.4z" fill="#EF5A28"/><circle fill="#EC4136" cx="6.5" cy="6.6" r="2.4"/><circle fill="#F9B040" cx="22.9" cy="23" r="2.4"/><circle fill="#29A3C9" cx="6.5" cy="23" r="2.4"/><circle fill="#8DC33E" cx="22.9" cy="6.6" r="2.4"/></g></svg>