<svg width="82" height="82" viewBox="0 0 82 82" xmlns="http://www.w3.org/2000/svg"><title>disaster_recovery</title><g fill-rule="nonzero" fill="none"><circle fill="#474E5B" cx="41" cy="41" r="41"/><path d="M39.9 22.7l-1.8-5.3c-.6-1.6-2.3-2.5-3.9-2-2.7.8-5.2 2-7.5 3.6-4.8 3.4-8.4 8.3-9.9 14-.5 1.7.5 3.4 2.1 3.9l5.3 1.7c.3.1.6.1 1 .1.5 0 1.1-.1 1.5-.4.8-.4 1.3-1.1 1.5-2 .8-3.1 2.7-5.8 5.3-7.6 1.3-.9 2.7-1.6 4.3-2 .9-.2 1.6-.8 2-1.6.4-.6.4-1.5.1-2.4z" fill="#FFF"/><path d="M35.3 55.1c-.2-.9-.7-1.7-1.5-2.2-1.7-1-3.1-2.3-4.2-3.9-2.3-3.3-3-7.5-2-11.4.4-1.6-.5-3.3-2.1-3.9L20.1 32c-.8-.3-1.7-.2-2.5.2s-1.3 1.1-1.5 1.9c-2.1 7.4-.8 15.3 3.7 21.6 1.9 2.7 4.2 5 7 6.8.5.3 1.1.5 1.7.5.9 0 1.8-.4 2.4-1.1l3.7-4.3c.5-.6.8-1.6.7-2.5zM63.6 25.1c-6.3-9-17.5-12.9-28-9.9-.8.2-1.5.8-1.9 1.6-.4.8-.5 1.7-.2 2.5l1.8 5.3c.5 1.6 2.2 2.4 3.8 2 5.5-1.5 11.4.7 14.7 5.4 3 4.2 3.3 9.7.8 14.3-.8 1.5-.3 3.3 1.1 4.2l4.7 2.9c.5.3 1.1.5 1.7.5.3 0 .5 0 .8-.1.8-.2 1.6-.8 2-1.5 4.8-8.6 4.2-19.2-1.3-27.2z" fill="#E8523F"/><path d="M63 49.9L58.3 47c-.7-.5-1.6-.6-2.5-.4-.8.2-1.6.8-2 1.6-1 1.9-2.4 3.5-4.2 4.7-4.4 3-10.1 3.3-14.7.6-1.3-.8-3-.5-4 .7l-3.7 4.3c-.6.7-.9 1.6-.7 2.5.1.9.6 1.7 1.4 2.2 4.3 2.8 9.1 4.2 14 4.2 5.1 0 10.2-1.5 14.6-4.6 3.2-2.2 5.8-5.1 7.7-8.5.8-1.6.3-3.5-1.2-4.4z" fill="#FFF"/></g></svg>