<svg width="128" height="52" viewBox="0 0 128 52" xmlns="http://www.w3.org/2000/svg"><title>gn_logo</title><g fill-rule="nonzero" fill="none"><path d="M63.2 29.3c-1.2.3-2.8.5-3.9.5-4.5 0-7.8-2.9-7.8-6.9 0-3.9 3.2-6.8 7.7-6.8 1 0 2.3.1 3 .3.7.2 1 .3 2 .8l-1 1.8c-.4-.2-.7-.4-.9-.5-.9-.4-2.1-.6-3.1-.6-3.2 0-5.5 2.1-5.5 5 0 3 2.6 5.3 6 5.3.7 0 1.2-.1 2.5-.3v-4.2h2.1V29c-.5.1-.9.2-1.1.3zM77.7 29.5l-3.5-5.4h-1.9v5.4h-2.1V16.3h4.4c3.2 0 4.9 1.3 4.9 3.7 0 2-1.2 3.6-3.1 3.9l3.6 5.5h-2.3v.1zm-1.2-11.1c-.4-.3-.6-.4-2.1-.4h-2.1v4.3h2.1c1.3 0 1.6-.1 2.2-.6.5-.4.7-1 .7-1.7 0-.6-.3-1.2-.8-1.6zM93.3 28.9c-1 .6-2.5 1-3.7 1-1.3 0-2.8-.4-3.8-1-1.4-.8-1.9-2.1-1.9-4.8v-7.8H86v8.1c0 2.4 1.2 3.6 3.6 3.6 2.4 0 3.6-1.2 3.6-3.6v-8.1h2.1v7.8c-.1 2.6-.6 4-2 4.8zM106.1 24.5c-1 0-2.3-.1-2.8-.3v5.2h-2.1V16.3h4.6c3.1 0 4.8 1.4 4.8 4 0 2.5-1.8 4.2-4.5 4.2zm-.5-6.4h-2.3v4.5c.3.1 1.3.3 2.5.3 1.6 0 2.7-1 2.7-2.5 0-1.7-.8-2.3-2.9-2.3zM120.6 29.7c-4.2 0-7.3-2.9-7.3-6.8s3.1-6.8 7.3-6.8c4.2 0 7.3 2.9 7.3 6.8 0 4-3.1 6.8-7.3 6.8zm0-11.8c-2.9 0-5.1 2.2-5.1 5.1 0 2.9 2.2 5.1 5.1 5.1 2.9 0 5.1-2.2 5.1-5.1-.1-3-2.2-5.1-5.1-5.1z" fill="#231F20"/><path d="M63.1 51l-7.4-9.5c-.4-.6-.6-.8-.7-1.2v10.5h-2V37.7h2.1l7.4 9.4c.2.3.4.8.5 1.2V37.7h2V51h-1.9zM77.1 51.1c-4.2 0-7.3-2.9-7.3-6.8s3.1-6.8 7.3-6.8c4.2 0 7.3 2.9 7.3 6.8s-3.1 6.8-7.3 6.8zm0-11.9c-2.9 0-5.1 2.2-5.1 5.1 0 2.9 2.2 5.1 5.1 5.1 2.9 0 5.1-2.2 5.1-5.1 0-3-2.2-5.1-5.1-5.1zM93.2 51.1h-1.1l-5.7-13.5h2.3l4 9.5c.1.2.1.4.1.6 0-.2.1-.4.2-.6l3.7-9.5H99l-5.8 13.5zM111.8 50.2c-1 .6-2.5 1-3.7 1-1.3 0-2.8-.4-3.8-1-1.4-.8-1.9-2.1-1.9-4.8v-7.8h2.1v8.1c0 2.4 1.2 3.6 3.6 3.6 2.4 0 3.6-1.2 3.6-3.6v-8.1h2.1v7.8c-.1 2.7-.6 4-2 4.8zM126.8 40.3c-.7-.5-1-.6-1.7-.8-.7-.2-1.3-.3-1.8-.3-1.7 0-2.7.6-2.7 1.6 0 .3.1.5.2.7.4.6.8.8 3.4 2.1 2.5 1.2 3.3 2.1 3.3 3.7 0 2.3-1.8 3.7-4.8 3.7-1 0-1.9-.1-2.7-.4-.6-.2-.9-.4-1.9-1l.9-1.8c.8.6 1.2.8 1.7 1 .7.3 1.4.4 2.2.4 1.5 0 2.5-.7 2.5-1.8 0-.9-.4-1.5-1.5-2l-2.4-1.2c-2-1-2.9-2.1-2.9-3.5 0-2.2 1.9-3.6 4.8-3.6.9 0 1.7.1 2.5.3.6.2.9.3 1.8.8l-.9 2.1z" fill="#EB2127"/><g><path d="M26.7 49.7c-2.6.6-6.3 1.1-8.8 1.1C7.6 50.8 0 44.1 0 35.1c0-8.8 7.4-15.4 17.4-15.4 2.4 0 5.2.3 6.9.7 1.5.4 2.4.8 4.4 1.8l-2 3.9c-.9-.6-1.6-.9-2.1-1.1-1.9-.8-4.8-1.4-7.1-1.4C10.3 23.6 5 28.4 5 34.9c0 6.8 5.9 12 13.6 12 1.5 0 2.8-.1 5.8-.6v-9.5h4.8V49c-1.1.3-2 .5-2.5.7z" fill="#231F20"/><path d="M37.8 30.3L20.9 8.7c-1-1.3-1.4-1.9-1.6-2.7v23.9h-4.4V0h4.8l16.9 21.3c.5.7 1 1.8 1.2 2.7V0h4.3v30.3h-4.3z" fill="#EB2127"/></g></g></svg>