<svg xmlns="http://www.w3.org/2000/svg" width="59" height="63" viewBox="0 0 59 63"><defs><style>.cls-1{fill:#2c3948;fill-rule:evenodd}</style></defs><path id="hd_phone.svg" class="cls-1" d="M1032.96 1154.96v-2.42a22.132 22.132 0 0 0-5.75-15.18 19.767 19.767 0 0 0-14.7-6.35h-1.99a19.793 19.793 0 0 0-14.708 6.35 22.161 22.161 0 0 0-5.746 15.18v2.42a8.67 8.67 0 0 0-8.065 8.65v3.79a8.663 8.663 0 0 0 8.632 8.67h4.867a1.594 1.594 0 0 0 1.582-1.59v-17.96a1.594 1.594 0 0 0-1.582-1.59h-2.266v-2.39c0-10.47 7.431-18.36 17.271-18.36h1.99c9.86 0 17.28 7.89 17.28 18.36v2.39h-2.27a1.592 1.592 0 0 0-1.58 1.59v17.95a1.583 1.583 0 0 0 1.58 1.58h2.22c-.65 8.29-6.33 10.21-8.96 10.64a5.577 5.577 0 0 0-5.29-3.85h-3.95a5.58 5.58 0 0 0 0 11.16h3.97a5.579 5.579 0 0 0 5.35-4.1 15.031 15.031 0 0 0 5.36-1.84c2.86-1.68 6.25-5.11 6.69-12.02a8.668 8.668 0 0 0 8.11-8.65v-3.79a8.634 8.634 0 0 0-8.045-8.64zm-39.02 17.92h-3.281a5.482 5.482 0 0 1-5.468-5.49v-3.79a5.482 5.482 0 0 1 5.468-5.49h3.281v14.77zm21.55 17.94h-3.97a2.4 2.4 0 0 1 0-4.79h3.97a2.4 2.4 0 0 1 0 4.79zm22.36-23.43a5.482 5.482 0 0 1-5.47 5.49h-3.28v-14.77h3.28a5.482 5.482 0 0 1 5.47 5.49v3.79z" transform="translate(-982 -1131)"/></svg>