<svg id="Layer_1" xmlns="http://www.w3.org/2000/svg" viewBox="0 0 426.4 242.8"><style>.st0{opacity:.77}.st1,.st2{fill:#f3941f}.st2{opacity:.77}.st3{fill:#fff}</style><path class="st0 st1" d="M426.4 150.2h-53.5l-13.3 23.1-13.4 23.2 13.4 23.2 13.3 23.1h53.5z"/><path class="st2" d="M107 96.4L93.7 73.2 80.3 50.1H26.8L0 96.4l26.8 46.3h53.5l13.4-23.1zM253.7 142.7l13.3-23.1 13.4-23.2L267 73.2l-13.3-23.1h-53.6l-13.3 23.1-13.4 23.2 13.4 23.2 13.3 23.1z"/><path class="st0 st1" d="M253.7 42.6l6.1-10.6 18.5-32H175.5L194 32l6.1 10.6z"/><path class="st2" d="M280.4 196.5L267 173.3l-13.3-23.1h-53.6l-13.3 23.1-13.4 23.2 13.4 23.2 13.3 23.1h53.6l13.3-23.1z"/><path class="st0 st1" d="M113.5 200.2l-13.4 23.2-11.3 19.4h102.8l-11.3-19.4-13.3-23.2zM193.7 146.4l-13.4-23.1-13.3-23.2h-53.5l-13.4 23.2-13.4 23.1 13.4 23.2 13.4 23.2H167l13.3-23.2zM286.8 200.2l-13.3 23.2-11.3 19.4H365l-11.3-19.4-13.3-23.2z"/><path class="st2" d="M273.5 169.6l13.3 23.2h53.6l13.3-23.2 13.4-23.2-13.4-23.1-13.3-23.2h-53.6l-13.3 23.2-13.4 23.1zM260.1 46.3l13.4 23.2 13.3 23.2h53.6l13.3-23.2 13.4-23.2-13.4-23.1L340.4 0h-53.6l-13.3 23.2z"/><path class="st3" d="M8.3 97.7c0-1.2 0-1.6.2-2.1.4-1.3 1.4-1.9 2.8-1.9 1.3 0 2.3.6 2.7 1.7 0 .1 0 .1-.1.1l-1.3.6c-.1 0-.1 0-.2-.1-.2-.5-.6-.9-1.2-.9s-1 .3-1.2.9v1.7c0 1.1 0 1.4.1 1.7.2.5.6.9 1.2.9.7 0 1-.4 1.2-.9 0-.1.1-.1.2-.1l1.3.6c.1 0 .1.1.1.1-.4 1.1-1.4 1.7-2.7 1.7-1.4 0-2.4-.6-2.8-1.9-.3-.5-.3-.9-.3-2.1zM15.1 99.9c-.2-.5-.2-1-.2-2.1s0-1.6.2-2.1c.4-1.3 1.5-1.9 2.9-1.9s2.5.6 2.9 1.9c.2.5.2 1 .2 2.1s0 1.6-.2 2.1c-.4 1.3-1.5 1.9-2.9 1.9s-2.5-.7-2.9-1.9zm4.1-.5c.1-.3.1-.7.1-1.7s0-1.4-.1-1.7c-.2-.5-.6-.9-1.2-.9s-1.1.3-1.2.9c-.1.3-.1.7-.1 1.7s0 1.4.1 1.7c.2.5.6.9 1.2.9s1-.3 1.2-.9zM22.3 93.9c0-.1 0-.1.1-.1h1.4c.1 0 .1 0 .2.1l2 4.5 1.9-4.5c0-.1.1-.1.2-.1h1.3c.1 0 .1 0 .1.1v7.6c0 .1 0 .1-.1.1h-1.3c-.1 0-.1 0-.1-.1v-4.4l-1.4 3.3c0 .1-.1.1-.2.1h-.8c-.1 0-.2 0-.2-.1L24 97.1v4.4c0 .1 0 .1-.1.1h-1.3c-.1 0-.1 0-.1-.1v-7.6zM31.1 93.9c0-.1 0-.1.1-.1h1.4c.1 0 .1 0 .2.1l2 4.5 1.9-4.5c0-.1.1-.1.2-.1h1.3c.1 0 .1 0 .1.1v7.6c0 .1 0 .1-.1.1H37c-.1 0-.1 0-.1-.1v-4.4l-1.4 3.3c0 .1-.1.1-.2.1h-.8c-.1 0-.2 0-.2-.1l-1.4-3.3v4.4c0 .1 0 .1-.1.1h-1.3c-.1 0-.1 0-.1-.1v-7.6zM39.8 98.8V94c0-.1 0-.1.1-.1h1.5c.1 0 .1 0 .1.1v4.9c0 .9.5 1.5 1.3 1.5s1.3-.5 1.3-1.5V94c0-.1 0-.1.1-.1h1.5c.1 0 .1 0 .1.1v4.8c0 1.9-1.2 3-3 3-1.7 0-3-1.1-3-3zM47.3 93.9c0-.1 0-.1.1-.1h1.4c.1 0 .2 0 .2.1l2.8 4.9h.1v-4.9c0-.1 0-.1.1-.1h1.3c.1 0 .1 0 .1.1v7.6c0 .1 0 .1-.1.1h-1.4c-.1 0-.1 0-.2-.1l-2.8-4.9h-.1v4.9c0 .1 0 .1-.1.1h-1.3c-.1 0-.1 0-.1-.1v-7.6zM54.8 93.9c0-.1 0-.1.1-.1h1.5c.1 0 .1 0 .1.1v7.6c0 .1 0 .1-.1.1h-1.5c-.1 0-.1 0-.1-.1v-7.6zM57.8 97.7c0-1.2 0-1.6.2-2.1.4-1.3 1.4-1.9 2.8-1.9 1.3 0 2.3.6 2.7 1.7 0 .1 0 .1-.1.1l-1.3.6c-.1 0-.1 0-.2-.1-.2-.5-.6-.9-1.2-.9s-1 .3-1.2.9c-.1.3-.1.6-.1 1.7s0 1.4.1 1.7c.2.5.6.9 1.2.9.7 0 1-.4 1.2-.9 0-.1.1-.1.2-.1l1.3.6c.1 0 .1.1.1.1-.4 1.1-1.4 1.7-2.7 1.7-1.4 0-2.4-.6-2.8-1.9-.2-.5-.2-.9-.2-2.1zM66.7 93.9c0-.1.1-.1.1-.1h1.4c.1 0 .1 0 .2.1l2.6 7.6c0 .1 0 .1-.1.1h-1.5c-.1 0-.1 0-.1-.1l-.4-1.4h-2.7l-.4 1.4c0 .1-.1.1-.1.1h-1.5c-.1 0-.1 0-.1-.1l2.6-7.6zm1.8 4.8l-.9-2.7-.9 2.7h1.8zM73 101.6c-.1 0-.1 0-.1-.1v-6.1s0-.1-.1-.1h-2c-.1 0-.1 0-.1-.1v-1.3c0-.1 0-.1.1-.1h5.8c.1 0 .1 0 .1.1v1.3c0 .1 0 .1-.1.1h-2s-.1 0-.1.1v6.1c0 .1 0 .1-.1.1H73zM77.7 93.9c0-.1 0-.1.1-.1h1.5c.1 0 .1 0 .1.1v7.6c0 .1 0 .1-.1.1h-1.5c-.1 0-.1 0-.1-.1v-7.6zM80.9 99.9c-.2-.5-.2-1-.2-2.1s0-1.6.2-2.1c.4-1.3 1.5-1.9 2.9-1.9s2.5.6 2.9 1.9c.2.5.2 1 .2 2.1s0 1.6-.2 2.1c-.4 1.3-1.5 1.9-2.9 1.9s-2.5-.7-2.9-1.9zm4.1-.5c.1-.3.1-.7.1-1.7s0-1.4-.1-1.7c-.2-.5-.6-.9-1.2-.9s-1.1.3-1.2.9c-.1.3-.1.7-.1 1.7s0 1.4.1 1.7c.2.5.6.9 1.2.9s1-.3 1.2-.9zM88.1 93.9c0-.1 0-.1.1-.1h1.4c.1 0 .1 0 .2.1l2.8 4.9h.1v-4.9c0-.1 0-.1.1-.1H94c.1 0 .1 0 .1.1v7.6c0 .1 0 .1-.1.1h-1.4c-.1 0-.1 0-.2-.1l-2.8-4.9h-.1v4.9c0 .1 0 .1-.1.1h-1.3c-.1 0-.1 0-.1-.1v-7.6zM95.3 100.7s-.1-.1 0-.2l.9-1c0-.1.1-.1.2 0 .5.4 1.2.8 2 .8s1.3-.4 1.3-.9-.3-.7-1.2-.9l-.5-.1c-1.6-.2-2.5-1-2.5-2.3 0-1.4 1.1-2.4 2.8-2.4 1 0 2 .3 2.7.8.1 0 .1.1 0 .2l-.7 1c0 .1-.1.1-.2 0-.6-.4-1.2-.6-1.8-.6-.7 0-1 .4-1 .9 0 .4.3.7 1.2.9l.4.1c1.6.2 2.5 1 2.5 2.4s-1 2.5-3.1 2.5c-1.3-.1-2.4-.6-3-1.2z"/><g><path class="st3" d="M286.5 42c0-.1 0-.1.1-.1h5c.1 0 .1 0 .1.1v1.2c0 .1 0 .1-.1.1h-3.4s-.1 0-.1.1V45s0 .1.1.1h2.8c.1 0 .1 0 .1.1v1.2c0 .1 0 .1-.1.1h-2.8s-.1 0-.1.1v2.9c0 .1 0 .1-.1.1h-1.5c-.1 0-.1 0-.1-.1V42zM293 42c0-.1 0-.1.1-.1h1.5c.1 0 .1 0 .1.1v7.6c0 .1 0 .1-.1.1h-1.5c-.1 0-.1 0-.1-.1V42zM296.1 42c0-.1 0-.1.1-.1h1.4c.1 0 .2 0 .2.1l2.8 4.9h.1V42c0-.1 0-.1.1-.1h1.3c.1 0 .1 0 .1.1v7.6c0 .1 0 .1-.1.1h-1.4c-.1 0-.1 0-.2-.1l-2.8-4.9h-.1v4.9c0 .1 0 .1-.1.1h-1.3c-.1 0-.1 0-.1-.1V42zM305.8 42c0-.1.1-.1.1-.1h1.4c.1 0 .1 0 .2.1l2.6 7.6c0 .1 0 .1-.1.1h-1.5c-.1 0-.1 0-.1-.1l-.4-1.4h-2.7l-.4 1.4c0 .1-.1.1-.1.1h-1.5c-.1 0-.1 0-.1-.1l2.6-7.6zm1.7 4.8l-.9-2.7-.9 2.7h1.8zM311.1 42c0-.1 0-.1.1-.1h1.4c.1 0 .1 0 .2.1l2.8 4.9h.1V42c0-.1 0-.1.1-.1h1.3c.1 0 .1 0 .1.1v7.6c0 .1 0 .1-.1.1h-1.4c-.1 0-.1 0-.2-.1l-2.8-4.9h-.1v4.9c0 .1 0 .1-.1.1h-1.3c-.1 0-.1 0-.1-.1V42zM318.4 45.8c0-1.2 0-1.6.2-2.1.4-1.3 1.4-1.9 2.8-1.9 1.3 0 2.3.6 2.7 1.7 0 .1 0 .1-.1.1l-1.3.6c-.1 0-.1 0-.2-.1-.2-.5-.6-.9-1.2-.9s-1 .3-1.2.9c-.1.3-.1.6-.1 1.7s0 1.4.1 1.7c.2.5.6.9 1.2.9.7 0 1-.4 1.2-.9 0-.1.1-.1.2-.1l1.3.6c.1 0 .1.1.1.1-.4 1.1-1.4 1.7-2.7 1.7-1.4 0-2.4-.6-2.8-1.9-.2-.5-.2-.9-.2-2.1zM325.2 42c0-.1 0-.1.1-.1h1.5c.1 0 .1 0 .1.1v7.6c0 .1 0 .1-.1.1h-1.5c-.1 0-.1 0-.1-.1V42zM330.5 42c0-.1.1-.1.1-.1h1.4c.1 0 .1 0 .1.1l2.6 7.6c0 .1 0 .1-.1.1h-1.5c-.1 0-.1 0-.1-.1l-.4-1.4H330l-.4 1.4c0 .1-.1.1-.1.1H328c-.1 0-.1 0-.1-.1l2.6-7.6zm1.8 4.8l-.9-2.7-.9 2.7h1.8zM335.8 42c0-.1 0-.1.1-.1h1.5c.1 0 .1 0 .1.1v6.1s0 .1.1.1h3.5c.1 0 .1 0 .1.1v1.3c0 .1 0 .1-.1.1H336c-.1 0-.1 0-.1-.1V42z"/></g><g><path class="st3" d="M190.5 101.6c-.1 0-.1 0-.2-.1l-1.3-2.9h-1s-.1 0-.1.1v2.8c0 .1 0 .1-.1.1h-1.5c-.1 0-.1 0-.1-.1v-7.6c0-.1 0-.1.1-.1h3.1c1.6 0 2.7 1 2.7 2.4 0 1-.5 1.8-1.4 2.2l1.5 3.1c0 .1 0 .1-.1.1h-1.6zm-.1-5.3c0-.6-.4-1-1.1-1h-1.4s-.1 0-.1.1v1.8s0 .1.1.1h1.4c.6-.1 1.1-.5 1.1-1zM193.3 93.9c0-.1 0-.1.1-.1h5c.1 0 .1 0 .1.1v1.2c0 .1 0 .1-.1.1H195s-.1 0-.1.1v1.6s0 .1.1.1h2.8c.1 0 .1 0 .1.1v1.2c0 .1 0 .1-.1.1H195s-.1 0-.1.1v1.6s0 .1.1.1h3.4c.1 0 .1 0 .1.1v1.2c0 .1 0 .1-.1.1h-5c-.1 0-.1 0-.1-.1v-7.6zM201.6 101.6c-.1 0-.1 0-.1-.1v-6.1s0-.1-.1-.1h-2c-.1 0-.1 0-.1-.1v-1.3c0-.1 0-.1.1-.1h5.8c.1 0 .1 0 .1.1v1.3c0 .1 0 .1-.1.1h-2s-.1 0-.1.1v6.1c0 .1 0 .1-.1.1h-1.4zM207.6 93.9c0-.1.1-.1.1-.1h1.4c.1 0 .1 0 .2.1l2.6 7.6c0 .1 0 .1-.1.1h-1.5c-.1 0-.1 0-.1-.1l-.4-1.4h-2.7l-.4 1.4c0 .1-.1.1-.1.1H205c-.1 0-.1 0-.1-.1l2.7-7.6zm1.8 4.8l-.9-2.7-.9 2.7h1.8zM212.9 93.9c0-.1 0-.1.1-.1h1.5c.1 0 .1 0 .1.1v7.6c0 .1 0 .1-.1.1H213c-.1 0-.1 0-.1-.1v-7.6zM216.1 93.9c0-.1 0-.1.1-.1h1.5c.1 0 .1 0 .1.1v6.1s0 .1.1.1h3.5c.1 0 .1 0 .1.1v1.3c0 .1 0 .1-.1.1h-5.1c-.1 0-.1 0-.1-.1v-7.6zM226.5 97.3c-.6-.7-.8-1.2-.8-1.7 0-1.1.9-1.9 2.1-1.9 1.2 0 2 .8 2 1.8 0 .7-.3 1.2-1.3 2l1 1.3.8-.9c0-.1.1-.1.2 0l.8.7c.1 0 .1.1 0 .2l-.9 1.1.2.3c.1.2.3.2.4.2h.2c.1 0 .1 0 .1.1v1.1c0 .1 0 .1-.1.1h-.5c-.6 0-.8-.1-1.2-.6l-.1-.1c-.7.6-1.2.9-2 .9-1.4 0-2.3-.9-2.3-2.1-.1-1 .3-1.7 1.4-2.5zm.9 3.1c.4 0 .7-.1 1.1-.6l-1.2-1.5c-.6.5-.8.8-.8 1.2 0 .6.3.9.9.9zm.9-4.9c0-.4-.3-.6-.6-.6-.4 0-.6.3-.6.6 0 .2.1.4.5.9.6-.4.7-.6.7-.9zM234.9 100.7s-.1-.1 0-.2l.9-1c0-.1.1-.1.2 0 .5.4 1.2.8 2 .8s1.3-.4 1.3-.9-.3-.7-1.2-.9l-.4-.1c-1.6-.2-2.5-1-2.5-2.3 0-1.4 1.1-2.4 2.8-2.4 1 0 2 .3 2.7.8.1 0 .1.1 0 .2l-.7 1c0 .1-.1.1-.2 0-.6-.4-1.2-.6-1.8-.6-.7 0-1 .4-1 .9 0 .4.3.7 1.2.9l.4.1c1.6.2 2.5 1 2.5 2.4s-1 2.5-3.1 2.5c-1.3-.1-2.5-.6-3.1-1.2zM244.2 93.9c0-.1.1-.1.1-.1h1.4c.1 0 .1 0 .2.1l2.6 7.6c0 .1 0 .1-.1.1H247c-.1 0-.1 0-.1-.1l-.4-1.4h-2.7l-.4 1.4c0 .1-.1.1-.1.1h-1.5c-.1 0-.1 0-.1-.1l2.5-7.6zm1.7 4.8L245 96l-.9 2.7h1.8zM249.5 93.9c0-.1 0-.1.1-.1h1.5c.1 0 .1 0 .1.1v6.1s0 .1.1.1h3.5c.1 0 .1 0 .1.1v1.3c0 .1 0 .1-.1.1h-5.1c-.1 0-.1 0-.1-.1v-7.6zM255.8 93.9c0-.1 0-.1.1-.1h5c.1 0 .1 0 .1.1v1.2c0 .1 0 .1-.1.1h-3.4s-.1 0-.1.1v1.6s0 .1.1.1h2.8c.1 0 .1 0 .1.1v1.2c0 .1 0 .1-.1.1h-2.8s-.1 0-.1.1v1.6s0 .1.1.1h3.4c.1 0 .1 0 .1.1v1.2c0 .1 0 .1-.1.1h-5c-.1 0-.1 0-.1-.1v-7.6zM261.9 100.7s-.1-.1 0-.2l.9-1c0-.1.1-.1.2 0 .5.4 1.2.8 2 .8s1.3-.4 1.3-.9-.3-.7-1.2-.9l-.4-.1c-1.6-.2-2.5-1-2.5-2.3 0-1.4 1.1-2.4 2.8-2.4 1 0 2 .3 2.7.8.1 0 .1.1 0 .2l-.7 1c0 .1-.1.1-.2 0-.6-.4-1.2-.6-1.8-.6-.7 0-1 .4-1 .9 0 .4.3.7 1.2.9l.4.1c1.6.2 2.5 1 2.5 2.4s-1 2.5-3.1 2.5c-1.3-.1-2.5-.6-3.1-1.2z"/></g><g><path class="st3" d="M198.6 190.1c0-.1 0-.1.1-.1h1.5c.1 0 .1 0 .1.1v6.1s0 .1.1.1h3.5c.1 0 .1 0 .1.1v1.3c0 .1 0 .1-.1.1h-5.1c-.1 0-.1 0-.1-.1v-7.6zM207 190.1c0-.1.1-.1.1-.1h1.4c.1 0 .1 0 .2.1l2.6 7.6c0 .1 0 .1-.1.1h-1.5c-.1 0-.1 0-.1-.1l-.4-1.4h-2.7l-.4 1.4c0 .1-.1.1-.1.1h-1.5c-.1 0-.1 0-.1-.1l2.6-7.6zm1.8 4.7l-.9-2.7-.9 2.7h1.8zM217.7 197.8c-.1 0-.1 0-.1-.1l-1.4-4.9-1.4 4.9c0 .1-.1.1-.2.1h-1.2c-.1 0-.1 0-.1-.1l-2-7.6c0-.1 0-.1.1-.1h1.5c.1 0 .1 0 .1.1l1.1 4.9 1.3-4.9c0-.1.1-.1.1-.1h1c.1 0 .1 0 .1.1l1.4 4.9 1.1-4.9c0-.1.1-.1.1-.1h1.5c.1 0 .1 0 .1.1l-2 7.6c0 .1-.1.1-.1.1h-1zM224.3 190.1c0-.1 0-.1.1-.1h5c.1 0 .1 0 .1.1v1.2c0 .1 0 .1-.1.1H226s-.1 0-.1.1v1.6s0 .1.1.1h2.8c.1 0 .1 0 .1.1v1.2c0 .1 0 .1-.1.1H226s-.1 0-.1.1v2.9c0 .1 0 .1-.1.1h-1.5c-.1 0-.1 0-.1-.1v-7.5zM230.7 190.1c0-.1 0-.1.1-.1h1.5c.1 0 .1 0 .1.1v7.6c0 .1 0 .1-.1.1h-1.5c-.1 0-.1 0-.1-.1v-7.6zM238.3 197.8c-.1 0-.1 0-.2-.1l-1.3-2.9h-1s-.1 0-.1.1v2.8c0 .1 0 .1-.1.1H234c-.1 0-.1 0-.1-.1v-7.6c0-.1 0-.1.1-.1h3.1c1.6 0 2.7 1 2.7 2.4 0 1-.5 1.8-1.4 2.2l1.5 3.1c0 .1 0 .1-.1.1h-1.5zm-.2-5.4c0-.6-.4-1-1.1-1h-1.4s-.1 0-.1.1v1.8s0 .1.1.1h1.4c.7-.1 1.1-.4 1.1-1zM241.1 190.1c0-.1 0-.1.1-.1h1.4c.1 0 .1 0 .2.1l2 4.5 1.9-4.5c0-.1.1-.1.2-.1h1.3c.1 0 .1 0 .1.1v7.6c0 .1 0 .1-.1.1H247c-.1 0-.1 0-.1-.1v-4.4l-1.4 3.3c0 .1-.1.1-.2.1h-.8c-.1 0-.2 0-.2-.1l-1.4-3.3v4.4c0 .1 0 .1-.1.1h-1.3c-.1 0-.1 0-.1-.1v-7.6zM249.5 196.8s-.1-.1 0-.2l.9-1c0-.1.1-.1.2 0 .5.4 1.2.8 2 .8s1.3-.4 1.3-.9-.3-.7-1.2-.9l-.4-.1c-1.6-.2-2.5-1-2.5-2.3 0-1.4 1.1-2.4 2.8-2.4 1 0 2 .3 2.7.8.1 0 .1.1 0 .2l-.7 1c0 .1-.1.1-.2 0-.6-.4-1.2-.6-1.8-.6-.7 0-1 .4-1 .9 0 .4.3.7 1.2.9l.4.1c1.6.2 2.5 1 2.5 2.4s-1 2.5-3.1 2.5c-1.3-.1-2.5-.6-3.1-1.2z"/></g><g><path class="st3" d="M294.2 136.4c0-.1 0-.1.1-.1h2.9c1.4 0 2.3.6 2.7 1.8.1.4.2.9.2 2.2 0 1.3-.1 1.7-.2 2.2-.4 1.2-1.3 1.8-2.7 1.8h-2.9c-.1 0-.1 0-.1-.1v-7.8zm1.8 6.2h.9c.8 0 1.3-.2 1.5-.9.1-.2.1-.5.1-1.5s0-1.3-.1-1.5c-.2-.6-.7-.9-1.5-.9h-.9s-.1 0-.1.1l.1 4.7c-.1 0-.1 0 0 0zM301.5 136.4c0-.1 0-.1.1-.1h1.5c.1 0 .1 0 .1.1v7.6c0 .1 0 .1-.1.1h-1.5c-.1 0-.1 0-.1-.1v-7.6zM304.4 140.2c0-1.2 0-1.6.2-2.1.4-1.3 1.5-1.9 2.9-1.9 1.5 0 2.4.7 2.8 1.7v.2l-1.2.5c-.1 0-.1 0-.2-.1-.3-.5-.7-.8-1.3-.8-.7 0-1.1.3-1.3.9-.1.3-.1.6-.1 1.7 0 1 0 1.4.1 1.7.2.5.6.9 1.3.9.6 0 1.1-.3 1.3-.8.1-.2.1-.4.1-.8 0 0 0-.1-.1-.1h-1.1c-.1 0-.1 0-.1-.1V140c0-.1 0-.1.1-.1h2.7c.1 0 .1 0 .1.1v.6c0 .7-.1 1.3-.2 1.8-.4 1.3-1.5 2-2.9 2s-2.5-.6-2.9-1.9c-.1-.7-.2-1.1-.2-2.3zM311.9 136.4c0-.1 0-.1.1-.1h1.5c.1 0 .1 0 .1.1v7.6c0 .1 0 .1-.1.1H312c-.1 0-.1 0-.1-.1v-7.6zM316.8 144.1c-.1 0-.1 0-.1-.1v-6.1s0-.1-.1-.1h-2c-.1 0-.1 0-.1-.1v-1.3c0-.1 0-.1.1-.1h5.8c.1 0 .1 0 .1.1v1.3c0 .1 0 .1-.1.1h-2s-.1 0-.1.1v6.1c0 .1 0 .1-.1.1h-1.4zM322.8 136.4c0-.1.1-.1.1-.1h1.4c.1 0 .1 0 .1.1l2.6 7.6c0 .1 0 .1-.1.1h-1.5c-.1 0-.1 0-.1-.1l-.4-1.4h-2.7l-.4 1.4c0 .1-.1.1-.1.1h-1.5c-.1 0-.1 0-.1-.1l2.7-7.6zm1.8 4.8l-.9-2.7-.9 2.7h1.8zM328.1 136.4c0-.1 0-.1.1-.1h1.5c.1 0 .1 0 .1.1v6.1s0 .1.1.1h3.5c.1 0 .1 0 .1.1v1.3c0 .1 0 .1-.1.1h-5.1c-.1 0-.1 0-.1-.1v-7.6zM278.5 150.2c0-.1 0-.1.1-.1h5c.1 0 .1 0 .1.1v1.2c0 .1 0 .1-.1.1h-3.4s-.1 0-.1.1v1.6s0 .1.1.1h2.8c.1 0 .1 0 .1.1v1.2c0 .1 0 .1-.1.1h-2.8s-.1 0-.1.1v1.6s0 .1.1.1h3.4c.1 0 .1 0 .1.1v1.2c0 .1 0 .1-.1.1h-5c-.1 0-.1 0-.1-.1v-7.6zM285 150.2c0-.1 0-.1.1-.1h1.4c.1 0 .1 0 .2.1l2.8 4.9h.1v-4.9c0-.1 0-.1.1-.1h1.3c.1 0 .1 0 .1.1v7.6c0 .1 0 .1-.1.1h-1.4c-.1 0-.1 0-.2-.1l-2.8-4.9h-.1v4.9c0 .1 0 .1-.1.1h-1.3c-.1 0-.1 0-.1-.1v-7.6zM294.3 157.9c-.1 0-.1 0-.1-.1v-6.1s0-.1-.1-.1h-2c-.1 0-.1 0-.1-.1v-1.3c0-.1 0-.1.1-.1h5.8c.1 0 .1 0 .1.1v1.3c0 .1 0 .1-.1.1h-2s-.1 0-.1.1v6.1c0 .1 0 .1-.1.1h-1.4zM299 150.2c0-.1 0-.1.1-.1h5c.1 0 .1 0 .1.1v1.2c0 .1 0 .1-.1.1h-3.4s-.1 0-.1.1v1.6s0 .1.1.1h2.8c.1 0 .1 0 .1.1v1.2c0 .1 0 .1-.1.1h-2.8s-.1 0-.1.1v1.6s0 .1.1.1h3.4c.1 0 .1 0 .1.1v1.2c0 .1 0 .1-.1.1h-5c-.1 0-.1 0-.1-.1v-7.6zM309.8 157.9c-.1 0-.1 0-.2-.1l-1.3-2.9h-1s-.1 0-.1.1v2.8c0 .1 0 .1-.1.1h-1.5c-.1 0-.1 0-.1-.1v-7.6c0-.1 0-.1.1-.1h3.1c1.6 0 2.7 1 2.7 2.4 0 1-.5 1.8-1.4 2.2l1.5 3.1c0 .1 0 .1-.1.1h-1.6zm-.1-5.4c0-.6-.4-1-1.1-1h-1.4s-.1 0-.1.1v1.8s0 .1.1.1h1.4c.7 0 1.1-.4 1.1-1zM312.8 157.9c-.1 0-.1 0-.1-.1v-7.6c0-.1 0-.1.1-.1h3c1.7 0 2.7 1 2.7 2.5s-1 2.5-2.7 2.5h-1.4s-.1 0-.1.1v2.6c0 .1 0 .1-.1.1h-1.4zm4-5.3c0-.6-.4-1.1-1.1-1.1h-1.3s-.1 0-.1.1v2s0 .1.1.1h1.3c.7 0 1.1-.5 1.1-1.1zM323.9 157.9c-.1 0-.1 0-.2-.1l-1.3-2.9h-1s-.1 0-.1.1v2.8c0 .1 0 .1-.1.1h-1.5c-.1 0-.1 0-.1-.1v-7.6c0-.1 0-.1.1-.1h3.1c1.6 0 2.7 1 2.7 2.4 0 1-.5 1.8-1.4 2.2l1.5 3.1c0 .1 0 .1-.1.1h-1.6zm-.1-5.4c0-.6-.4-1-1.1-1h-1.4s-.1 0-.1.1v1.8s0 .1.1.1h1.4c.7 0 1.1-.4 1.1-1zM326.8 150.2c0-.1 0-.1.1-.1h1.5c.1 0 .1 0 .1.1v7.6c0 .1 0 .1-.1.1h-1.5c-.1 0-.1 0-.1-.1v-7.6zM329.6 157s-.1-.1 0-.2l.9-1c0-.1.1-.1.2 0 .5.4 1.2.8 2 .8s1.3-.4 1.3-.9-.3-.7-1.2-.9l-.4-.1c-1.6-.2-2.5-1-2.5-2.3 0-1.4 1.1-2.4 2.8-2.4 1 0 2 .3 2.7.8.1 0 .1.1 0 .2l-.7 1c0 .1-.1.1-.2 0-.6-.4-1.2-.6-1.8-.6-.7 0-1 .4-1 .9 0 .4.3.7 1.2.9l.4.1c1.6.2 2.5 1 2.5 2.4s-1 2.5-3.1 2.5c-1.3-.2-2.5-.6-3.1-1.2zM336.8 150.2c0-.1 0-.1.1-.1h5c.1 0 .1 0 .1.1v1.2c0 .1 0 .1-.1.1h-3.4s-.1 0-.1.1v1.6s0 .1.1.1h2.8c.1 0 .1 0 .1.1v1.2c0 .1 0 .1-.1.1h-2.8s-.1 0-.1.1v1.6s0 .1.1.1h3.4c.1 0 .1 0 .1.1v1.2c0 .1 0 .1-.1.1h-5c-.1 0-.1 0-.1-.1v-7.6zM342.9 157s-.1-.1 0-.2l.9-1c0-.1.1-.1.2 0 .5.4 1.2.8 2 .8s1.3-.4 1.3-.9-.3-.7-1.2-.9l-.4-.1c-1.6-.2-2.5-1-2.5-2.3 0-1.4 1.1-2.4 2.8-2.4 1 0 2 .3 2.7.8.1 0 .1.1 0 .2l-.7 1c0 .1-.1.1-.2 0-.6-.4-1.2-.6-1.8-.6-.7 0-1 .4-1 .9 0 .4.3.7 1.2.9l.4.1c1.6.2 2.5 1 2.5 2.4s-1 2.5-3.1 2.5c-1.3-.2-2.5-.6-3.1-1.2z"/></g><g><path class="st3" d="M105 140.2c0-1.2 0-1.6.2-2.1.4-1.3 1.5-1.9 2.9-1.9 1.5 0 2.4.7 2.8 1.7v.2l-1.2.5c-.1 0-.1 0-.2-.1-.3-.5-.7-.8-1.3-.8-.7 0-1.1.3-1.3.9-.1.3-.1.6-.1 1.7 0 1 0 1.4.1 1.7.2.5.6.9 1.3.9.6 0 1.1-.3 1.3-.8.1-.2.1-.4.1-.8 0 0 0-.1-.1-.1h-1.1c-.1 0-.1 0-.1-.1V140c0-.1 0-.1.1-.1h2.7c.1 0 .1 0 .1.1v.6c0 .7-.1 1.3-.2 1.8-.4 1.3-1.5 2-2.9 2s-2.5-.6-2.9-1.9c-.1-.7-.2-1.1-.2-2.3zM112.5 142.3c-.2-.5-.2-1-.2-2.1s0-1.6.2-2.1c.4-1.3 1.5-1.9 2.9-1.9s2.5.6 2.9 1.9c.2.5.2 1 .2 2.1s0 1.6-.2 2.1c-.4 1.3-1.5 1.9-2.9 1.9s-2.5-.6-2.9-1.9zm4.1-.4c.1-.3.1-.7.1-1.7s0-1.4-.1-1.7c-.2-.5-.6-.9-1.2-.9s-1.1.3-1.2.9c-.1.3-.1.7-.1 1.7s0 1.4.1 1.7c.2.5.6.9 1.2.9.6-.1 1-.4 1.2-.9zM121.6 144.1c-.1 0-.1 0-.2-.1l-2.5-7.6c0-.1 0-.1.1-.1h1.5c.1 0 .1 0 .1.1l1.6 5.1 1.5-5.1c0-.1.1-.1.1-.1h1.5c.1 0 .1 0 .1.1L123 144c0 .1-.1.1-.1.1h-1.3zM126.4 136.4c0-.1 0-.1.1-.1h5c.1 0 .1 0 .1.1v1.2c0 .1 0 .1-.1.1h-3.4s-.1 0-.1.1v1.6s0 .1.1.1h2.8c.1 0 .1 0 .1.1v1.2c0 .1 0 .1-.1.1h-2.8s-.1 0-.1.1v1.6s0 .1.1.1h3.4c.1 0 .1 0 .1.1v1.2c0 .1 0 .1-.1.1h-5c-.1 0-.1 0-.1-.1v-7.6zM137.2 144.1c-.1 0-.1 0-.2-.1l-1.3-2.9h-1s-.1 0-.1.1v2.8c0 .1 0 .1-.1.1H133c-.1 0-.1 0-.1-.1v-7.6c0-.1 0-.1.1-.1h3.1c1.6 0 2.7 1 2.7 2.4 0 1-.5 1.8-1.4 2.2l1.5 3.1c0 .1 0 .1-.1.1h-1.6zm-.1-5.4c0-.6-.4-1-1.1-1h-1.4s-.1 0-.1.1v1.8s0 .1.1.1h1.4c.7 0 1.1-.4 1.1-1zM140.1 136.4c0-.1 0-.1.1-.1h1.4c.1 0 .1 0 .2.1l2.8 4.9h.1v-4.9c0-.1 0-.1.1-.1h1.3c.1 0 .1 0 .1.1v7.6c0 .1 0 .1-.1.1h-1.4c-.1 0-.1 0-.2-.1l-2.8-4.9h-.1v4.9c0 .1 0 .1-.1.1h-1.3c-.1 0-.1 0-.1-.1v-7.6zM147.6 136.4c0-.1 0-.1.1-.1h1.4c.1 0 .1 0 .2.1l2 4.5 1.9-4.5c0-.1.1-.1.2-.1h1.3c.1 0 .1 0 .1.1v7.6c0 .1 0 .1-.1.1h-1.3c-.1 0-.1 0-.1-.1v-4.4l-1.4 3.3c0 .1-.1.1-.2.1h-.8c-.1 0-.2 0-.2-.1l-1.4-3.3v4.4c0 .1 0 .1-.1.1h-1.3c-.1 0-.1 0-.1-.1v-7.6zM156.4 136.4c0-.1 0-.1.1-.1h5c.1 0 .1 0 .1.1v1.2c0 .1 0 .1-.1.1h-3.4s-.1 0-.1.1v1.6s0 .1.1.1h2.8c.1 0 .1 0 .1.1v1.2c0 .1 0 .1-.1.1h-2.8s-.1 0-.1.1v1.6s0 .1.1.1h3.4c.1 0 .1 0 .1.1v1.2c0 .1 0 .1-.1.1h-5c-.1 0-.1 0-.1-.1v-7.6zM162.9 136.4c0-.1 0-.1.1-.1h1.4c.1 0 .1 0 .2.1l2.8 4.9h.1v-4.9c0-.1 0-.1.1-.1h1.3c.1 0 .1 0 .1.1v7.6c0 .1 0 .1-.1.1h-1.4c-.1 0-.1 0-.2-.1l-2.8-4.9h-.1v4.9c0 .1 0 .1-.1.1H163c-.1 0-.1 0-.1-.1v-7.6zM172.1 144.1c-.1 0-.1 0-.1-.1v-6.1s0-.1-.1-.1h-2c-.1 0-.1 0-.1-.1v-1.3c0-.1 0-.1.1-.1h5.8c.1 0 .1 0 .1.1v1.3c0 .1 0 .1-.1.1h-2s-.1 0-.1.1v6.1c0 .1 0 .1-.1.1h-1.4zM115.4 157s-.1-.1 0-.2l.9-1c0-.1.1-.1.2 0 .5.4 1.2.8 2 .8s1.3-.4 1.3-.9-.3-.7-1.2-.9l-.4-.1c-1.6-.2-2.5-1-2.5-2.3 0-1.4 1.1-2.4 2.8-2.4 1 0 2 .3 2.7.8.1 0 .1.1 0 .2l-.7 1c0 .1-.1.1-.2 0-.6-.4-1.2-.6-1.8-.6-.7 0-1 .4-1 .9 0 .4.3.7 1.2.9l.4.1c1.6.2 2.5 1 2.5 2.4s-1 2.5-3.1 2.5c-1.3-.2-2.5-.6-3.1-1.2zM122.6 150.2c0-.1 0-.1.1-.1h5c.1 0 .1 0 .1.1v1.2c0 .1 0 .1-.1.1h-3.4s-.1 0-.1.1v1.6s0 .1.1.1h2.8c.1 0 .1 0 .1.1v1.2c0 .1 0 .1-.1.1h-2.8s-.1 0-.1.1v1.6s0 .1.1.1h3.4c.1 0 .1 0 .1.1v1.2c0 .1 0 .1-.1.1h-5c-.1 0-.1 0-.1-.1v-7.6zM133.5 157.9c-.1 0-.1 0-.2-.1l-1.3-2.9h-1s-.1 0-.1.1v2.8c0 .1 0 .1-.1.1h-1.5c-.1 0-.1 0-.1-.1v-7.6c0-.1 0-.1.1-.1h3.1c1.6 0 2.7 1 2.7 2.4 0 1-.5 1.8-1.4 2.2l1.5 3.1c0 .1 0 .1-.1.1h-1.6zm-.2-5.4c0-.6-.4-1-1.1-1h-1.4s-.1 0-.1.1v1.8s0 .1.1.1h1.4c.7 0 1.1-.4 1.1-1zM138.2 157.9c-.1 0-.1 0-.2-.1l-2.5-7.6c0-.1 0-.1.1-.1h1.5c.1 0 .1 0 .1.1l1.6 5.1 1.5-5.1c0-.1.1-.1.1-.1h1.5c.1 0 .1 0 .1.1l-2.5 7.6c0 .1-.1.1-.1.1h-1.2zM143 150.2c0-.1 0-.1.1-.1h1.5c.1 0 .1 0 .1.1v7.6c0 .1 0 .1-.1.1h-1.5c-.1 0-.1 0-.1-.1v-7.6zM146 154c0-1.2 0-1.6.2-2.1.4-1.3 1.4-1.9 2.8-1.9 1.3 0 2.3.6 2.7 1.7 0 .1 0 .1-.1.1l-1.3.6c-.1 0-.1 0-.2-.1-.2-.5-.6-.9-1.2-.9s-1 .3-1.2.9c-.1.3-.1.6-.1 1.7s0 1.4.1 1.7c.2.5.6.9 1.2.9.7 0 1-.4 1.2-.9 0-.1.1-.1.2-.1l1.3.6c.1 0 .1.1.1.1-.4 1.1-1.4 1.7-2.7 1.7-1.4 0-2.4-.6-2.8-1.9-.2-.5-.2-.9-.2-2.1zM152.8 150.2c0-.1 0-.1.1-.1h5c.1 0 .1 0 .1.1v1.2c0 .1 0 .1-.1.1h-3.4s-.1 0-.1.1v1.6s0 .1.1.1h2.8c.1 0 .1 0 .1.1v1.2c0 .1 0 .1-.1.1h-2.8s-.1 0-.1.1v1.6s0 .1.1.1h3.4c.1 0 .1 0 .1.1v1.2c0 .1 0 .1-.1.1h-5c-.1 0-.1 0-.1-.1v-7.6zM158.9 157s-.1-.1 0-.2l.9-1c0-.1.1-.1.2 0 .5.4 1.2.8 2 .8s1.3-.4 1.3-.9-.3-.7-1.2-.9l-.4-.1c-1.6-.2-2.5-1-2.5-2.3 0-1.4 1.1-2.4 2.8-2.4 1 0 2 .3 2.7.8.1 0 .1.1 0 .2l-.7 1c0 .1-.1.1-.2 0-.6-.4-1.2-.6-1.8-.6-.7 0-1 .4-1 .9 0 .4.3.7 1.2.9l.4.1c1.6.2 2.5 1 2.5 2.4s-1 2.5-3.1 2.5c-1.3-.2-2.5-.6-3.1-1.2z"/></g></svg>