<svg width="82" height="82" viewBox="0 0 82 82" xmlns="http://www.w3.org/2000/svg"><title>high_quality_audio</title><g fill-rule="nonzero" fill="none"><circle fill="#474E5B" cx="41" cy="41" r="41"/><circle fill="#F7C012" cx="41" cy="41" r="28.8"/><g fill="#FFF"><path d="M53.6 41.2c0 2.2-.9 4.2-2.5 5.9-.6.6-1.6.6-2.2 0-.6-.6-.6-1.5 0-2.2.8-.8 1.3-1.7 1.5-2.8.4-1.9-.1-3.5-1.4-5-.2-.3-.5-.5-.5-.9-.1-.7.1-1.3.7-1.7.6-.3 1.3-.3 1.8.2.6.6 1.2 1.3 1.6 2.1.6 1.4 1 2.7 1 4.4zM40.9 30.1l-7.5 4h-9.1c-1.1 0-2.2.9-2.2 2V45c0 1.1 1.1 1.9 2.2 1.9h9.1l7.5 4.1c1.4.7 3.1-.2 3.1-1.7V31.9c0-1.6-1.7-2.6-3.1-1.8z"/><path d="M59.8 40.7c-.1 4.4-1.5 8-4.4 10.9-.5.5-1 .6-1.7.5-.6-.2-1-.6-1.1-1.2-.1-.6 0-1.1.5-1.5.5-.5 1-1.1 1.4-1.7 1-1.4 1.6-3 1.9-4.7.2-1 .2-2.1.1-3.1-.3-2.7-1.4-5.1-3.2-7.1-.3-.3-.5-.6-.6-.9-.2-.7.1-1.4.8-1.8.6-.4 1.4-.3 1.9.2.9.8 1.6 1.8 2.2 2.8 1.1 1.8 1.8 3.7 2.1 5.7.1.7.1 1.4.1 1.9z"/></g></g></svg>