<svg id="internet_phone.svg" xmlns="http://www.w3.org/2000/svg" width="77.625" height="89.156" viewBox="0 0 77.625 89.156"><defs><style>.cls-1,.cls-2{fill:#2e3847;fill-rule:evenodd}.cls-2{fill:#f58536}</style></defs><path id="Forma_1" data-name="Forma 1" class="cls-1" d="M627.865 726.763c-.892 0-1.767-.053-2.639-.128v5.729H580.14V663.9h45.086v5.972a31.03 31.03 0 0 1 2.639-.127c.574 0 1.143.053 1.711.078v-9.454a6.157 6.157 0 0 0-6.255-6.018h-41.279a6.158 6.158 0 0 0-6.256 6.018v77.118a6.162 6.162 0 0 0 6.256 6.022h41.279a6.161 6.161 0 0 0 6.255-6.022v-10.8c-.563.025-1.137.076-1.711.076zm-31.784-68.075h13.207a.731.731 0 1 1 0 1.462h-13.207a.731.731 0 1 1 0-1.462zm6.6 81.807a3.009 3.009 0 1 1 3.129-3.009 3.068 3.068 0 0 1-3.125 3.014z" transform="translate(-575.781 -654.344)"/><path id="Forma_1_copy" data-name="Forma 1 copy" class="cls-2" d="M653.4 698.269v-.024c0-13.553-11.457-24.574-25.531-24.574-14.08 0-25.534 11.032-25.534 24.585 0 13.554 11.454 24.583 25.534 24.583 14.07.003 25.521-11.026 25.531-24.57zm-25.531 21.962c-2.612 0-5.444-4.8-6.791-12.411a66.876 66.876 0 0 0 13.588 0c-1.352 7.613-4.184 12.411-6.801 12.411zm0-14.67a63.985 63.985 0 0 1-7.183-.391 59.125 59.125 0 0 1 0-13.834 66.062 66.062 0 0 1 14.372 0 59.562 59.562 0 0 1 0 13.834 64.068 64.068 0 0 1-7.193.391zm-22.823-7.305c0-2.518 4.981-5.247 12.89-6.536a59.686 59.686 0 0 0 0 13.073c-7.909-1.284-12.89-4.017-12.89-6.537zm22.823-21.974c2.617 0 5.449 4.795 6.8 12.409a67.069 67.069 0 0 0-13.588 0c1.34-7.617 4.172-12.409 6.784-12.409zm9.936 15.436c7.9 1.293 12.878 4.015 12.889 6.53v.013c-.011 2.52-4.991 5.242-12.889 6.529a59.843 59.843 0 0 0-.005-13.072zm12.265 1.454c-2.926-1.974-7.514-3.365-12.63-4.132-.8-4.93-2.239-9.343-4.287-12.166a22.5 22.5 0 0 1 16.913 16.298zm-27.48-16.3c-2.053 2.823-3.5 7.236-4.295 12.166-5.116.764-9.7 2.158-12.628 4.135a22.51 22.51 0 0 1 16.919-16.299zm-16.923 26.467c2.929 1.975 7.512 3.363 12.628 4.134.8 4.93 2.242 9.341 4.295 12.164a22.514 22.514 0 0 1-16.927-16.296zm27.486 16.287c2.051-2.815 3.492-7.228 4.287-12.159 5.116-.765 9.7-2.158 12.63-4.133a22.47 22.47 0 0 1-16.921 16.294z" transform="translate(-575.781 -654.344)"/></svg>