<svg width="70" height="69" viewBox="0 0 70 69" xmlns="http://www.w3.org/2000/svg"><title>logo_part-01</title><g fill="#F9B040" fill-rule="nonzero" opacity=".4"><path d="M55.9 68.7c-7.1 0-12.8-5.7-12.8-12.7 0-2.6.8-5.1 2.2-7.1.5-.7 1.1-1.4 1.7-2.1.2-.1.3-.3.6-.6.7-.7 1.4-1.4 1.9-2.2 5.3-6 4.5-15.9-2.1-22.5-6.1-6.1-15-7.2-21.1-3.2-1.5.8-2.8 1.9-4 3.1-.2.2-.5.3-.6.6-.6.6-1.3 1.2-2.1 1.7-2 1.4-4.5 2.2-7.1 2.2C5.7 26 0 20.3 0 13.2S5.7.3 12.7.3c.9 0 1.8.1 2.6.3 2.7.5 5 1.9 6.8 3.8l.1.1c1.9 2 4.4 3.6 7.2 4.5 5.3 1.9 11.9.7 16.9-3.6l-.1-.1c.5-.3.8-.6 1.2-1 .2-.1.4-.3.6-.5.8-.9 1.8-1.6 2.8-2.1 4.2-2.8 10.4-2 14.6 2.2 4.6 4.6 5.1 11.4 1.4 15.6-.3.5-.8 1-1.3 1.5-.2.2-.2.3-.4.4-.4.4-.8.9-1.2 1.4l-.1.1-.1-.1c-5.7 6.8-6.2 16.2-.8 21.9.5.6 1.1 1.2 1.6 1.8l.1.1c2 1.8 3.3 4.1 3.8 6.8.2.8.3 1.7.3 2.6.1 7-5.7 12.7-12.8 12.7z"/><circle cx="34.6" cy="34.6" r="12.8"/></g></svg>