<svg width="82" height="82" viewBox="0 0 82 82" xmlns="http://www.w3.org/2000/svg"><title>outbound_calling</title><g fill-rule="nonzero" fill="none"><circle fill="#63AFB6" cx="41" cy="41" r="41"/><path d="M48 67.2c-3.7-.8-7-2.4-10-4.6-3.1-2.3-6.3-4.7-9-7.5-3.3-3.2-6.4-6.7-9.3-10.3-3-3.7-5.3-7.8-6.1-12.6-.2-1 0-2.1.5-3 1.8-2.9 4.3-5 7.3-6.5.4-.2.8-.3 1.2-.2 1.1.3 1.9 1 2.5 2 1.6 2.5 3.3 5.1 5 7.5 1 1.4 1 2.8.2 4.3l-1.8 3.3c-.3.5-.3.8.1 1.3 3.4 4.2 7.2 8 11.4 11.4.4.4.8.4 1.2.1 1.1-.6 2.2-1.3 3.3-1.8 1.5-.8 2.9-.8 4.4.2 2.5 1.7 5 3.4 7.6 5 0 0 .1 0 .1.1 1.5 1 2 3 1 4.6-1.4 2.3-3.1 4.3-5.3 5.8-1.3.9-2.8 1.2-4.3.9z" fill="#474E5B"/><g fill="#FFF"><path d="M19.5 23.7c.3.4 9.8 14.6 9.8 14.6M28.6 38.7c-3.8-5.6-9.5-14.1-9.7-14.5l1.1-.8c.3.4 8.8 13.2 9.8 14.6l-1.2.7z"/></g><g fill="#FFF"><path d="M42.1 51.9c.5.3 14.5 9.7 14.5 9.7M56.2 62.2c-3.9-2.6-14-9.4-14.5-9.7l.7-1.2c.6.3 14 9.4 14.6 9.7l-.8 1.2z"/></g><path d="M38.1 43.5l2.4-4.1c-2.3-2.5-3.8-5.8-3.7-9.5.1-7.2 5.9-13.2 13.2-13.4 7.9-.3 14.3 6.2 14 14-.2 7.3-6.2 13.1-13.5 13.2-2 0-3.9-.4-5.6-1.2l-5.5 2.4c-1 .3-1.8-.6-1.3-1.4z" fill="#FFF"/><path d="M42.2 31c-.4-1 0-2.2 1-2.6 1-.4 2.2 0 2.6 1 .4 1 0 2.2-1 2.6-1 .5-2.2 0-2.6-1zM48.2 31c-.4-1 0-2.2 1-2.6 1-.4 2.2 0 2.6 1 .4 1 0 2.2-1 2.6-1 .5-2.2 0-2.6-1zM54.1 31c-.4-1 0-2.2 1-2.6 1-.4 2.2 0 2.6 1 .4 1 0 2.2-1 2.6-1 .5-2.1 0-2.6-1z" fill="#F7C012"/></g></svg>