<svg width="82" height="82" viewBox="0 0 82 82" xmlns="http://www.w3.org/2000/svg"><title>post_call_survey</title><g fill-rule="nonzero" fill="none"><circle fill="#63AFB6" cx="41" cy="41" r="41"/><path d="M61.5 16.1L23.2 16c-.8 0-1.5.7-1.5 1.5l-.2 50.8c0 .8.7 1.5 1.5 1.5l38.3.1c.8 0 1.5-.7 1.5-1.5l.2-50.8c0-.8-.7-1.5-1.5-1.5z" fill="#162026"/><path d="M62.8 67.4c0 .8-.7 1.5-1.5 1.5L23 68.8c-.8 0-1.5-.7-1.5-1.5l.2-50.8c0-.8.7-1.5 1.5-1.5H45.1l16.4.1c.8 0 1.5.7 1.5 1.5l-.2 50.8z" fill="#474E5B"/><path d="M63 16.6l-.2 50.8c0 .8-.7 1.5-1.5 1.5L23 68.8c-.4 0-.8-.2-1-.4 11.4-15.1 31-40.3 40.7-52.7.2.3.3.6.3.9z" fill="#263742"/><path fill="#FFF" d="M24.486 18.436l35.6.128-.172 47.4-35.6-.128z"/><path d="M42.8 11c-1.5-.1-2.7 1-2.7 2.5l.2 1.6h4.8v-1.5c0-1.4-1-2.5-2.3-2.6zm-.2 3.4c-.7 0-1.2-.5-1.2-1.2s.5-1.2 1.2-1.2 1.2.5 1.2 1.2-.6 1.2-1.2 1.2z" opacity=".14" fill="#040404"/><path d="M53.7 21.8v-.9c0-1.3-1.1-2.4-2.4-2.4h-1.6c-.1-.8-.8-1.4-1.6-1.4h-3.3v-3.3c0-1.3-1-2.4-2.3-2.5-1.5-.1-2.7 1-2.7 2.5v3.3h-3.3c-.8 0-1.5.6-1.6 1.4h-1.6c-1.3 0-2.4 1.1-2.4 2.4v.9h4l14.8.1 4-.1zm-11.4-9.5c.7 0 1.2.5 1.2 1.2s-.5 1.2-1.2 1.2-1.2-.5-1.2-1.2c0-.6.6-1.2 1.2-1.2z" fill="#F7C012"/><path fill="#F39811" d="M36.752 18.882l.003-1 10.6.04-.004 1z"/><path fill="#E97211" d="M36.8 18.9l-.1.1 10.6.1V19z"/><path fill="#F39811" d="M36.743 20.28l.004-1 10.6.04-.004 1z"/><path fill="#E97211" d="M36.7 20.2v.1l10.6.1v-.1z"/><g fill="#474E5B"><path d="M27.696 25.987l.004-1 16.2.061-.004 1zM27.645 28.563l.004-1 27.2.103-.004 1zM34.68 34.49l.004-1 14.2.054-.004 1zM34.684 36.572l.004-1 14.2.053-.004 1zM34.664 38.576l.004-1 14.2.054-.004 1zM34.666 40.657l.004-1 14.2.054-.004 1zM32.522 52.036l.004-1 8.1.03-.004 1zM32.502 54.04l.004-1 8.1.03-.004 1zM32.51 59.59l.004-1 8.1.031-.004 1zM32.513 61.672l.003-1 8.1.03-.003 1zM47.285 52.11l.004-1 8.2.031-.004 1zM47.265 54.115l.004-1 8.2.03-.004 1zM47.272 59.665l.004-1 8.2.03-.004 1zM47.275 61.747l.004-1 8.2.03-.004 1zM37.4 44.4h-10v2.7h10v-2.7zm-.2 2.6h-9.6v-2.4h9.6V47zM53.5 47.2v-2.7h-10v2.7h10zm-.2-.1h-9.6v-2.4h9.6v2.4zM29.2 51c-1 0-1.8.8-1.8 1.8s.8 1.8 1.8 1.8c.2 0 .4 0 .5-.1.7-.2 1.3-.9 1.3-1.7 0-.9-.8-1.8-1.8-1.8zm0 3.4c-.9 0-1.6-.7-1.6-1.6 0-.7.5-1.3 1.1-1.5.2 0 .3-.1.5-.1.9 0 1.6.7 1.6 1.6 0 .9-.7 1.6-1.6 1.6zM29.1 58.6c-1 0-1.8.8-1.8 1.8 0 .5.2.9.5 1.3.3.3.8.5 1.3.5.2 0 .4 0 .5-.1.3-.1.5-.2.7-.4.3-.3.5-.8.5-1.3.1-.9-.7-1.8-1.7-1.8zm1.2 3c-.3.3-.7.4-1.2.4-.4 0-.8-.2-1.1-.5-.3-.3-.5-.7-.5-1.1 0-.7.5-1.3 1.1-1.5.2 0 .3-.1.5-.1.9 0 1.6.7 1.6 1.6 0 .5-.1.9-.4 1.2zM43.1 51.1c-.5 0-.9.2-1.3.5-.3.3-.5.8-.5 1.3 0 1 .8 1.8 1.8 1.8.2 0 .4 0 .5-.1.7-.2 1.3-.9 1.3-1.7 0-.5-.2-.9-.5-1.3-.3-.3-.8-.5-1.3-.5zm0 3.4c-.9 0-1.6-.7-1.6-1.6 0-.4.2-.8.5-1.1.2-.2.4-.3.7-.4.2 0 .3-.1.5-.1.4 0 .8.2 1.1.5.3.3.5.7.5 1.1-.1.9-.8 1.6-1.7 1.6zM43.1 58.7c-1 0-1.8.8-1.8 1.8 0 .5.2.9.5 1.3.3.3.8.5 1.3.5.2 0 .4 0 .5-.1.7-.2 1.3-.9 1.3-1.7 0-1-.8-1.8-1.8-1.8zm0 3.4c-.4 0-.8-.2-1.1-.5-.3-.3-.5-.7-.5-1.1 0-.4.2-.8.5-1.1.2-.2.4-.3.7-.4.2 0 .3-.1.5-.1.9 0 1.6.7 1.6 1.6-.1.9-.8 1.6-1.7 1.6z"/><path d="M29 53.4l-.7-.6-.1.2.8.7 1.2-1.6-.2-.1zM29 61l-.8-.5-.1.1.9.7 1.2-1.5-.2-.2zM42.9 53.5l-.7-.6-.1.1.9.7 1.1-1.5-.1-.1zM42.9 61.1l-.7-.6-.1.2.8.7 1.2-1.6-.1-.1z"/></g></g></svg>