<svg width="75" height="15" viewBox="0 0 75 15" xmlns="http://www.w3.org/2000/svg"><title>pries-01</title><g fill="#000" fill-rule="nonzero"><path d="M12.6 4.6c0 1.5-.5 2.6-1.4 3.3-.9.7-2.4 1.1-4.4 1.1H5.4v2.7h1.9V14H0v-2.4h1.8V2.5H0V.2h6.8c2 0 3.5.4 4.4 1.1 1 .7 1.4 1.8 1.4 3.3zm-3.8 0c0-.6-.1-1-.4-1.3-.2-.3-.6-.5-1-.6-.4-.1-.9-.2-1.5-.2h-.5v4.2H6c.8 0 1.4-.1 1.8-.2.4-.2.7-.4.9-.7 0-.3.1-.7.1-1.2zM29.9 3.9c0 .8-.2 1.6-.6 2.1-.4.6-1 1-1.8 1.4l2.2 4.2h1.8V14h-4.2l-3.1-6h-1.6v3.7h1.7V14H17v-2.4h2V2.5h-1.9V.2H25c1.5 0 2.7.3 3.6 1 .9.6 1.3 1.5 1.3 2.7zm-3.8.2c0-.5-.2-.9-.5-1.2-.3-.3-.8-.4-1.4-.4h-1.6v3.2h1.3c1.5 0 2.2-.5 2.2-1.6zM41.3 2.5v9.2h2.1V14h-7.8v-2.4h2.1V2.5h-2.1V.2h7.8v2.4h-2.1zM57.7 4.6v-2h-4.3v3.2h3.5V8h-3.5v3.6h4.3v-2h2.7V14H48.1v-2.4h1.7V2.5h-1.7V.2h12.2v4.4zM71.9 1.3V.2h2.4v4.2h-2.4c-.1-.7-.3-1.2-.7-1.5-.3-.3-.8-.5-1.3-.5-.4 0-.7.1-1 .3-.3.2-.4.5-.4.8 0 .3.1.5.3.7.2.2.4.4.7.5.3.1.7.3 1.2.6l.6.2c1.2.5 2.1 1.1 2.8 1.9.5.7.9 1.6.9 2.7 0 1.3-.4 2.3-1.1 3-.7.7-1.7 1.1-2.9 1.1s-2.1-.5-2.8-1.4V14h-2.4V9.3h2.4c0 .8.3 1.4.6 1.9.4.4.9.6 1.5.6.4 0 .8-.1 1.1-.4.3-.3.4-.6.4-1.1 0-.4-.2-.8-.5-1.1-.3-.3-.9-.7-1.7-1-1.4-.6-2.4-1.3-3-1.9-.6-.7-.9-1.5-.9-2.4 0-.7.2-1.4.5-1.9.3-.6.8-1 1.3-1.4.5-.4 1.2-.6 1.8-.6.5 0 1 .1 1.5.3.5.3.8.6 1.1 1z"/></g></svg>