<svg width="55" height="41" viewBox="0 0 55 41" xmlns="http://www.w3.org/2000/svg"><title>quot_2-01</title><path d="M27.3 9.7C28.9 6.4 30.8 4 33 2.4 35.1.8 37.7 0 40.7 0c4.2 0 7.6 1.5 10.2 4.5 2.7 3 4 6.8 4 11.5 0 4.3-.9 8.2-2.7 11.8-1.8 3.6-4.4 6.6-7.7 8.9-1.9 1.3-4 2.3-6.5 3.1-2.5.8-4.9 1.1-7.4 1.1H29l-1.8-2.1c5.5-.4 9.8-1.7 13.1-3.6 3.3-2 5.6-4.8 7-8.5-1.2.5-2.4 1-3.5 1.2-1.1.3-2.2.4-3.2.4-2.7 0-5.1-.7-7.1-2-2.1-1.3-3.9-3.3-5.7-6.1C26 27 23 32.2 19 35.7c-4 3.5-9.1 5.2-15.1 5.2H2.5L.7 38.8c5.5-.4 9.9-1.7 13.1-3.6 3.3-2 5.6-4.8 7.1-8.5-1.3.6-2.4 1-3.5 1.3-1.1.3-2.2.4-3.2.4-4 0-7.3-1.4-10-4.1-2.7-2.7-4.1-6-4.1-10 0-3.9 1.4-7.3 4.1-10 2.7-2.7 6-4.1 10-4.1 3 0 5.6.8 7.7 2.4 2 1.3 3.9 3.8 5.4 7.1z" fill="#F17920" fill-rule="nonzero"/></svg>