<svg width="82" height="82" viewBox="0 0 82 82" xmlns="http://www.w3.org/2000/svg"><title>real_time_metrics</title><g fill-rule="nonzero" fill="none"><circle fill="#E8523F" cx="41" cy="41" r="41"/><path d="M57.5 63.1h9.2v-8.9c0-.9-.8-1.7-1.7-1.7h-5.9c-.9 0-1.7.8-1.7 1.7v8.9h.1zM30.2 63.1h9.2V47.6c0-1.1-.9-2-2-2h-5.3c-1.1 0-2 .9-2 2v15.5h.1z" fill="#F7C012"/><path d="M16.6 63.1h9.2V34c0-1.2-1-2.2-2.2-2.2h-4.9c-1.2 0-2.2 1-2.2 2.2v29.1h.1zM43.8 63.1H53V42.3c0-1.4-1.1-2.5-2.5-2.5h-4.3c-1.4 0-2.5 1.1-2.5 2.5v20.8h.1z" fill="#63AFB6"/><path d="M62.4 42.3L48.7 26.2l-13.3 9.1c-.3.2-.7.2-.9-.1L21.1 20.4l1-.9 13.1 14.3 13.3-9.1c.3-.2.7-.1.9.1l14 16.6-1 .9z" fill="#FFF"/><circle fill="#474E5B" cx="62.9" cy="41.9" r="3.1"/><circle fill="#474E5B" cx="21.6" cy="19.9" r="4.6"/><circle fill="#474E5B" cx="35.1" cy="34.7" r="2.6"/><circle fill="#474E5B" cx="48.9" cy="25.3" r="4.7"/><path d="M67.5 65.3H14.4c-.3 0-.6-.3-.6-.6s.3-.6.6-.6h53.1c.3 0 .6.3.6.6s-.2.6-.6.6z" fill="#FFF"/></g></svg>