<svg width="82" height="82" viewBox="0 0 82 82" xmlns="http://www.w3.org/2000/svg"><title>reports</title><g fill-rule="nonzero" fill="none"><circle fill="#63AFB6" cx="41" cy="41" r="41"/><path fill="#474E5B" d="M63.2 30.7V69H25.4V21.8h29.5z"/><path fill="#F7C012" d="M63.2 30.7h-8.3v-8.9z"/><g fill="#FFF"><path d="M30.9 36.1h9.2v1.4h-9.2zM38.8 60.8h10.5v1.4H38.8zM30.9 43.7h18.5v1.4H30.9zM30.9 48.9h18.5v1.4H30.9zM30.9 54h18.5v1.4H30.9z"/></g><path d="M22.9 59h-1.4V18.7c0-.4.3-.7.7-.7h27v1.4H22.9V59z" fill="#FFF"/><path d="M18.3 55.4h-1.4V15.1c0-.4.3-.7.7-.7h27v1.4H18.3v39.6z" fill="#FFF"/></g></svg>