<svg width="336" height="335" viewBox="0 0 336 335" xmlns="http://www.w3.org/2000/svg"><title>safari-pinned-tab</title><g fill="#000" fill-rule="nonzero"><path d="M111.8 1c-7.2 2.2-15.6 10-17.9 16.6-.7 2.2-1.3 6.8-1.2 10.4.1 8.1 2 12.2 9.8 21 9.9 11 12.8 20.9 9.7 33-2 7.9-4.8 12.7-10.6 18.6-8.5 8.4-18.2 12.4-29.5 11.9-7.8-.3-15.2-3.9-23.4-11.3-7.3-6.4-12.8-9.2-19.8-9.7C17.6 90.7 6 98.1 2 108.7c-6.9 18.5 5.6 37.4 25 37.6 8.3.1 13.6-2.3 21.9-9.6 8.3-7.4 15.1-10.1 25.6-10.1 6.9 0 8.9.4 14.6 3.1 3.6 1.7 9.2 5.4 12.4 8.3 3.2 2.9 7.6 6.1 9.9 7.1 14.9 6.6 32.9-3.4 36.5-20.2 2-9.2-.4-15.6-9.5-25.4-2.6-2.8-6.1-7.9-7.8-11.5-2.6-5.5-3.1-7.8-3.3-14.7-.2-7.3.1-8.8 2.7-14 1.7-3.2 5-7.9 7.5-10.6 5.9-6.3 7.4-8.7 8.9-14.4C151 16.8 137.7-.2 119.6.1c-2.8 0-6.3.4-7.8.9zM211.9 1.1c-13.3 2.1-22.8 13.1-23 26.8-.1 7.6 3.1 14.7 9.9 21.8 7.4 7.7 9.7 13 9.9 23.4.2 7.7-.1 9.3-2.8 15-1.7 3.5-5.8 9.5-9.2 13.3-11.6 13-12.2 25.2-2 36.7 6.3 6.9 12.6 9.8 20.7 9.6 7-.3 11.7-2.3 17.2-7.3 13.7-12.4 26.8-16.3 40-11.8 7.2 2.4 9.4 3.7 14.9 8.9 2.8 2.6 7.4 5.8 10.3 7.2 12.4 5.8 27.1 1.1 34.7-11.2 2.7-4.4 3-5.6 3-13.4 0-9.8-2.1-15.2-8.1-20.7-5.7-5.3-10-6.9-18.4-6.8-8.9 0-14 2.2-21 9.1-6.7 6.5-17.3 11.5-24.6 11.5-15.7.1-29.6-8.6-36.7-23.1-2.9-6-3.2-7.4-3.2-16.1 0-8.5.3-10 2.8-14.5 1.5-2.8 5.1-7.5 7.9-10.5 7.5-8.2 9.2-12.1 9.2-21 0-9-1.9-13.6-8.1-19.7-6.1-5.9-14.8-8.6-23.4-7.2z"/><path d="M63.2 48.5C45.6 56.6 41.4 79.5 55 93c16.5 16.5 44.6 6.1 46.6-17.3 1.7-20.3-20.1-35.7-38.4-27.2zM252.1 47.9c-6.7 2.7-12 7.7-14.9 14-6.1 13.3-1.6 27.6 11.2 35.9 3.6 2.4 5.1 2.6 13.1 2.7 8 0 9.5-.3 13.6-2.7 19.1-11.3 19-37.8-.3-48.3-6.7-3.6-15.9-4.3-22.7-1.6zM158.2 49.9C147.9 53.5 141 63 140.5 74.6c-.3 5.5.1 7.3 2.7 12.4 1.6 3.3 3.9 6.8 5.1 7.7 7.2 5.8 12.7 18.6 12.2 28.6-.8 16.2-12.9 31.9-27.9 36.2-14.8 4.2-24.8 1.6-37.1-9.9-7.2-6.6-12.6-9-20.5-9-25 0-36.6 31-18 47.8 5.6 5.1 10.2 6.8 18 6.9 8.2 0 13.4-2.3 21.7-9.6 7.8-7 13.9-9.9 21.8-10.4 21.8-1.7 41.7 17.3 41.7 39.7 0 8.9-3.3 16-11.3 24.5-6.1 6.5-8.3 11.9-8.3 20 0 4.9.6 8.3 2.1 11.5 9.5 20.8 39.9 21.2 49.7.7 3.2-6.8 3.8-11.7 2-18.6-1.5-5.7-3.5-8.8-10.3-16.1-6.8-7.3-8.6-12-8.6-23 0-8.5.3-10.1 2.9-15.5 5.2-10.5 16.1-19.6 27-22.4 5.8-1.5 17.4-.6 22.1 1.8 2.2 1 6.9 4.4 10.3 7.5 8.7 7.7 13.1 9.8 21.2 9.9 11.1.2 19.7-5.1 25.3-15.7 3.2-6.2 3-17.3-.6-24.3-2.8-5.4-9-11.1-14.6-13.3-5.1-2.1-14.8-1.7-20.2.7-2.5 1.1-7.4 4.6-11 7.8-7.8 7.1-14.7 10.4-22.4 10.9-22.3 1.3-43.2-19.8-41.2-41.7.6-6.9 5-16.5 10-21.7 11.3-12 13.9-22.9 8.3-34.5-6.3-12.8-20.5-18.4-34.4-13.6z"/><path d="M116 187.7c-4 1.3-10 5-15 9.2-9.4 8-15.1 10.7-24.5 11.5-9.9.8-19.9-3.2-29.6-11.9-12.4-11.1-28-11.2-38.8-.4-14.5 14.5-8 40.8 11.3 46 10.5 2.8 19.8 0 29.5-9 7.5-6.8 14.6-10.3 22.7-10.9 29-2.1 51.9 31.7 37.3 55.4-1.3 2.2-4.4 6.1-7 8.9-7.4 8.1-9.9 13.9-9.4 22.6.4 9.3 5.8 17.6 14.5 22.3 6.8 3.7 17.1 4.1 24.1.9 9.9-4.5 16.2-14.1 16.2-24.8 0-8-2.8-14.1-9.9-21.8-8-8.6-9.8-13.1-9.8-24.2-.1-8.2.2-9.6 3.2-15.5 1.8-3.6 5.2-8.5 7.6-11 9.6-10.1 12-17.7 8.9-28.2-1.8-6-8.8-13.9-15-16.8-4.5-2.1-13.1-3.3-16.3-2.3zM209 188c-12.6 3.7-21.3 14.7-21.3 27 0 6.7 2.3 11.4 9.2 19 2.7 3 6.5 8.4 8.3 11.9 3.1 6 3.3 7.2 3.3 16 0 11.4-1.4 14.8-10.2 24.3-6.6 7.2-9.1 12.4-9.4 19.8-1.1 26.5 32 38.8 49 18.3 6.3-7.5 7.6-19.5 3.2-28.5-1.1-2.4-4.5-7-7.6-10.3-8.3-9-10-13.1-10-24.5 0-8.3.4-10.3 2.7-15.3 3.5-7.4 12.5-16.3 20.3-20.1 5.2-2.6 7.2-3 15-3 7.9-.1 9.7.2 14.7 2.7 3.1 1.5 8.4 5.2 11.7 8.2 6.8 6 9.9 7.9 15.1 9 16.3 3.6 31.4-7.5 32.8-24 1-12.5-4.2-22-14.8-27.3-5.4-2.8-7-3.1-13-2.8-8 .4-13.4 2.8-19.5 8.5-5.6 5.3-9.2 7.6-14.8 9.5-13.4 4.5-26.7 1.4-38.2-9-7.6-6.8-12.6-9.4-18.7-9.8-2.9-.2-6.4 0-7.8.4z"/><path d="M62.1 237.1c-27.1 13.5-15.3 54.4 14.8 51.6 7.4-.6 12.8-3.5 18-9.3 11.7-13.4 7.6-34.4-8.3-42.7-2.8-1.4-6.4-2.2-11.3-2.3-6.3-.3-7.9.1-13.2 2.7zM254.4 235c-1.8.4-4.8 1.7-6.8 2.9-15.7 9.7-17.6 32-3.8 44.2 13.7 12 34.7 7.8 42.8-8.7 8.8-18-4.9-39.8-24.7-39.3-2.4.1-5.8.4-7.5.9z"/></g></svg>