<svg width="131" height="92" viewBox="0 0 131 92" xmlns="http://www.w3.org/2000/svg"><title>salesforce-01</title><g fill="none" fill-rule="evenodd"><path d="M54.3 10c4.2-4.4 10.1-7.1 16.6-7.1C79.5 2.9 87 7.7 91 14.8c3.5-1.6 7.3-2.4 11.4-2.4 15.5 0 28.1 12.7 28.1 28.4s-12.6 28.4-28.1 28.4c-1.9 0-3.8-.2-5.5-.6-3.5 6.3-10.2 10.5-18 10.5-3.2 0-6.3-.7-9-2.1-3.6 8.5-11.9 14.4-21.6 14.4-10.1 0-18.7-6.4-22-15.4-1.4.3-2.9.5-4.5.5-12 0-21.8-9.9-21.8-22 0-8.1 4.4-15.3 10.9-19.1-1.3-3.1-2.1-6.5-2.1-10.1C8.8 11.3 20.2 0 34.2 0c8.2 0 15.5 3.9 20.1 10z" fill="#1C99C4" fill-rule="nonzero"/><g fill="#FFF"><path d="M18.9 47.4c-.1.2 0 .3.1.3.2.2.5.3.7.5 1.3.7 2.6.9 3.9.9 2.7 0 4.3-1.4 4.3-3.7 0-2.1-1.9-2.9-3.6-3.4l-.2-.1c-1.3-.4-2.5-.8-2.5-1.7 0-.7.7-1.3 1.7-1.3 1.2 0 2.5.4 3.4.9 0 0 .3.2.4-.1.1-.1.5-1.3.5-1.5.1-.1 0-.2-.1-.3-1-.6-2.4-1-3.8-1h-.3c-2.5 0-4.2 1.5-4.2 3.6 0 2.2 1.9 3 3.7 3.5l.3.1c1.3.4 2.4.7 2.4 1.6 0 .8-.7 1.4-1.9 1.4-.5 0-1.9 0-3.4-1-.2-.1-.3-.2-.4-.3-.1 0-.3-.1-.4.1l-.6 1.5zM58.1 47.4c-.1.2 0 .3.1.3.2.2.5.3.7.5 1.3.7 2.6.9 3.9.9 2.7 0 4.3-1.4 4.3-3.7 0-2.1-1.9-2.9-3.6-3.4l-.2-.1c-1.3-.4-2.5-.8-2.5-1.7 0-.7.7-1.3 1.7-1.3 1.2 0 2.5.4 3.4.9 0 0 .3.2.4-.1.1-.1.5-1.3.5-1.5.1-.1 0-.2-.1-.3-1-.6-2.4-1-3.8-1h-.3c-2.5 0-4.2 1.5-4.2 3.6 0 2.2 1.9 3 3.7 3.5l.3.1c1.3.4 2.4.7 2.4 1.6 0 .8-.7 1.4-1.9 1.4-.5 0-1.9 0-3.4-1-.2-.1-.3-.2-.4-.3 0 0-.3-.1-.4.1l-.6 1.5zM87.1 40.5c-.2-.7-.6-1.4-1-1.9-.5-.5-1-1-1.7-1.3-.7-.3-1.5-.5-2.4-.5-.9 0-1.7.2-2.4.5s-1.3.8-1.7 1.3c-.5.5-.8 1.2-1 1.9-.2.7-.3 1.5-.3 2.4 0 .9.1 1.7.3 2.4.2.7.6 1.4 1 1.9.5.5 1 1 1.7 1.3.7.3 1.5.5 2.4.5.9 0 1.7-.2 2.4-.5s1.3-.7 1.7-1.3c.5-.5.8-1.2 1-1.9.2-.7.3-1.5.3-2.4 0-.9-.1-1.7-.3-2.4m-2.2 2.4c0 1.3-.2 2.3-.7 3-.5.7-1.2 1.1-2.2 1.1-1 0-1.7-.3-2.2-1.1-.5-.7-.7-1.7-.7-3s.2-2.3.7-3c.5-.7 1.2-1.1 2.2-1.1 1 0 1.7.3 2.2 1.1.4.7.7 1.7.7 3" fill-rule="nonzero"/><path d="M105.5 46.6c-.1-.2-.3-.1-.3-.1-.3.1-.7.2-1 .3-.4.1-.8.1-1.2.1-1.1 0-1.9-.3-2.6-1-.6-.6-1-1.7-1-3.1 0-1.3.3-2.2.9-2.9.5-.7 1.4-1.1 2.5-1.1.9 0 1.6.1 2.4.3 0 0 .2.1.3-.2.2-.5.3-.9.5-1.5.1-.2-.1-.2-.1-.3-.3-.1-1-.3-1.5-.4-.5-.1-1-.1-1.7-.1-.9 0-1.8.2-2.5.5s-1.3.8-1.8 1.3-.8 1.2-1.1 1.9c-.2.7-.4 1.5-.4 2.4 0 1.9.5 3.4 1.5 4.4 1 1.1 2.5 1.7 4.4 1.7 1.1 0 2.3-.2 3.2-.6 0 0 .2-.1.1-.3l-.6-1.3zM116.9 40.1c-.2-.7-.7-1.4-1-1.8-.5-.5-1-.9-1.4-1.1-.6-.3-1.4-.4-2.2-.4-.9 0-1.8.2-2.5.5s-1.3.8-1.7 1.3c-.5.6-.8 1.2-1 2-.2.7-.3 1.6-.3 2.4 0 .9.1 1.7.3 2.4.2.7.6 1.4 1.1 1.9.5.5 1.1 1 1.9 1.3.8.3 1.7.4 2.7.4 2.2 0 3.3-.5 3.8-.8.1 0 .2-.1.1-.4l-.5-1.4c-.1-.2-.3-.1-.3-.1-.5.2-1.3.6-3.1.6-1.2 0-2-.3-2.6-.9-.6-.6-.8-1.4-.9-2.5h7.6s.2 0 .2-.2c0-.1.3-1.5-.2-3.2zm-7.5 1.6c.1-.7.3-1.3.6-1.8.5-.7 1.2-1.1 2.2-1.1 1 0 1.6.4 2.1 1.1.3.5.4 1.1.5 1.8h-5.4zM56.3 40.1c-.2-.7-.7-1.4-1-1.8-.5-.5-1-.9-1.4-1.1-.6-.3-1.4-.4-2.2-.4-.9 0-1.8.2-2.5.5s-1.3.8-1.7 1.3c-.5.6-.8 1.2-1 2-.2.7-.3 1.6-.3 2.4 0 .9.1 1.7.3 2.4.2.7.6 1.4 1.1 1.9.5.5 1.1 1 1.9 1.3.8.3 1.7.4 2.7.4 2.2 0 3.3-.5 3.8-.8.1 0 .2-.1.1-.4l-.5-1.4c-.1-.2-.3-.1-.3-.1-.5.2-1.3.6-3.1.6-1.2 0-2-.3-2.6-.9-.6-.6-.8-1.4-.9-2.5h7.6s.2 0 .2-.2c0-.1.3-1.5-.2-3.2zm-7.5 1.6c.1-.7.3-1.3.6-1.8.5-.7 1.2-1.1 2.2-1.1 1 0 1.6.4 2.1 1.1.3.5.4 1.1.5 1.8h-5.4z"/><path d="M35.4 41.3h-1.2c-.6 0-1.3.1-1.9.2-.6.2-1.1.4-1.6.7-.5.3-.8.7-1.1 1.2-.3.5-.4 1.1-.4 1.7 0 .7.1 1.3.3 1.7.2.5.6.9 1 1.2.4.3.9.5 1.5.7.6.1 1.3.2 2 .2.8 0 1.5-.1 2.3-.2.7-.1 1.7-.3 1.9-.4.3-.1.5-.1.5-.1.2 0 .2-.2.2-.2v-6.9c0-1.5-.4-2.6-1.2-3.3-.8-.7-2-1-3.5-1-.6 0-1.5.1-2 .2 0 0-1.7.3-2.3.9 0 0-.1.1-.1.3l.5 1.4c.1.2.2.1.2.1s.1 0 .1-.1c1.5-.8 3.3-.8 3.3-.8.8 0 1.4.2 1.9.5.4.3.6.8.6 1.8v.3c-.4-.1-1-.1-1-.1zm-3 5.3c-.3-.2-.3-.3-.4-.4-.1-.2-.2-.6-.2-1 0-.7.2-1.1.7-1.5 0 0 .7-.6 2.2-.5 1.1 0 2.1.2 2.1.2v3.4s-1 .2-2 .3c-1.7 0-2.4-.5-2.4-.5z" fill-rule="nonzero"/><path d="M96.5 37.4c.1-.2-.1-.3-.1-.3-.1 0-.8-.2-1.3-.2-1-.1-1.5.1-2 .3-.5.2-1 .6-1.3.9v-.9c0-.1-.1-.2-.2-.2h-1.9c-.1 0-.2.1-.2.2v11.3c0 .1.1.2.2.2h2c.1 0 .2-.1.2-.2v-5.6c0-.8.1-1.5.3-2 .2-.5.4-.8.7-1.1.3-.3.6-.5.9-.6.4-.1.7-.1 1-.1.4 0 .8.1.8.1.1 0 .2-.1.3-.2.1-.4.5-1.4.6-1.6zM77.8 32.2c-.2-.1-.5-.1-.7-.2-.3-.1-.6-.1-1-.1-1.4 0-2.4.4-3.2 1.2-.8.8-1.3 1.9-1.5 3.4l-.2.5h-1.7s-.2 0-.3.2l-.2 1.6c0 .2 0 .2.2.2h1.7l-1.7 9.5c-.1.8-.3 1.4-.5 1.9s-.3.8-.5 1.1c-.2.2-.4.4-.7.5-.3.1-.6.1-.9.1-.2 0-.4 0-.6-.1-.2 0-.3-.1-.4-.1 0 0-.2-.1-.3.1-.1.2-.5 1.4-.6 1.5-.1.1 0 .3.1.3.2.1.4.1.7.2.4.1.8.1 1.1.1.7 0 1.3-.1 1.9-.3.5-.2 1-.5 1.4-1 .4-.5.7-1 1-1.7.3-.7.5-1.5.7-2.5l1.7-9.6h2.5s.2 0 .3-.2l.3-1.6c0-.2 0-.2-.2-.2h-2.4c0-.1.1-.9.4-1.7.1-.3.3-.6.5-.8.2-.2.4-.3.6-.4.2-.1.4-.1.7-.1.2 0 .5 0 .6.1.2 0 .3.1.4.1.2.1.3 0 .3-.1l.6-1.6c.1-.2 0-.3-.1-.3zM44 48.5c0 .1-.1.2-.2.2h-2c-.1 0-.2-.1-.2-.2V32.4c0-.1.1-.2.2-.2h2c.1 0 .2.1.2.2v16.1z"/></g></g></svg>