<svg width="82" height="83" viewBox="0 0 82 83" xmlns="http://www.w3.org/2000/svg"><title>screen_capture</title><g transform="translate(-7 -6)" fill-rule="nonzero" fill="none"><circle fill="#474E5B" transform="rotate(-80.149 48.005 47.953)" cx="48.005" cy="47.953" r="41.002"/><path d="M72.4 65H24.6c-1.4 0-2.5-1.1-2.5-2.5V28.6c0-1.4 1.1-2.5 2.5-2.5h47.8c1.4 0 2.5 1.1 2.5 2.5v33.9c0 1.4-1.1 2.5-2.5 2.5z" fill="#6B717C"/><path fill="#F7C012" d="M48.4 62.4l-10 7.7h20.1z"/><path d="M71.4 65H25.5c-1.3 0-2.4-1.1-2.4-2.4v-33c0-1.3 1.1-2.4 2.4-2.4h45.9c1.3 0 2.4 1.1 2.4 2.4v33c0 1.3-1.1 2.4-2.4 2.4z" fill="#FFF"/><path d="M72.1 65H24.8c-1.3 0-2.4-.8-2.4-1.8v-4.9h52v4.9c.1 1-1 1.8-2.3 1.8z" fill="#63AFB6"/><path d="M64.1 70.7H32.8c-.3 0-.5-.2-.5-.5V70c0-.3.2-.5.5-.5h31.3c.3 0 .5.2.5.5v.2c.1.3-.2.5-.5.5z" fill="#474E5B"/><path d="M28 35h.1l.8-1.4c.2-.5.7-.7 1.5-.7h9.5c.4.1.7.3.8.6l1 1.5h13.2c.8 0 1.6.3 1.6.9v12.7c0 .2-.3.6-.6.6H27c-.3 0-.5-.4-.5-.6V35.9c0-.6.7-.9 1.5-.9z" fill="#63AFB6"/><path d="M40.4 39.4h26.9c.8 0 1.6.5 1.6 1.1v12.7c0 .2-.3.4-.6.4H39.4c-.3 0-.5-.2-.5-.4V40.5c-.1-.6.6-1.1 1.5-1.1z" fill="#F7C012"/><path d="M38.9 42.6h3.7" fill="#FFF"/><path d="M42.6 43h-3.8c-.2 0-.4-.2-.4-.4s.2-.4.4-.4h3.8c.2 0 .4.2.4.4s-.2.4-.4.4z" fill="#4A4F58"/><path d="M30.4 36.3h3.8" fill="#FFF"/><path d="M34.2 36.7h-3.8c-.2 0-.4-.2-.4-.4s.2-.4.4-.4h3.8c.2 0 .4.2.4.4-.1.2-.2.4-.4.4z" fill="#4A4F58"/><path d="M39.2 44.6h6.7" fill="#FFF"/><path d="M45.9 44.9h-6.7c-.2 0-.4-.2-.4-.4s.2-.4.4-.4h6.7c.2 0 .4.1.4.4 0 .3-.2.4-.4.4z" fill="#4A4F58"/><g><path d="M30.4 34.8h6.7" fill="#FFF"/><path d="M37.1 35.2h-6.7c-.2 0-.4-.2-.4-.4s.2-.4.4-.4h6.7c.2 0 .4.2.4.4s-.2.4-.4.4z" fill="#4A4F58"/></g><g><path d="M62.4 50.9h6" fill="#FFF"/><path d="M68.4 51.2h-6c-.2 0-.4-.2-.4-.4s.2-.4.4-.4h6c.2 0 .4.1.4.4 0 .3-.2.4-.4.4z" fill="#4A4F58"/></g></g></svg>