<svg width="128" height="131" viewBox="0 0 128 131" xmlns="http://www.w3.org/2000/svg"><title>serv_img_7-01</title><g fill-rule="nonzero" fill="none"><path d="M67.2 8.4h-7.4c-.6 0-1.1-.5-1.1-1.1v-4c0-.6.5-1.1 1.1-1.1h7.4c.6 0 1.1.5 1.1 1.1v4c0 .6-.5 1.1-1.1 1.1zM67.2 128h-7.4c-.6 0-1.1-.5-1.1-1.1v-4c0-.6.5-1.1 1.1-1.1h7.4c.6 0 1.1.5 1.1 1.1v4c0 .6-.5 1.1-1.1 1.1zM120.6 69v-7.4c0-.6.5-1.1 1.1-1.1h4c.6 0 1.1.5 1.1 1.1V69c0 .6-.5 1.1-1.1 1.1h-4c-.6 0-1.1-.5-1.1-1.1zM1.7 69v-7.4c0-.6.5-1.1 1.1-1.1h4c.6 0 1.1.5 1.1 1.1V69c0 .6-.5 1.1-1.1 1.1h-4c-.6 0-1.1-.5-1.1-1.1z" fill="#474E5B"/><path d="M78.3 130.7H49.8c-6.7 0-13.2-1.3-19.3-3.9-5.9-2.5-11.3-6.1-15.8-10.7-4.6-4.6-8.2-9.9-10.7-15.8-2.7-6.2-4-12.7-4-19.4v-31c0-6.7 1.3-13.2 3.9-19.3 2.5-5.9 6.1-11.3 10.7-15.8 4.6-4.6 9.9-8.2 15.8-10.7C36.6 1.3 43.1 0 49.8 0h28.5C85 0 91.5 1.3 97.6 3.9c5.9 2.5 11.3 6.1 15.8 10.7 4.6 4.6 8.2 9.9 10.7 15.8 2.6 6.1 3.9 12.6 3.9 19.3v31c0 6.7-1.3 13.2-3.9 19.3-2.5 5.9-6.1 11.3-10.7 15.8-4.6 4.6-9.9 8.2-15.8 10.7-6.1 2.8-12.6 4.2-19.3 4.2zM49.8 2.5C23.7 2.5 2.5 23.7 2.5 49.8v31c0 26.1 21.2 47.3 47.3 47.3h28.5c26.1 0 47.3-21.2 47.3-47.3v-31c0-26.1-21.2-47.3-47.3-47.3H49.8z" fill="#474E5B"/><path d="M64 6.1C31.3 6.1 4.8 32.6 4.8 65.3s26.5 59.2 59.2 59.2 59.2-26.5 59.2-59.2C123.3 32.6 96.7 6.1 64 6.1zm0 90.2c-17.1 0-30.9-13.9-30.9-30.9C33.1 48.3 47 34.5 64 34.5c17.1-.1 31 13.7 31 30.8s-13.9 31-31 31z" fill="#E8523F"/><g fill="#FFF"><path d="M49 38.3c-5.1 2.8-9.3 7.1-12.1 12.2l-24.6-14c5.3-9.5 13.1-17.3 22.6-22.7L49 38.3zM115.7 36.3l-24.6 14C88.2 45.2 84 41 78.8 38.1l14-24.5c9.6 5.3 17.5 13.2 22.9 22.7zM49 92.4l-14 24.5c-9.4-5.3-17.3-13.2-22.6-22.6l24.6-14c2.7 5 6.9 9.3 12 12.1zM115.6 94.4c-5.4 9.5-13.3 17.3-22.8 22.6l-14-24.5c5.1-2.8 9.4-7 12.3-12.1l24.5 14z"/></g><path d="M64 21.5c-24.2 0-43.8 19.6-43.8 43.8 0 24.2 19.6 43.8 43.8 43.8 24.2 0 43.8-19.6 43.8-43.8.1-24.2-19.6-43.8-43.8-43.8zm0 74.8c-17.1 0-30.9-13.9-30.9-30.9C33.1 48.3 47 34.5 64 34.5s31 13.7 31 30.8-13.9 31-31 31z" opacity=".13" fill="#000"/></g></svg>