<svg width="204" height="31" viewBox="0 0 204 31" xmlns="http://www.w3.org/2000/svg"><title>servicenow-01</title><g fill="none" fill-rule="evenodd"><path d="M50.3 9.3c-2.2 0-4.1.8-5.6 2V9.4h-5.2v20.1h5.4V16.7c.7-1.1 2.6-2.5 4.8-2.5.8 0 1.5.1 2.1.4V9.4c-.5-.1-.9-.1-1.5-.1M3.5 23.4c1.4 1.3 3.4 2 5.5 2 1.4 0 2.6-.7 2.6-1.6 0-3.1-9.6-2-9.6-8.5 0-3.9 3.8-6.2 7.6-6.2 2.6 0 5.4.9 6.8 2L13.9 15c-1.1-.7-2.4-1.4-3.9-1.4s-2.7.6-2.7 1.6c0 2.6 9.6 1.5 9.6 8.6 0 3.9-3.8 6.2-8 6.2-2.8 0-5.6-.9-8-2.7l2.6-3.9zm33.7-4.1c0-5.6-3.9-10.2-9.4-10.2-6 0-9.8 4.9-9.8 10.5 0 6.4 4.5 10.5 10.5 10.5 3.1 0 6.2-1.3 8.2-3.6l-3.1-3.1c-.9 1.1-2.8 2.4-5.1 2.4-2.8 0-5.2-2-5.4-4.8H37c.1-.7.2-1.1.2-1.7m-13.7-2.4c.2-1.9 2.1-3.5 4.2-3.5 2.2 0 3.8 1.8 4 3.5h-8.2zm41.1 4.9l5.5-12.4h5.5l-9.2 20.1h-3.8l-9-20.1h5.6l5.4 12.4zM80.3 0c1.9 0 3.5 1.5 3.5 3.4s-1.5 3.4-3.5 3.4-3.5-1.5-3.5-3.4S78.3 0 80.3 0m-2.7 9.4H83v20.1h-5.4V9.4zm27.5 16c-2.4 3.2-5.3 4.5-9.1 4.5-6.2 0-10.7-4.7-10.7-10.5 0-5.9 4.7-10.5 10.8-10.5 3.4 0 6.6 1.6 8.5 4l-3.8 3.4c-1.1-1.4-2.7-2.4-4.6-2.4-3.1 0-5.4 2.5-5.4 5.5 0 3.2 2.2 5.5 5.5 5.5 2.2 0 3.9-1.3 4.8-2.7l4 3.2zm19.5.9c-1.9 2.4-5.2 3.6-8.2 3.6-6 0-10.5-4.1-10.5-10.5 0-5.6 3.8-10.5 9.8-10.5 5.5 0 9.4 4.7 9.4 10.2 0 .6 0 1.1-.1 1.5h-13.9c.2 2.8 2.6 4.8 5.4 4.8 2.2 0 4.1-1.3 5.1-2.4l3 3.3zm-5-9.4c-.1-1.8-1.8-3.5-4-3.5s-4 1.6-4.2 3.5h8.2zm7.6 12.6V9.4h5.2V11c1.5-1.3 3.4-2 5.6-2 2.8 0 5.3 1.3 6.9 3.3 1.3 1.5 2.1 3.6 2.1 7.1v10.2h-5.4V18.9c0-2-.5-3.1-1.2-3.8-.7-.7-1.8-1.2-3.1-1.2-2.2 0-4.1 1.4-4.8 2.5v13.1h-5.3z" fill="#284042"/><path d="M160.9 9.1c-6.4 0-11.8 5.2-11.8 11.6 0 3.4 1.4 6.5 3.6 8.7.8.8 2.1.8 3.1.1 1.3-1.1 3.1-1.6 5.1-1.6 2 0 3.6.6 5.1 1.6.9.7 2.2.6 3.1-.2 2.2-2.1 3.6-5.2 3.6-8.6-.2-6.3-5.4-11.6-11.8-11.6m-.2 17.6c-3.4 0-5.9-2.6-5.9-5.9 0-3.3 2.4-5.9 5.9-5.9 3.5 0 5.9 2.7 5.9 5.9s-2.3 5.9-5.9 5.9" fill="#82B7A2"/><path fill="#284042" d="M183.1 29.5h-4l-8-20.1h5.4l4.4 11.5 4.4-11.5h4.5l4.2 11.5 4.4-11.5h5.4l-8 20.1h-4l-4.2-11.4z"/><path d="M200.7 27.1v.4h-.7v2.1h-.5v-2.1h-.7v-.4h1.9zm1.7 1.5l.9-1.5h.4v2.5h-.5v-1.4l-.7 1.1h-.4l-.6-1.1v1.4h-.5v-2.5h.4l1 1.5z" fill="#284042" fill-rule="nonzero"/></g></svg>