<svg width="143" height="120" viewBox="0 0 143 120" xmlns="http://www.w3.org/2000/svg"><title>serv_img_6-01</title><g fill-rule="nonzero" fill="none"><path d="M125.3 51c0-4.6-2.5-8.6-6.2-10.9 1.1-1.9 1.7-4.1 1.7-6.3 0-5.9-4.1-10.9-9.7-12.3v-.8c0-7-5.7-12.6-12.6-12.6-1.6 0-3.2.3-4.6.9-1.6-5.2-6.4-9-12.1-9-4.6 0-8.7 2.5-10.9 6.2C68.7 2.5 64.7 0 60 0c-5.7 0-10.5 3.8-12.1 8.9-1.5-.6-3-.9-4.6-.9-7 0-12.6 5.7-12.6 12.6v.8c-5.5 1.3-9.7 6.3-9.7 12.3 0 2.2.6 4.4 1.7 6.3-3.7 2.2-6.2 6.3-6.2 10.9 0 3.8 1.7 7.3 4.4 9.6-.8 1.7-1.3 3.6-1.3 5.6 0 6.2 4.5 11.4 10.4 12.4v1.8c0 7 5.7 12.6 12.6 12.6 1.3 0 2.6-.2 3.9-.6 1.5 5.3 6.4 9.1 12.1 9.1 1.9 0 3.7-.4 5.4-1.2.1-.1.2-.1.3-.2.2-.1.3-.1.4-.3.3-.2.7-.5 1.3-.5 1.2 0 2.4.6 2.9 1.3v14.8c0 .9.8 1.7 1.7 1.7H70.9c.9 0 1.8-.8 1.8-1.7v-14.8c0-.7 1.6-1.3 2.8-1.3.6 0 1 .3 1.3.5.1.1.3.2.4.3.1.1.2.2.3.2 1.7.8 3.5 1.2 5.4 1.2 5.7 0 10.6-3.9 12.1-9.1 1.3.4 2.6.6 3.9.6 7 0 12.6-5.7 12.6-12.6 0-.6 0-1.2-.1-1.7 5.9-1.1 10.4-6.2 10.4-12.4 0-1.9-.4-3.8-1.3-5.6 3-2.3 4.8-5.8 4.8-9.6z" fill="#4A4F58"/><path d="M66.2 95.9c-1.3 0-2.5.5-3.5 1.3h-.1c-1.2.6-2.6.9-4 .9-5.1 0-9.3-4.2-9.3-9.3 0-5.1 4.2-9.3 9.3-9.3.9 0 1.7-.8 1.7-1.7 0-.9-.8-1.7-1.7-1.7-7 0-12.6 5.7-12.6 12.6v.1c-1.1.4-2.2.6-3.4.6-5.1 0-9.3-4.2-9.3-9.3 0-.5 0-1.1.1-1.6 6.4-.3 11.3-5.5 11.6-11.8 0-.1.1-.3.1-.4 0-3.5 2.9-6.4 6.4-6.4 3.5 0 6.4 2.9 6.4 6.4 0 .9.8 1.7 1.7 1.7.9 0 1.7-.8 1.7-1.7 0-5.4-4.4-9.8-9.8-9.8-5.2 0-9.5 4.1-9.7 9.2 0 .2-.1.3-.1.5 0 5.1-4.2 9.3-9.3 9.3h-.3c-5-.2-9-4.2-9-9.3 0-1.3.3-2.6.8-3.7 1.6.8 3.4 1.2 5.3 1.2.9 0 1.7-.8 1.7-1.7 0-.9-.8-1.7-1.7-1.7-1.9 0-3.6-.6-5-1.5 0 0-.1 0-.1-.1C21.6 57 20 54.2 20 51c0-5.1 4.2-9.3 9.3-9.3 5.1 0 9.3 4.2 9.3 9.3 0 .9.8 1.7 1.7 1.7.9 0 1.7-.8 1.7-1.7 0-7-5.7-12.6-12.6-12.6-1.2 0-2.3.2-3.3.4-.9-1.5-1.5-3.2-1.5-5 0-5.1 4.2-9.3 9.3-9.3 5.1 0 9.3 4.2 9.3 9.3v.3c.2 4.8 4.1 8.7 9 8.7.9 0 1.7-.8 1.7-1.7 0-.9-.8-1.7-1.7-1.7-3.1 0-5.6-2.5-5.6-5.6v-.2c-.1-6.7-5.5-12.2-12.3-12.4v-.5c0-5.1 4.2-9.3 9.3-9.3 1.3 0 2.6.3 3.8.8.1 0 .2.1.2.1v.3c0 7 5.7 12.6 12.6 12.6.9 0 1.7-.8 1.7-1.7 0-.9-.8-1.7-1.7-1.7-5.1 0-9.3-4.2-9.3-9.3 0-5.1 4.2-9.3 9.3-9.3 4.7 0 8.5 3.5 9.1 8.1 0 .4-.1.8-.1 1.2v83.8c-1.1-.2-2-.4-3-.4z" fill="#E8523F"/><path d="M118.7 66.2c0 5-4 9.1-9 9.3h-.3c-5.1 0-9.3-4.2-9.3-9.3 0-.2 0-.3-.1-.5-.3-5.1-4.5-9.2-9.7-9.2-5.4 0-9.8 4.4-9.8 9.8 0 .9.8 1.7 1.7 1.7.9 0 1.7-.8 1.7-1.7 0-3.5 2.9-6.4 6.4-6.4 3.5 0 6.4 2.9 6.4 6.4 0 .2 0 .3.1.4.3 6.4 5.2 11.5 11.5 12.1.1.5.1 1 .1 1.6 0 5.1-4.2 9.3-9.3 9.3-1.2 0-2.3-.2-3.4-.6V89c0-7-5.7-12.6-12.6-12.6-.9 0-1.7.8-1.7 1.7 0 .9.8 1.7 1.7 1.7 5.1 0 9.3 4.2 9.3 9.3 0 5.1-4.2 9.3-9.3 9.3-1.4 0-2.7-.3-4-.9H79c-1-.8-2.1-1.3-3.4-1.3-1 0-2.3.2-2.8.6V12.6c0-.4-.1-.8-.2-1.2.6-4.5 4.4-8.1 9.1-8.1 5.1 0 9.2 4.2 9.2 9.3 0 5.1-4.2 9.3-9.3 9.3-.9 0-1.7.8-1.7 1.7 0 .9.8 1.7 1.7 1.7 7 0 12.6-5.7 12.6-12.6v-.3c.1 0 .2 0 .2-.1 1.2-.5 2.5-.8 3.8-.8 5.1 0 9.3 4.2 9.3 9.3v.5c-6.7.2-12.1 5.7-12.3 12.4v.3c0 3.1-2.5 5.6-5.6 5.6-.9 0-1.7.8-1.7 1.7 0 .9.8 1.7 1.7 1.7 4.9 0 8.8-3.9 9-8.7V34c0-5.1 4.2-9.3 9.3-9.3 5.1 0 9.3 4.2 9.3 9.3 0 1.8-.5 3.5-1.5 5-1.1-.3-2.2-.4-3.3-.4-7 0-12.6 5.7-12.6 12.6 0 .9.8 1.7 1.7 1.7.9 0 1.7-.8 1.7-1.7 0-5.1 4.2-9.3 9.3-9.3 5.1 0 9.3 4.2 9.3 9.3 0 3.2-1.6 6-4.1 7.7 0 0-.1 0-.1.1-1.5.9-3.2 1.5-5 1.5-.9 0-1.7.8-1.7 1.7 0 .9.8 1.7 1.7 1.7 1.9 0 3.7-.4 5.3-1.2.6.9.8 2.2.8 3.5z" fill="#63AFB6"/><path d="M60 40c0 .9.8 1.7 1.7 1.7.9 0 1.7-.8 1.7-1.7 0-5-4-9-9-9-.9 0-1.7.8-1.7 1.7 0 .9.8 1.7 1.7 1.7 3.1 0 5.6 2.5 5.6 5.6zM56.5 8.8c-.9 0-1.7.8-1.6 1.8 0 .9.8 1.6 1.8 1.6 1.5-.1 2.9.4 4 1.5 1.1 1 1.8 2.4 1.8 3.9 0 .9.8 1.6 1.7 1.6h.1c.9 0 1.7-.8 1.6-1.8-.1-2.4-1.2-4.6-2.9-6.2-1.8-1.6-4.1-2.5-6.5-2.4zM77.6 19.2c1 0 1.7-.7 1.8-1.6.1-3.1 2.8-5.5 5.9-5.3.9 0 1.7-.7 1.8-1.6 0-.9-.7-1.7-1.6-1.8-2.4-.1-4.7.7-6.5 2.3-1.8 1.6-2.8 3.8-2.9 6.2-.2.9.6 1.7 1.5 1.8zM54.1 47.7c-.9.3-1.4 1.2-1.1 2.1.3.9 1.2 1.4 2.1 1.1 2.9-.9 6.1.7 7.1 3.6.2.7.9 1.2 1.6 1.2.2 0 .3 0 .5-.1.9-.3 1.4-1.2 1.1-2.1-1.5-4.7-6.5-7.3-11.3-5.8zM63.4 81.4c-.9-.1-1.8.6-1.8 1.5-.3 3.1-3 5.4-6.1 5.1-.9-.1-1.8.6-1.8 1.5-.1.9.6 1.8 1.5 1.8h.8c4.6 0 8.5-3.5 8.9-8.2.1-.8-.6-1.6-1.5-1.7zM78.5 81.4c-.9.1-1.6.9-1.5 1.8.4 4.7 4.4 8.2 8.9 8.2h.8c.9-.1 1.6-.9 1.5-1.8-.1-.9-.9-1.6-1.8-1.5-3.1.3-5.8-2-6.1-5.1-.1-1-.9-1.7-1.8-1.6zM111.1 48.8c-.9 0-1.7.7-1.7 1.7 0 1.5-.6 2.9-1.7 3.9s-2.5 1.6-4 1.6c-.9 0-1.7.7-1.7 1.7 0 .9.7 1.7 1.7 1.7h.2c2.3 0 4.5-.9 6.2-2.5 1.7-1.7 2.7-3.9 2.8-6.3-.1-1-.8-1.8-1.8-1.8zM38 56c-1.5 0-2.9-.5-4-1.6-1.1-1-1.7-2.4-1.7-3.9 0-.9-.8-1.7-1.7-1.7-.9 0-1.7.8-1.7 1.7 0 2.4 1 4.6 2.8 6.3 1.7 1.6 3.9 2.5 6.2 2.5h.2c.9 0 1.7-.8 1.7-1.7-.1-.9-.9-1.6-1.8-1.6zM87.6 47.7c-4.7-1.5-9.8 1.1-11.3 5.8-.3.9.2 1.8 1.1 2.1.2.1.3.1.5.1.7 0 1.4-.5 1.6-1.2.9-2.9 4.1-4.6 7.1-3.6.9.3 1.8-.2 2.1-1.1.3-.9-.2-1.8-1.1-2.1zM80.2 41.7c.9 0 1.7-.8 1.7-1.7 0-3.1 2.5-5.6 5.6-5.6.9 0 1.7-.8 1.7-1.7 0-.9-.8-1.7-1.7-1.7-5 0-9 4-9 9 0 1 .8 1.7 1.7 1.7z" fill="#4A4F58"/><path d="M18.9 76.1h-10c-4.8 0-8.8-4-8.8-8.8V48.2c0-4.8 4-8.8 8.8-8.8h10v36.7zM124 76.1h10c4.8 0 8.8-4 8.8-8.8V48.2c0-4.8-4-8.8-8.8-8.8h-10v36.7z" fill="#474E5B"/><path d="M85.1 112.9l-.2-4.7c16.2-.7 27.5-6.9 33.6-18.5 4.5-8.7 4.3-17.2 4.3-17.2l4.7-.2c0 .4.3 9.8-4.8 19.6-4.8 9-15.1 20-37.6 21z" fill="#4A4F58"/><path d="M79.3 119.7h-11c-3.9 0-7.1-3.2-7.1-7.1v-2.4c0-3.9 3.2-7.1 7.1-7.1h11c3.9 0 7.1 3.2 7.1 7.1v2.4c0 3.8-3.2 7.1-7.1 7.1z" fill="#E8523F"/></g></svg>