<svg width="212" height="124" viewBox="0 0 212 124" xmlns="http://www.w3.org/2000/svg"><title>serv_img_2-01</title><g fill-rule="nonzero" fill="none"><path d="M170.3 46.6h-2.1c0-25.7-22.6-46.6-50.4-46.6C95 0 75.7 13.9 69.5 33.1c-5.9-2.2-12.3-3.4-19-3.4C22.6 29.6 0 50.6 0 76.4c0 25.7 22.6 46.7 50.4 46.7h119.9c22.8 0 41.3-17.2 41.3-38.3 0-21.1-18.5-38.2-41.3-38.2z" fill="#F1F2F1"/><path d="M211.6 84.9c0 21.1-18.5 38.3-41.3 38.3h-1.9c5.6-6.5 9-14.8 9-23.8 0-21.1-18.3-38.3-41.1-38.3h-1.9c0-25.7-22.8-46.6-50.7-46.6h-2.4C90.5 5.6 103.2 0 117.6 0c27.9 0 50.2 20.9 50.2 46.6h2.3c22.8 0 41.5 17.2 41.5 38.3z" fill="#DBE5E6"/><g><path d="M72.9 73.4h-6.1c-3 0-5.4-2.4-5.4-5.4V56.4c0-3 2.4-5.4 5.4-5.4h6.1v22.4zM137 73.4h6.1c3 0 5.4-2.4 5.4-5.4V56.4c0-3-2.4-5.4-5.4-5.4H137v22.4zM129.1 101.7c26.8-.1 27.2 21.4 27.2 21.4h-101s.5-21.3 27.2-21.2l46.6-.2z" fill="#474E5B"/><path fill="#F7C012" d="M121.9 102.1l-16.6 10.2-16.6-10.2V79.7h33.2zM137.7 73.3V46.9c0-17.6-14.4-31.9-31.9-31.9h-.9C87.3 15 73 29.4 73 46.9v26.4h64.7z"/><path d="M131.3 61.7c0 14.4-11.6 26-26 26s-26-11.6-26-26c0-10.7 6.5-19.9 15.7-23.9 5.1 7.9 15.6 18.9 36.3 22.7v1.2z" fill="#FFF"/><path d="M113.3 95.8l-.1-2.9c9.9-.4 16.8-4.2 20.4-11.3 2.8-5.3 2.6-10.5 2.6-10.5l2.9-.1c0 .2.2 6-2.9 11.9-2.9 5.5-9.2 12.2-22.9 12.9z" fill="#4A4F58"/><path d="M109.7 99.9H103c-2.4 0-4.4-2-4.4-4.4V94c0-2.4 2-4.4 4.4-4.4h6.7c2.4 0 4.4 2 4.4 4.4v1.5c0 2.4-2 4.4-4.4 4.4z" fill="#474E5B"/><path fill="#FFF" d="M81.798 100.6l5.87-5.868 17.606 17.607-5.869 5.869z"/><path fill="#FFF" d="M111.105 118.199l-5.869-5.869 17.607-17.607 5.87 5.87z"/></g></g></svg>