<svg width="150" height="128" viewBox="0 0 150 128" xmlns="http://www.w3.org/2000/svg"><title>serv_img_4-01</title><g fill-rule="nonzero" fill="none"><path d="M149.9 76.3v1.1c-.3 3.7-3.3 7.1-6 9.6-2.9 2.7-8.5 4.4-12.4 4.6H22.9c-6.5-.1-10.7-2.2-15-5.7C6 84.4 5 82.7 3.6 80.7c-.5-.7-.6-1.4-1-2.2-.2-.3-.1-.6-.3-.9-1.4-2.9-2-6.1-2.2-9.5-1.2-18.3 12.2-24.3 22.6-27.3C19.1 17.9 40 0 63.2 0 73.7 0 83 4 89.8 10.5c6.6 6.3 10.8 15 11.4 24.5.1 0 .5-.1 1.2-.3 1.9-.5 7.2-2.3 15.5.1 10.1 2.8 16.5 11.8 17.6 22.3.3 2.4.3 2.7.2 4.2 4.3.7 8.3 3 10.7 6h.2c2 2.5 3.3 5.6 3.3 9z" fill="#F7C012"/><path d="M87.4 37.2c-.9 0-1.7-.7-1.8-1.7-.3-5.5-2.7-10.6-6.7-14.4-4.2-4-9.7-6.2-15.7-6.2-8.8 0-17.3 4.4-21.5 11.2-.5.8-1.6 1.1-2.5.6-.8-.5-1.1-1.6-.6-2.5 4.9-7.8 14.5-12.9 24.5-12.9 6.9 0 13.3 2.6 18.2 7.2 4.7 4.5 7.4 10.4 7.8 16.8.1 1-.7 1.8-1.7 1.9.1 0 0 0 0 0z" fill="#FFF"/><path d="M87.8 49L56.5 61.7v31.4s1.8 21.9 31.3 34c29.5-12.1 31.3-34 31.3-34V61.7L87.8 49z" fill="#E8523F"/><path d="M87.8 121c-.7 0-1.4-.4-1.7-1.1-.4-.9.1-2 1-2.4 21.6-8.9 23.7-24.2 23.8-25.5V68.3l-23.8-9.6c-.9-.4-1.4-1.4-1-2.3.4-.9 1.4-1.4 2.3-1l24.9 10.1c.7.3 1.1.9 1.1 1.7v25.2c-.1.8-1.8 18.6-26 28.6-.1-.1-.3 0-.6 0z" fill="#FFF"/><g><path d="M80.9 95.1c-4.6-1-8.9-3-12.6-5.8-4-3-7.9-6-11.4-9.5-4.2-4.1-8.1-8.5-11.8-13.1-3.8-4.7-6.7-9.9-7.8-16-.2-1.3 0-2.6.7-3.7 2.2-3.7 5.4-6.3 9.3-8.3.5-.2 1-.3 1.5-.2 1.5.4 2.4 1.3 3.1 2.5 2.1 3.2 4.1 6.4 6.3 9.5 1.3 1.8 1.2 3.6.3 5.4-.7 1.4-1.5 2.8-2.3 4.2-.4.6-.4 1.1.1 1.7 4.3 5.4 9.1 10.2 14.5 14.5.6.4 1 .5 1.6.1 1.4-.8 2.8-1.6 4.2-2.3 1.9-1 3.7-1.1 5.5.2 3.2 2.2 6.4 4.3 9.6 6.4l.1.1c1.9 1.3 2.5 3.8 1.3 5.8-1.7 2.9-3.9 5.5-6.7 7.4-1.7 1.1-3.6 1.5-5.5 1.1z" fill="#474E5B"/><g fill="#FFF"><path d="M44.7 40c.4.6 12.4 18.5 12.4 18.5M56.4 59c-4.8-7.2-12-18-12.4-18.5l1.4-1.1c.4.6 11.2 16.7 12.4 18.6l-1.4 1z"/></g><g fill="#FFF"><path d="M73.4 75.7c.7.4 18.4 12.3 18.4 12.3M91.3 88.8c-4.9-3.3-17.8-12-18.3-12.3l.9-1.5c.7.4 17.7 11.8 18.4 12.3l-1 1.5z"/></g><path d="M68.3 65l3-5.1c-3-3.1-4.8-7.4-4.7-12.1.1-9.1 7.5-16.7 16.7-17 10-.3 18.1 7.8 17.8 17.8-.3 9.2-7.9 16.6-17.1 16.7-2.6 0-5-.5-7.2-1.5l-7 3c-1 .5-2.1-.8-1.5-1.8z" fill="#FFF"/><path d="M73.5 49.2c-.5-1.3 0-2.7 1.3-3.3 1.3-.5 2.7 0 3.3 1.3.5 1.3 0 2.7-1.3 3.3-1.2.6-2.7 0-3.3-1.3zM81.1 49.2c-.5-1.3 0-2.7 1.3-3.3 1.3-.5 2.7 0 3.3 1.3.5 1.3 0 2.7-1.3 3.3-1.3.6-2.8 0-3.3-1.3zM88.7 49.2c-.5-1.3 0-2.7 1.3-3.3 1.3-.5 2.7 0 3.3 1.3.5 1.3 0 2.7-1.3 3.3-1.3.6-2.8 0-3.3-1.3z" fill="#F7C012"/></g></g></svg>