<svg width="131" height="125" viewBox="0 0 131 125" xmlns="http://www.w3.org/2000/svg"><title>serv_img_3-01</title><g transform="translate(0 -1)" fill-rule="nonzero" fill="none"><path d="M125.8 104.8c-33.5 27.3-88.4 11.5-105.5-16.9.5-.1.9-.1 1.3-.3.8-.4 1.9-.9 2.8-1.7 3.2-2.4 2.7-4.8 1.8-6.3-.6-.9-1.4-1.7-2.3-2.2-5.6-3.1-17.4-9-20.7-6.4-4 3.2-3.2 14.6-3 21.1.1 3.1 1.4 5.7 4.6 5.7 1.8 0 3.6-1.8 5.8-3.1 4.3 3.8 5.6 6.5 10.5 11 19.4 17.9 41.2 21.7 66.4 18.5 10.2-1.3 20.6-4.8 29.1-11.5 3.3-2.5 6.2-5.3 9.2-7.9zM4.4 21.4C37.9-5.9 92.8 9.9 109.9 38.3c-.5.1-.9.1-1.3.3-.8.4-1.9.9-2.8 1.7-3.2 2.4-2.7 4.8-1.8 6.3.6.9 1.4 1.7 2.3 2.2 5.7 3.1 17.5 9.1 20.8 6.5 4-3.2 3.2-14.6 3-21.1-.1-3.1-3.1-5.9-6.4-5.8-1.8 0-1.8 2-4.1 3.2-4.3-3.8-5.6-6.5-10.5-11C89.7 2.6 67.9-1.2 42.7 2 32.4 3.4 22.1 6.9 13.6 13.6c-3.2 2.4-6.1 5.2-9.2 7.8z" fill="#474E5B"/><circle fill="#F7C012" cx="33.5" cy="62.1" r="6.3"/><circle fill="#F7C012" cx="63.9" cy="62.1" r="6.3"/><circle fill="#F7C012" cx="94.3" cy="62.1" r="6.3"/></g></svg>