<svg width="109" height="136" viewBox="0 0 109 136" xmlns="http://www.w3.org/2000/svg"><title>serv_img_5-01</title><g fill-rule="nonzero" fill="none"><path d="M60.9 79.8l-7.2 13.4-1.8 3.4-1 1.8-3.9 7.3-1.5 2.9L32 134c-.7 1.3-1.8 1.3-2.5 0l-5.2-10c-.7-1.3-2.4-2.4-3.9-2.4l-12.1-.2c-1.5 0-2-1.1-1.3-2.3l14-22.9 1-1.7 4.9-8 .8-1.4 10.9-17.8L54.1 76l6.8 3.8z" fill="#E8523F"/><path d="M98.1 122.9l-12.1-.2c-1.5 0-3.2 1-4 2.3l-5.5 9.8c-.7 1.3-1.8 1.2-2.5-.1L61.5 109l-1.5-3-3.3-6.7-1-2-2-4L47 79.6l7-3.6 15.7-8.1 11.1 19.8.8 1.4 3.6 6.4 1 1.8 13.2 23.4c.8 1.2.2 2.3-1.3 2.2z" fill="#E8523F"/><path d="M101.7 68c-.4 1.5-.4 3.3-.2 5.1.2 2.4.7 4.9.3 7.1-.1.8-.4 1.6-.8 2.3-2.3 3.9-9.2 4.2-12.4 7.4-1.4 1.4-2.4 3.5-3.3 5.6-1.2 2.7-2.3 5.3-4.5 6.5-3.9 2.2-10-.9-14.5.2-2.2.5-4.2 2.2-6.3 3.7-2.1 1.5-4.2 2.9-6.5 2.9s-4.4-1.5-6.4-3c-2.1-1.6-4.1-3.4-6.3-4-4.4-1.3-10.6 1.6-14.4-.7-2.1-1.3-3.2-3.9-4.3-6.6-.9-2.2-1.7-4.4-3.1-5.9-3.1-3.2-10-3.8-12.2-7.8-.3-.6-.5-1.2-.6-1.8-.5-2.4.2-5.3.5-8.1.2-1.6.3-3.2-.1-4.6-.9-3.6-5-7-6.3-10.7-.2-.7-.3-1.4-.3-2.2.1-4.6 5.9-8.4 7.1-12.6.1-.3.2-.6.2-.9.3-2.2-.1-4.7-.3-7.1-.2-2.4-.3-4.7.8-6.4 2.3-3.9 9.2-4.2 12.4-7.4C23.4 15.9 24 9 28 6.8c3.9-2.2 10 .9 14.5-.2C46.8 5.5 50.7-.1 55.4 0 60 .1 63.7 5.8 68 7.1c4.4 1.3 10.6-1.6 14.4.7 3.9 2.3 4.2 9.2 7.4 12.4 3.1 3.3 10 3.8 12.2 7.8.9 1.7.9 3.8.6 5.9-.3 2.7-1 5.6-.5 8.1 0 .1.1.3.1.4 1.1 4.3 6.7 8.2 6.6 12.9 0 .7-.1 1.3-.4 1.9-1.3 3.9-5.6 7.1-6.7 10.8z" fill="#F7C012"/><path d="M96.4 55.1v-.2-.1c0-.1 0-.2-.1-.2v-.2c0-.1-.1-.2-.1-.3-.9-2.9-4.2-5.5-4.9-8.3-.9-3.4 1.5-8.2-.1-11.2-1.7-3.1-7-3.5-9.4-6-2.4-2.5-2.7-7.8-5.7-9.6-3-1.8-7.8.4-11.2-.5-3.3-.9-6.2-5.4-9.8-5.5-3.6-.1-6.6 4.3-9.9 5.1-3.4.9-8.2-1.5-11.2.1-3.1 1.7-3.5 7-6 9.4-2.5 2.4-7.8 2.7-9.6 5.7-.3.6-.5 1.2-.6 1.8v1.8c0 .5.1 1 .1 1.5v.5c.1.5.1 1.1.2 1.6 0 .3.1.7.1 1v.4c0 .9 0 1.7-.3 2.5 0 .1-.1.2-.1.3 0 .1-.1.2-.1.3 0 .1-.1.2-.1.3 0 .1-.1.2-.1.3 0 .1-.1.2-.1.3-.1.2-.2.3-.3.5-.8 1.3-2 2.6-2.9 3.9-.1.1-.1.2-.2.3-.4.6-.8 1.2-1.1 1.8 0 .1-.1.2-.1.3 0 .1 0 .1-.1.2 0 .1 0 .1-.1.2V53.4c0 .1 0 .2-.1.3v.7c-.1 3.6 4.3 6.6 5.1 9.9 0 .1.1.2.1.3v.1c0 .1 0 .2.1.3v2.1c0 .2 0 .4-.1.6 0 .2 0 .4-.1.6v.1l-.3 2.1v.3c0 .3-.1.6-.1.9v1.6c.1.7.2 1.4.6 2 .2.3.4.6.6.8.4.5 1 .9 1.6 1.3.2.1.3.2.5.3.2.1.5.3.8.4.2.1.4.2.7.3.5.2.9.4 1.4.6.3.1.7.3 1 .5.3.2.7.3 1 .5.7.4 1.4.9 1.9 1.4 2.4 2.5 2.7 7.8 5.7 9.6 3 1.8 7.8-.4 11.2.5 1 .3 1.9.9 2.8 1.5l.3.3c.1.1.3.2.4.3.3.2.6.5.9.7.2.2.4.3.6.5.5.4 1 .7 1.5 1.1 1 .6 2.1 1.1 3.2 1.1 3.6.1 6.6-4.3 9.9-5.1 1.3-.3 2.7-.2 4.2 0 .3 0 .5.1.8.1.2 0 .4.1.5.1 1.8.3 3.5.5 5-.1l.6-.3c.1-.1.2-.1.3-.2.2-.1.4-.2.5-.4 2.4-2.1 3-6.6 5.2-8.8 1.6-1.6 4.5-2.3 6.8-3.4.1-.1.2-.1.3-.2.6-.3 1.2-.7 1.7-1.2.3-.3.6-.6.8-1 .1-.1.1-.2.2-.3.1-.1.1-.2.2-.4.3-.8.4-1.8.4-2.8v-.4-.4-.4-.3-.1-.4-.4-.2c0-.3-.1-.6-.1-.9v-.2c-.1-.5-.1-1-.1-1.5V67v-.3-.5-.3-.3-.2c0-.1 0-.2.1-.3.3-.9.8-1.8 1.5-2.7.1-.2.3-.4.4-.6.1-.1.2-.2.2-.3.2-.3.5-.6.7-.9.2-.2.3-.4.5-.6.4-.5.7-1 1.1-1.5.2-.3.4-.6.5-.9l.3-.6c.2-.5.3-1.1.3-1.6-.3.1-.3-.1-.3-.3z" fill="#63AFB6"/><path d="M87.4 42.8l-13.8-2.1c-3.5-.5-7.7-3.6-9.3-6.9l-6.1-12.6c-1.6-3.2-4.2-3.3-5.8-.1l-6.3 12.5c-1.6 3.2-5.8 6.2-9.4 6.7l-13.9 1.9c-3.6.5-4.4 2.9-1.8 5.5l9.9 9.9c2.5 2.5 4.1 7.5 3.5 11l-2.5 13.8c-.6 3.5 1.5 5.1 4.6 3.4L49 79.3c3.2-1.6 8.4-1.6 11.5.1L72.8 86c3.2 1.7 5.3.2 4.7-3.4l-2.2-13.8c-.6-3.5 1.1-8.5 3.7-10.9l10.1-9.7c2.6-2.4 1.8-4.9-1.7-5.4z" fill="#FFF"/><g><path d="M73.5 55.3c-.2.1-.4.2-.7.3-.3.1-.3.5-.1.7.4.3.6.8.7 1.3.2.9-.2 1.6-.8 2.2l-.9.6c-.3.1-.4.6-.1.8.6.6.8 1.3.5 2.2-.3.7-.7 1.2-1.4 1.6-.1 0-.2.1-.3.1-.2.1-.3.2-.3.4s0 .3.2.4c.4.3.6.7.7 1.1 0 .4 0 .7-.2 1-.2.5-.6.9-1 1.2-.2.2-.7.4-1.1.6-.2.1-.9.2-1.1.3-9.6 1.9-16.3-.6-17.1-.9-.2-.1-.8-.5-.9-.5 0 0-.2 0-.2-.1V54.4c.4-.3.7-.5 1.1-.8l.1-.1c1.9-2.4 3.1-4.9 4.5-7.6.9-1.8 1.2-5.7 1.2-7.1 0-.6.4-1.5 1.6-1.5.3 0 .9 0 1.2.2.4.2.8.7 1.2 1.4.5 1 .8 2 1.1 3.1l.3 1.2v.9c0 .3 0 .7-.1 1-.1.7-.2 1.3-.3 2-.1.7-.3 1.4-.4 2.2v.2c-.2.9.7 1.5 1.3 1.7.1.1.8.1.9.1h10c.7 0 1.4.5 1.6 1.4.2 1-.3 2-1.2 2.6z" fill="#F8D96F"/><path d="M41 71.5h6.8c.8 0 1.5-.7 1.5-1.5V53.7c0-.8-.7-1.5-1.5-1.5H41c-.8 0-1.5.7-1.5 1.5V70c0 .9.7 1.5 1.5 1.5z" fill="#E8523F"/></g></g></svg>