<svg width="82" height="82" viewBox="0 0 82 82" xmlns="http://www.w3.org/2000/svg"><title>skills_based_routing</title><g fill-rule="nonzero" fill="none"><circle fill="#F7C012" cx="41" cy="41" r="41"/><g fill="#474E5B"><path d="M47.4 12.2v.6c0 .2 0 .3-.1.5 0 .2-.1.3-.1.5l-.3.9s0 .1-.1.1c-.1.1-.1.3-.2.4 0 0 0 .1-.1.1-.3.5-.6.9-1 1.3l-.1.1-.2.2-.1.1c-.1.1-.2.2-.3.2-.1.1-.3.2-.4.3-.1.1-.3.1-.4.2l-.9.3c-.1 0-.1 0-.2.1-.3.1-.6.1-.9.1h-1c-.3 0-.6-.1-.9-.1-.1 0-.1 0-.2-.1l-.9-.3c-.1-.1-.3-.1-.4-.2-.2-.1-.3-.2-.5-.3-.1-.1-.2-.2-.3-.2l-.1-.1-.2-.2-.2-.2c-.4-.4-.7-.8-.9-1.2 0 0 0-.1-.1-.1-.1-.1-.1-.3-.2-.4 0 0 0-.1-.1-.1l-.3-.9c0-.2-.1-.3-.1-.5s0-.3-.1-.5v-.3-.3-.3-.2-.1-.1-.3c0-.2.1-.3.1-.5l.3-.9v-.1-.1c.1-.1.1-.3.2-.4 0 0 0-.1.1-.1.3-.5.6-.9 1-1.3l.1-.1.2-.2.1-.1c.1-.1.2-.2.3-.2.3-.2.6-.3.9-.5l.9-.3c.1 0 .1 0 .2-.1.3-.1.6-.1.9-.1h1c.3 0 .6.1.9.1.1 0 .1 0 .2.1l.9.3c.3.1.6.3.9.5.1.1.2.2.3.2l.1.1.2.2.1.1c.4.4.8.8 1 1.3 0 0 0 .1.1.1.1.1.1.3.2.4 0 0 0 .1.1.1l.3.9c0 .2.1.3.1.5s0 .3.1.5V11.9c0 .1.1.2.1.3zM51.4 24.2v6.3c0 .1 0 .2-.1.2h-20c-.1 0-.2 0-.2-.2v-6.3-.3c.1-1.5.7-2.9 1.6-3.9l.1-.1c.5-.5 1-.9 1.6-1.2 0 0 .1 0 .1-.1.2-.1.3-.1.5-.2h.1c.2-.1.3-.1.5-.1.2.2.4.4.6.5.6.4 1.2.8 1.8 1.1.1.1.2.1.4.2.5.2 1 .3 1.4.4.5.1 1 .1 1.5.1.6 0 1.1-.1 1.7-.2h.5c.3 0 .5-.2.8-.3.1 0 .2-.1.3-.2.5-.2 1-.5 1.4-.9 0 0 .1 0 .1-.1.3-.2.6-.4.8-.7 2.5.6 4.4 2.9 4.5 5.7v.3z"/></g><g fill="#FFF"><path d="M27.9 42.9v.6c0 .2 0 .3-.1.5 0 .2-.1.3-.1.5l-.3.9s0 .1-.1.1c-.1.1-.1.3-.2.4 0 0 0 .1-.1.1-.3.5-.6.9-1 1.3l-.1.1-.2.2-.1.1c-.1.1-.2.2-.3.2-.1.1-.3.2-.4.3-.1.1-.3.1-.4.2l-.9.3c-.1 0-.1 0-.2.1-.3.1-.6.1-.9.1h-1c-.3 0-.6-.1-.9-.1-.1 0-.1 0-.2-.1l-.9-.3c-.1-.1-.3-.1-.4-.2-.2-.1-.3-.2-.5-.3-.1-.1-.2-.2-.3-.2l-.1-.1-.2-.2-.2-.2c-.4-.4-.7-.8-.9-1.2 0 0 0-.1-.1-.1-.1-.1-.1-.3-.2-.4 0 0 0-.1-.1-.1l-.3-.9c0-.2-.1-.3-.1-.5s0-.3-.1-.5v-.3-.3-.3-.2-.1-.1-.3c0-.2.1-.3.1-.5l.3-.9v-.1-.1c.1-.1.1-.3.2-.4 0 0 0-.1.1-.1.3-.5.6-.9 1-1.3l.1-.1.2-.2.1-.1c.1-.1.2-.2.3-.2.3-.2.6-.3.9-.5l.9-.3c.1 0 .1 0 .2-.1.3-.1.6-.1.9-.1h1c.3 0 .6.1.9.1.1 0 .1 0 .2.1l.9.3c.3.1.6.3.9.5.1.1.2.2.3.2l.1.1.2.2.1.1c.4.4.8.8 1 1.3 0 0 0 .1.1.1.1.1.1.3.2.4 0 0 0 .1.1.1l.3.9c0 .2.1.3.1.5s0 .3.1.5V42.6c.1.1.1.2.1.3zM31.9 54.9v6.3c0 .1 0 .2-.1.2h-20c-.1 0-.2 0-.2-.2v-6.3-.3c.1-1.5.7-2.9 1.6-3.9l.1-.1c.5-.5 1-.9 1.6-1.2 0 0 .1 0 .1-.1.2-.1.3-.1.5-.2h.1c.2-.1.3-.1.5-.1.2.2.4.4.6.5.6.4 1.2.8 1.8 1.1.1.1.2.1.4.2.5.2 1 .3 1.4.4.5.1 1 .1 1.5.1.6 0 1.1-.1 1.7-.2h.5c.3 0 .5-.2.8-.3.1 0 .2-.1.3-.2.5-.2 1-.5 1.4-.9 0 0 .1 0 .1-.1.3-.2.6-.4.8-.7 2.5.6 4.4 2.9 4.5 5.7v.3z"/></g><g fill="#63AFB6"><path d="M65.8 42.9v.6c0 .2 0 .3-.1.5 0 .2-.1.3-.1.5l-.3.9s0 .1-.1.1c-.1.1-.1.3-.2.4 0 0 0 .1-.1.1-.3.5-.6.9-1 1.3l-.1.1-.2.2-.1.1c-.1.1-.2.2-.3.2-.1.1-.3.2-.4.3-.1.1-.3.1-.4.2l-.9.3c-.1 0-.1 0-.2.1-.3.1-.6.1-.9.1h-1c-.3 0-.6-.1-.9-.1-.1 0-.1 0-.2-.1l-.9-.3c-.1-.1-.3-.1-.4-.2-.2-.1-.3-.2-.5-.3-.1-.1-.2-.2-.3-.2l-.1-.1-.2-.2-.2-.2c-.4-.4-.7-.8-.9-1.2 0 0 0-.1-.1-.1-.1-.1-.1-.3-.2-.4 0 0 0-.1-.1-.1l-.3-.9c0-.2-.1-.3-.1-.5s0-.3-.1-.5v-.3-.3-.3-.2-.1-.1-.3c0-.2.1-.3.1-.5l.3-.9v-.1-.1c.1-.1.1-.3.2-.4 0 0 0-.1.1-.1.3-.5.6-.9 1-1.3l.1-.1.2-.2.1-.1c.1-.1.2-.2.3-.2.3-.2.6-.3.9-.5l.9-.3c.1 0 .1 0 .2-.1.3-.1.6-.1.9-.1h1c.3 0 .6.1.9.1.1 0 .1 0 .2.1l.9.3c.3.1.6.3.9.5.1.1.2.2.3.2l.1.1.2.2.1.1c.4.4.8.8 1 1.3 0 0 0 .1.1.1.1.1.1.3.2.4 0 0 0 .1.1.1l.3.9c0 .2.1.3.1.5s0 .3.1.5V42.6c.1.1.1.2.1.3zM69.8 54.9v6.3c0 .1 0 .2-.1.2h-20c-.1 0-.2 0-.2-.2v-6.3-.3c.1-1.5.7-2.9 1.6-3.9l.1-.1c.5-.5 1-.9 1.6-1.2 0 0 .1 0 .1-.1.2-.1.3-.1.5-.2h.1c.2-.1.3-.1.5-.1.2.2.4.4.6.5.6.4 1.2.8 1.8 1.1.1.1.2.1.4.2.5.2 1 .3 1.4.4.5.1 1 .1 1.5.1.6 0 1.1-.1 1.7-.2h.5c.3 0 .5-.2.8-.3.1 0 .2-.1.3-.2.5-.2 1-.5 1.4-.9 0 0 .1 0 .1-.1.3-.2.6-.4.8-.7 2.5.6 4.4 2.9 4.5 5.7.1.1 0 .2 0 .3z"/></g><path d="M48.1 45.8l-6-4.8v-7.7c0-.6-.5-1-1-1h-.4c-.6 0-1 .4-1 1v7.4l-6.5 5.1c-.5.4-.5 1-.2 1.5l.2.2c.4.5 1 .5 1.5.2l5.9-4.7 5.9 4.7c.5.4 1.1.3 1.5-.2l.2-.2c.5-.5.4-1.2-.1-1.5z" fill="#FFF"/></g></svg>