<svg width="82" height="82" viewBox="0 0 82 82" xmlns="http://www.w3.org/2000/svg"><title>speech_analytics</title><g fill-rule="nonzero" fill="none"><circle fill="#63AFB6" cx="41" cy="41" r="41"/><g fill="#FFF"><path d="M57.8 23.8c-.4 0-.7-.3-.7-.7v-.4c0-.5.2-1 .4-1.3l2.1-2.8c.1-.1.2-.3.2-.5v-3.8c0-.4.3-.7.7-.7.4 0 .7.3.7.7V18c0 .5-.2 1-.4 1.3l-2.1 2.8c-.1.1-.2.3-.2.5v.4c.1.5-.3.8-.7.8zM54.1 23.8c-.4 0-.7-.3-.7-.7V20c0-.4.3-.7.7-.7.4 0 .7.3.7.7v3.1c.1.4-.3.7-.7.7zM50.5 23.8c-.4 0-.7-.3-.7-.7v-5.9c0-.7.4-1.4 1-1.9l1.5-1.1c.3-.2.8-.2 1 .2.2.3.2.8-.2 1l-1.5 1.1c-.2.2-.3.4-.3.7v5.9c0 .4-.3.7-.8.7zM43.4 23.8c-.4 0-.7-.3-.7-.7v-5.9c0-.7.3-1.4.9-1.8l2.6-2c.3-.3.8-.2 1 .1.3.3.2.8-.1 1l-2.6 2c-.2.2-.3.4-.3.6V23c-.1.5-.4.8-.8.8zM39.8 23.8c-.4 0-.7-.3-.7-.7v-6.7c0-.4.3-.7.7-.7.4 0 .7.3.7.7v6.7c0 .4-.3.7-.7.7zM36.2 23.8c-.4 0-.7-.3-.7-.7V8.8c0-.7.4-1.4 1-1.9l2.4-1.7c.3-.2.8-.2 1 .2.2.3.2.8-.2 1l-2.4 1.7c-.2.2-.3.5-.3.7V23c0 .5-.4.8-.8.8zM32.6 23.8c-.4 0-.7-.3-.7-.7v-6.3c0-.3-.1-.5-.3-.7l-2.8-1.9c-.3-.2-.4-.7-.2-1 .2-.3.7-.4 1-.2l2.8 1.9c.6.4 1 1.1 1 1.9v6.3c-.1.4-.4.7-.8.7zM29 23.8c-.4 0-.7-.3-.7-.7v-2.7c0-.4.3-.7.7-.7.4 0 .7.3.7.7v2.7c.1.4-.3.7-.7.7zM25.5 23.8c-.4 0-.7-.3-.7-.7v-2.2c0-.3-.2-.6-.5-.7L21 18.5c-.1-.1-.2-.1-.4-.1h-3.5c-.4 0-.7-.3-.7-.7 0-.4.3-.7.7-.7h3.5c.3 0 .7.1 1 .2l3.3 1.6c.8.4 1.3 1.2 1.3 2.1v2.2c0 .4-.3.7-.7.7z"/><g><path d="M68.1 60.5h-3.8c-.5 0-1-.2-1.3-.4L60.2 58c-.1-.1-.3-.2-.5-.2h-.4c-.4 0-.7-.3-.7-.7 0-.4.3-.7.7-.7h.4c.5 0 1 .2 1.3.4l2.8 2.1c.2.1.4.1.6.1h3.8c.4 0 .7.3.7.7 0 .5-.4.8-.8.8zM62.4 54.2h-3.1c-.4 0-.7-.3-.7-.7 0-.4.3-.7.7-.7h3.1c.4 0 .7.3.7.7 0 .3-.3.7-.7.7zM67.5 52.8c-.2 0-.5-.1-.6-.3L65.8 51c-.2-.2-.4-.3-.7-.3h-5.9c-.4 0-.7-.3-.7-.7 0-.4.3-.7.7-.7h5.9c.7 0 1.4.4 1.9 1l1.1 1.5c.2.3.2.8-.2 1-.1-.1-.3 0-.4 0zM68.4 46.6c-.2 0-.4-.1-.6-.3l-2-2.6c-.2-.2-.4-.3-.6-.3h-5.9c-.4 0-.7-.3-.7-.7 0-.4.3-.7.7-.7h5.9c.7 0 1.4.3 1.8.9l2 2.6c.3.3.2.8-.1 1-.2.1-.3.1-.5.1zM65.9 39.8h-6.7c-.4 0-.7-.3-.7-.7 0-.4.3-.7.7-.7h6.7c.4 0 .7.3.7.7.1.4-.3.7-.7.7zM76.5 39.3c-.2 0-.5-.1-.6-.3l-1.7-2.4c-.2-.2-.4-.3-.7-.3H59.3c-.4 0-.7-.3-.7-.7 0-.4.3-.7.7-.7h14.2c.7 0 1.4.4 1.9 1l1.7 2.4c.2.3.2.8-.2 1h-.4zM65.6 32.6h-6.3c-.4 0-.7-.3-.7-.7 0-.4.3-.7.7-.7h6.3c.3 0 .5-.1.7-.3l1.9-2.8c.2-.3.7-.4 1-.2.3.2.4.7.2 1l-1.9 2.8c-.5.6-1.2.9-1.9.9zM62 29.1h-2.7c-.4 0-.7-.3-.7-.7 0-.4.3-.7.7-.7H62c.4 0 .7.3.7.7 0 .4-.3.7-.7.7zM61.4 25.5h-2.2c-.4 0-.7-.3-.7-.7 0-.4.3-.7.7-.7h2.2c.3 0 .6-.2.7-.5l1.6-3.3c.1-.1.1-.2.1-.4v-3.5c0-.4.3-.7.7-.7.4 0 .7.3.7.7v3.5c0 .3-.1.7-.2 1l-1.6 3.3c-.3.8-1.1 1.3-2 1.3z"/></g><g><path d="M22.7 26.1h-.4c-.5 0-1-.2-1.3-.4l-2.8-2.1c-.1-.1-.3-.2-.5-.2h-3.8c-.4 0-.7-.3-.7-.7 0-.4.3-.7.7-.7h3.8c.5 0 1 .2 1.3.4l2.8 2.1c.1.1.3.2.5.2h.4c.4 0 .7.3.7.7 0 .4-.3.7-.7.7zM22.7 29.8h-3.1c-.4 0-.7-.3-.7-.7 0-.4.3-.7.7-.7h3.1c.4 0 .7.3.7.7 0 .4-.3.7-.7.7zM22.7 33.4h-5.9c-.7 0-1.4-.4-1.9-1l-1.1-1.5c-.2-.3-.2-.8.2-1 .3-.2.8-.2 1 .2l1.1 1.5c.2.2.4.3.7.3h5.9c.4 0 .7.3.7.7 0 .5-.3.8-.7.8zM22.7 40.6h-5.9c-.7 0-1.4-.3-1.8-.9l-2-2.6c-.3-.3-.2-.8.1-1 .3-.3.8-.2 1 .1l2 2.6c.2.2.4.3.6.3h5.9c.4 0 .7.3.7.7.1.4-.2.8-.6.8zM22.7 44.2H16c-.4 0-.7-.3-.7-.7 0-.4.3-.7.7-.7h6.7c.4 0 .7.3.7.7 0 .3-.3.7-.7.7zM22.7 47.7H8.5c-.7 0-1.4-.4-1.9-1l-1.7-2.4c-.2-.3-.2-.8.2-1 .3-.2.8-.2 1 .2l1.7 2.4c.2.2.4.3.7.3h14.2c.4 0 .7.3.7.7 0 .5-.3.8-.7.8zM13.2 54.8c-.1 0-.3 0-.4-.1-.3-.2-.4-.7-.2-1l1.9-2.8c.4-.6 1.1-1 1.9-1h6.3c.4 0 .7.3.7.7 0 .4-.3.7-.7.7h-6.3c-.3 0-.5.1-.7.3l-1.9 2.8c-.2.3-.4.4-.6.4zM22.7 54.9H20c-.4 0-.7-.3-.7-.7 0-.4.3-.7.7-.7h2.7c.4 0 .7.3.7.7 0 .4-.3.7-.7.7zM17.3 66.8c-.4 0-.7-.3-.7-.7v-3.5c0-.3.1-.7.2-1l1.6-3.3c.4-.8 1.2-1.3 2.1-1.3h2.2c.4 0 .7.3.7.7 0 .4-.3.7-.7.7h-2.2c-.3 0-.6.2-.7.5l-1.6 3.3c-.1.1-.1.2-.1.4v3.5c0 .4-.3.7-.8.7z"/></g><g><path d="M22.5 68.5c-.4 0-.7-.3-.7-.7V64c0-.5.2-1 .4-1.3l2.1-2.8c.1-.1.2-.3.2-.5V59c0-.4.3-.7.7-.7.4 0 .7.3.7.7v.4c0 .5-.2 1-.4 1.3l-2.1 2.8c-.1.1-.2.3-.2.5v3.8c0 .4-.3.7-.7.7zM28.8 62.8c-.4 0-.7-.3-.7-.7V59c0-.4.3-.7.7-.7.4 0 .7.3.7.7v3c0 .4-.3.8-.7.8zM30.2 67.8c-.2 0-.5-.1-.6-.3-.2-.3-.2-.8.2-1l1.5-1.1c.2-.2.3-.4.3-.7v-5.9c0-.4.3-.7.7-.7.4 0 .7.3.7.7v5.9c0 .7-.4 1.4-1 1.9l-1.5 1.1c0 .1-.2.1-.3.1zM36.3 68.8c-.2 0-.4-.1-.6-.3-.3-.3-.2-.8.1-1l2.6-2c.2-.2.3-.4.3-.6V59c0-.4.3-.7.7-.7.4 0 .7.3.7.7v5.9c0 .7-.3 1.4-.9 1.8l-2.6 2c.1 0-.1.1-.3.1zM43.1 66.3c-.4 0-.7-.3-.7-.7v-6.7c0-.4.3-.7.7-.7.4 0 .7.3.7.7v6.7c.1.4-.3.7-.7.7zM43.6 76.9c-.2 0-.5-.1-.6-.3-.2-.3-.2-.8.2-1l2.4-1.7c.2-.2.3-.4.3-.7V58.9c0-.4.3-.7.7-.7.4 0 .7.3.7.7v14.2c0 .7-.4 1.4-1 1.9L44 76.7c-.1.1-.2.2-.4.2zM53.7 69.1c-.1 0-.3 0-.4-.1l-2.8-1.9c-.6-.4-1-1.1-1-1.9v-6.3c0-.4.3-.7.7-.7.4 0 .7.3.7.7v6.3c0 .3.1.5.3.7l2.8 1.9c.3.2.4.7.2 1 0 .2-.2.3-.5.3zM53.9 62.3c-.4 0-.7-.3-.7-.7v-2.7c0-.4.3-.7.7-.7.4 0 .7.3.7.7v2.7c0 .4-.3.7-.7.7zM65.8 65h-3.5c-.3 0-.7-.1-1-.2L58 63.1c-.8-.4-1.3-1.2-1.3-2.1v-2.2c0-.4.3-.7.7-.7.4 0 .7.3.7.7V61c0 .3.2.6.5.7l3.3 1.6c.1.1.2.1.4.1h3.5c.4 0 .7.3.7.7.1.5-.3.9-.7.9z"/></g></g><path fill="#474E5B" d="M18.3 18.8h45.4v44.4H18.3z"/><path fill="#F7C012" d="M57.9 57.9H24V24h23.7l10.2 9.8z"/><path d="M57 40.5c0-1.3-.7-2.5-1.8-3.1.3-.5.5-1.2.5-1.8 0-1.7-1.2-3.1-2.8-3.5v-.2c0-2-1.6-3.6-3.6-3.6-.5 0-.9.1-1.3.3-.5-1.6-1.9-2.6-3.5-2.6-1.3 0-2.5.7-3.1 1.8-.6-1.1-1.8-1.8-3.1-1.8-1.6 0-3 1.1-3.5 2.6-.4-.2-.9-.3-1.3-.3-2 0-3.6 1.6-3.6 3.6v.2c-1.6.4-2.8 1.8-2.8 3.5 0 .6.2 1.3.5 1.8-1.1.6-1.8 1.8-1.8 3.1 0 1.1.5 2.1 1.3 2.8-.2.5-.4 1-.4 1.6 0 1.8 1.3 3.3 3 3.6v.5c0 2 1.6 3.6 3.6 3.6.4 0 .8-.1 1.1-.2.4 1.5 1.8 2.6 3.5 2.6.5 0 1.1-.1 1.6-.4 0 0 .1 0 .1-.1 0 0 .1 0 .1-.1.1-.1.2-.1.4-.1.3 0 .7.2.8.4V59c0 .3.2.5.5.5h.1c.3 0 .5-.2.5-.5V54.8c0-.2.5-.4.8-.4.2 0 .3.1.4.1l.1.1s.1 0 .1.1c.5.2 1 .4 1.6.4 1.6 0 3-1.1 3.5-2.6.4.1.7.2 1.1.2 2 0 3.6-1.6 3.6-3.6v-.5c1.7-.3 3-1.8 3-3.6 0-.6-.1-1.1-.4-1.6.7-.8 1.2-1.8 1.2-2.9z" fill="#4A4F58"/><path d="M40.1 53.4c-.4 0-.7.1-1 .4-.4.2-.7.3-1.1.3-1.5 0-2.7-1.2-2.7-2.7 0-1.5 1.2-2.7 2.7-2.7.3 0 .5-.2.5-.5s-.2-.5-.5-.5c-2 0-3.6 1.6-3.6 3.6-.3.1-.6.2-1 .2-1.5 0-2.7-1.2-2.7-2.7v-.5c1.8-.2 3.2-1.6 3.3-3.5v-.1c0-1 .8-1.8 1.8-1.8s1.8.8 1.8 1.8c0 .3.2.5.5.5s.5-.2.5-.5c0-1.5-1.3-2.8-2.8-2.8-1.5 0-2.7 1.2-2.8 2.6v.1c0 1.5-1.2 2.6-2.6 2.7h-.1c-1.4 0-2.6-1.2-2.6-2.6 0-.4.1-.7.2-1.1.5.2 1 .3 1.5.3.3 0 .5-.2.5-.5s-.2-.5-.5-.5c-.5 0-1-.2-1.4-.4-.7-.5-1.2-1.3-1.2-2.2 0-1.5 1.2-2.7 2.7-2.7 1.5 0 2.7 1.2 2.7 2.7 0 .3.2.5.5.5s.5-.2.5-.5c0-2-1.6-3.6-3.6-3.6-.3 0-.6 0-1 .1-.3-.4-.4-.9-.4-1.4 0-1.5 1.2-2.7 2.7-2.7 1.5 0 2.7 1.2 2.7 2.7v.1c0 1.4 1.2 2.5 2.6 2.5.3 0 .5-.2.5-.5s-.2-.5-.5-.5c-.9 0-1.6-.7-1.6-1.6v-.1c0-1.9-1.6-3.5-3.5-3.6v-.1c0-1.5 1.2-2.7 2.7-2.7.4 0 .8.1 1.1.2h.1v.1c0 2 1.6 3.6 3.6 3.6.3 0 .5-.2.5-.5s-.2-.5-.5-.5c-1.5 0-2.7-1.2-2.7-2.7 0-1.5 1.2-2.7 2.7-2.7 1.3 0 2.4 1 2.6 2.3V53c-.6.5-.9.4-1.1.4z" fill="#E8523F"/><path d="M55.1 44.9c0 1.4-1.1 2.6-2.6 2.6h-.1c-1.5 0-2.6-1.2-2.6-2.7v-.1c-.1-1.5-1.3-2.6-2.8-2.6-1.5 0-2.8 1.3-2.8 2.8 0 .3.2.5.5.5s.5-.2.5-.5c0-1 .8-1.8 1.8-1.8s1.8.8 1.8 1.8v.1c.1 1.8 1.5 3.3 3.3 3.5v.5c0 1.5-1.2 2.7-2.7 2.7-.3 0-.7-.1-1-.2 0-2-1.6-3.6-3.6-3.6-.3 0-.5.2-.5.5s.2.5.5.5c1.5 0 2.7 1.2 2.7 2.7 0 1.5-1.2 2.7-2.7 2.7-.4 0-.8-.1-1.1-.3-.3-.2-.6-.4-1-.4-.3 0-.7.1-.8.2v-24-.3c.2-1.3 1.3-2.3 2.6-2.3 1.5 0 2.6 1.2 2.6 2.7 0 1.5-1.2 2.7-2.7 2.7-.3 0-.5.2-.5.5s.2.5.5.5c2 0 3.6-1.6 3.6-3.6v-.1h.1c.3-.2.7-.2 1.1-.2 1.5 0 2.7 1.2 2.7 2.7v.1c-1.9.1-3.5 1.6-3.5 3.5v.1c0 .9-.7 1.6-1.6 1.6-.3 0-.5.2-.5.5s.2.5.5.5c1.4 0 2.5-1.1 2.6-2.5v-.1c0-1.5 1.2-2.7 2.7-2.7 1.5 0 2.7 1.2 2.7 2.7 0 .5-.1 1-.4 1.4-.3-.1-.6-.1-1-.1-2 0-3.6 1.6-3.6 3.6 0 .3.2.5.5.5s.5-.2.5-.5c0-1.5 1.2-2.7 2.7-2.7 1.5 0 2.7 1.2 2.7 2.7 0 .9-.5 1.7-1.2 2.2-.4.3-.9.4-1.4.4-.3 0-.5.2-.5.5s.2.5.5.5c.5 0 1.1-.1 1.5-.3-.1-.1 0 .2 0 .6z" fill="#63AFB6"/><path d="M38.3 37.4c0 .3.2.5.5.5s.5-.2.5-.5c0-1.4-1.2-2.6-2.6-2.6-.3 0-.5.2-.5.5s.2.5.5.5c.9 0 1.6.7 1.6 1.6zM37.3 28.5c-.3 0-.5.2-.5.5s.2.5.5.5c.4 0 .8.1 1.2.4.3.3.5.7.5 1.1 0 .3.2.5.5.5s.5-.2.5-.5c0-.7-.3-1.3-.8-1.8-.6-.5-1.2-.7-1.9-.7zM43.3 31.4c.3 0 .5-.2.5-.5 0-.9.8-1.6 1.7-1.5.3 0 .5-.2.5-.5s-.2-.5-.5-.5c-.7 0-1.3.2-1.9.7-.5.5-.8 1.1-.8 1.8 0 .3.3.5.5.5zM36.6 39.6c-.3.1-.4.4-.3.6.1.3.4.4.6.3.8-.3 1.7.2 2 1 .1.2.3.3.5.3h.1c.3-.1.4-.4.3-.6-.4-1.3-1.8-2-3.2-1.6zM39.2 49.2c-.3 0-.5.2-.5.4-.1.9-.9 1.5-1.7 1.5-.3 0-.5.2-.5.4 0 .3.2.5.4.5h.2c1.3 0 2.4-1 2.6-2.3 0-.2-.2-.4-.5-.5zM43.6 49.2c-.3 0-.5.3-.4.5.1 1.3 1.2 2.3 2.6 2.3h.2c.3 0 .5-.3.4-.5 0-.3-.3-.5-.5-.4-.9.1-1.7-.6-1.7-1.5-.1-.2-.4-.4-.6-.4zM52.9 39.9c-.3 0-.5.2-.5.5 0 .4-.2.8-.5 1.1-.3.3-.7.5-1.1.4-.3 0-.5.2-.5.5s.2.5.5.5h.1c.7 0 1.3-.3 1.8-.7.5-.5.8-1.1.8-1.8-.1-.2-.3-.5-.6-.5zM32 42c-.4 0-.8-.2-1.1-.4-.3-.3-.5-.7-.5-1.1 0-.3-.2-.5-.5-.5s-.5.2-.5.5c0 .7.3 1.3.8 1.8s1.1.7 1.8.7h.1c.3 0 .5-.2.5-.5-.1-.3-.3-.5-.6-.5zM46.2 39.6c-1.3-.4-2.8.3-3.2 1.7-.1.3.1.5.3.6h.1c.2 0 .4-.1.5-.3.3-.8 1.2-1.3 2-1 .3.1.5-.1.6-.3.1-.3-.1-.6-.3-.7zM44.1 37.9c.3 0 .5-.2.5-.5 0-.9.7-1.6 1.6-1.6.3 0 .5-.2.5-.5s-.2-.5-.5-.5c-1.4 0-2.6 1.2-2.6 2.6 0 .3.2.5.5.5z" fill="#4A4F58"/></g></svg>