<svg width="82" height="82" viewBox="0 0 82 82" xmlns="http://www.w3.org/2000/svg"><title>total_cost_of_ownership</title><g fill-rule="nonzero" fill="none"><circle fill="#474E5B" cx="41" cy="41" r="41"/><path d="M59.3 67.1H22.7c-.5 0-.8-.4-.8-.8V15.1c0-.5.4-.8.8-.8h36.6c.5 0 .8.4.8.8v51.2c0 .4-.3.8-.8.8z" fill="#FBFDFB"/><path fill="#BCDFE0" d="M26 19.8h29.9v10.3H26z"/><path fill="#63AFB6" d="M27.3 21.2h27.2v6.7H27.3z"/><path d="M32.6 37.5h-6.5c-.1 0-.1-.1-.1-.1v-3.9c0-.1.1-.1.1-.1h6.5c.1 0 .1.1.1.1v3.9c.1 0 0 .1-.1.1zM40.4 37.5h-6.5c-.1 0-.1-.1-.1-.1v-3.9c0-.1.1-.1.1-.1h6.5c.1 0 .1.1.1.1v3.9s0 .1-.1.1zM48.1 37.5h-6.5c-.1 0-.1-.1-.1-.1v-3.9c0-.1.1-.1.1-.1h6.5c.1 0 .1.1.1.1v3.9c.1 0 0 .1-.1.1zM55.9 37.5h-6.5c-.1 0-.1-.1-.1-.1v-3.9c0-.1.1-.1.1-.1h6.5c.1 0 .1.1.1.1v3.9l-.1.1z" fill="#474E5B"/><path d="M32.6 42.7h-6.5c-.1 0-.1-.1-.1-.1v-3.9c0-.1.1-.1.1-.1h6.5c.1 0 .1.1.1.1v3.9c.1.1 0 .1-.1.1z" fill="#E8523F"/><path d="M40.4 42.7h-6.5c-.1 0-.1-.1-.1-.1v-3.9c0-.1.1-.1.1-.1h6.5c.1 0 .1.1.1.1v3.9c0 .1 0 .1-.1.1zM48.1 42.7h-6.5c-.1 0-.1-.1-.1-.1v-3.9c0-.1.1-.1.1-.1h6.5c.1 0 .1.1.1.1v3.9c.1.1 0 .1-.1.1zM55.9 42.7h-6.5c-.1 0-.1-.1-.1-.1v-3.9c0-.1.1-.1.1-.1h6.5c.1 0 .1.1.1.1v3.9c0 .1-.1.1-.1.1z" fill="#474E5B"/><path d="M32.6 47.9h-6.5c-.1 0-.1-.1-.1-.1v-3.9c0-.1.1-.1.1-.1h6.5c.1 0 .1.1.1.1v3.9c.1.1 0 .1-.1.1zM40.4 47.9h-6.5c-.1 0-.1-.1-.1-.1v-3.9c0-.1.1-.1.1-.1h6.5c.1 0 .1.1.1.1v3.9c0 .1 0 .1-.1.1zM48.1 47.9h-6.5c-.1 0-.1-.1-.1-.1v-3.9c0-.1.1-.1.1-.1h6.5c.1 0 .1.1.1.1v3.9c.1.1 0 .1-.1.1z" fill="#BCDFE0"/><path d="M55.9 47.9h-6.5c-.1 0-.1-.1-.1-.1v-3.9c0-.1.1-.1.1-.1h6.5c.1 0 .1.1.1.1v3.9c0 .1-.1.1-.1.1z" fill="#474E5B"/><path d="M32.6 58.1h-6.5c-.1 0-.1-.1-.1-.2V54c0-.1.1-.1.1-.1h6.5c.1 0 .1.1.1.1v3.9c.1.1 0 .2-.1.2zM40.4 58.1h-6.5c-.1 0-.1-.1-.1-.1v-3.9c0-.1.1-.1.1-.1h6.5c.1 0 .1.1.1.1V58s0 .1-.1.1zM40.3 63.3H26.2c-.1 0-.2-.1-.2-.2v-3.7c0-.1.1-.2.2-.2h14.1c.1 0 .2.1.2.2v3.7c0 .1-.1.2-.2.2zM48.1 58.1h-6.5c-.1 0-.1-.1-.1-.1v-3.9c0-.1.1-.1.1-.1h6.5c.1 0 .1.1.1.1V58c.1 0 0 .1-.1.1zM48.1 63.3h-6.5c-.1 0-.1-.1-.1-.1v-3.9c0-.1.1-.1.1-.1h6.5c.1 0 .1.1.1.1v3.9c.1 0 0 .1-.1.1z" fill="#BCDFE0"/><path d="M55.8 63.3h-6.4c-.1 0-.2-.1-.2-.2v-9c0-.1.1-.2.2-.2h6.4c.1 0 .2.1.2.2v9c0 .1-.1.2-.2.2zM29.3 55.5l-.3.2-.1-.3.5-.2h.3v1.7h-.4zM30 45v.3l-.7 1.5h-.4l.7-1.4h-.8V45zM36.6 46.3c0-.2.1-.4.3-.4-.2-.1-.3-.2-.3-.4 0-.3.3-.5.6-.5.4 0 .6.2.6.4s-.1.3-.3.4c.2.1.3.2.3.4 0 .3-.3.5-.7.5-.3.1-.5-.2-.5-.4zm.9 0c0-.2-.1-.2-.3-.3-.1 0-.2.1-.2.3 0 .1.1.2.2.2.2 0 .3-.1.3-.2zm-.4-.8c0 .1.1.2.2.2s.2-.1.2-.2-.1-.2-.2-.2c-.2 0-.2.1-.2.2zM44.5 46.5h.2c.1 0 .2 0 .3-.1.1-.1.2-.2.2-.3-.1.1-.2.1-.3.1-.3 0-.5-.2-.5-.5s.3-.6.7-.6c.4 0 .7.3.7.8 0 .4-.1.6-.3.8-.2.2-.4.2-.7.2h-.2v-.4h-.1zm.2-.9c0 .2.1.3.2.3s.2-.1.2-.1v-.1c0-.2-.1-.4-.3-.4 0 0-.1.1-.1.3zM36.4 56.9v-.2l.2-.2c.4-.3.6-.5.6-.7 0-.1-.1-.3-.3-.3-.2 0-.3.1-.4.1l-.1-.3c.1-.1.3-.2.6-.2.4 0 .6.2.6.5s-.2.5-.5.8l-.1.2h.7v.3h-1.3zM33.7 61.4c0 .5-.2.9-.7.9-.5 0-.6-.4-.7-.9 0-.5.2-.9.7-.9.5 0 .7.4.7.9zm-.9 0c0 .4.1.6.3.6.2 0 .2-.2.2-.6 0-.4-.1-.6-.2-.6-.2 0-.3.2-.3.6zM44.8 62c0-.1.1-.2.2-.2s.2.1.2.2-.1.2-.2.2c-.1.1-.2 0-.2-.2z" fill="#63AFB6"/><path d="M52 61v-.2h1.4v.2H52zm0 .6v-.2h1.4v.2H52z" fill="#FBFDFB"/><path d="M32.6 53h-6.5c-.1 0-.1-.1-.1-.1V49c0-.1.1-.1.1-.1h6.5c.1 0 .1.1.1.1v3.9c.1 0 0 .1-.1.1z" fill="#BCDFE0"/><path d="M29.5 51.8v-.4h-.8v-.3l.7-1.1h.5v1h.2v.3h-.2v.4h-.4v.1zm0-.7v-.4-.3c-.1.1-.1.2-.2.3l-.2.4h.4z" fill="#63AFB6"/><path d="M40.4 53h-6.5c-.1 0-.1-.1-.1-.1V49c0-.1.1-.1.1-.1h6.5c.1 0 .1.1.1.1v3.9s0 .1-.1.1z" fill="#BCDFE0"/><path d="M37.6 50.4h-.7v.3h.1c.2 0 .3 0 .5.1.1.1.2.2.2.4 0 .3-.3.6-.7.6-.2 0-.4 0-.5-.1l.1-.3c.1 0 .2.1.4.1s.3-.1.3-.3c0-.2-.1-.3-.5-.3h-.2l.1-.9h1v.4h-.1z" fill="#63AFB6"/><path d="M48.1 53h-6.5c-.1 0-.1-.1-.1-.1V49c0-.1.1-.1.1-.1h6.5c.1 0 .1.1.1.1v3.9c.1 0 0 .1-.1.1z" fill="#BCDFE0"/><path d="M45.4 50.4h-.2c-.4 0-.5.2-.6.4.1-.1.2-.1.4-.1.3 0 .5.2.5.6 0 .3-.3.6-.6.6-.5 0-.7-.3-.7-.8 0-.3.1-.6.3-.8.2-.2.4-.2.7-.3h.2v.4zm-.3.9c0-.2-.1-.3-.3-.3-.1 0-.2.1-.2.2v.1c0 .2.1.4.3.4.1-.1.2-.3.2-.4z" fill="#63AFB6"/><path d="M55.9 53h-6.5c-.1 0-.1-.1-.1-.1V49c0-.1.1-.1.1-.1h6.5c.1 0 .1.1.1.1v3.9l-.1.1z" fill="#474E5B"/><path fill="#FBFDFB" d="M52.8 50.4v.6h.6v.3h-.6v.6h-.3v-.6H52V51h.6v-.6zM53 45.9v.3h-.7v-.3zM52.5 40.2l.1.2c0 .1.1.1.1.2 0-.1.1-.1.1-.2l.1-.2h.4l-.3.6.4.7h-.5l-.1-.2c0-.1-.1-.1-.1-.2 0 .1-.1.1-.1.2l-.1.2H52l.4-.7-.4-.6h.5zM29.8 41.4c-.1 0-.2.1-.4.1-.4 0-.7-.3-.7-.7 0-.4.3-.7.8-.7.1 0 .2 0 .3.1l-.1.3h-.2c-.2 0-.4.2-.4.4s.2.4.4.4h.2l.1.1z"/><g fill="#FBFDFB"><path d="M29.2 35.6V35c0 .2-.1.4-.2.6l-.2.6h-.3l-.2-.6c0-.2-.1-.4-.1-.6v1.1h-.3l.1-1.4h.4l.1.5c0 .2.1.3.1.5 0-.2.1-.4.1-.5l.2-.5h.4l.1 1.4h-.3l.1-.5zM30.8 36.2c-.1 0-.2.1-.4.1-.5 0-.8-.3-.8-.7 0-.5.4-.8.8-.8.2 0 .3 0 .4.1l-.1.3c-.1 0-.2-.1-.3-.1-.3 0-.5.2-.5.5s.2.5.5.5h.3l.1.1z"/></g><g fill="#FBFDFB"><path d="M37 35.6V35c0 .2-.1.4-.2.6l-.2.6h-.3l-.2-.6c0-.2-.1-.4-.1-.6v1.1h-.3l.1-1.4h.4l.1.5c0 .2.1.3.1.5 0-.2.1-.4.1-.5l.2-.5h.4l.1 1.4H37v-.5zM38.1 35.5v.2h-.6v-.2z"/></g><g fill="#FBFDFB"><path d="M44.6 35.6V35c0 .2-.1.4-.2.6l-.2.6H44l-.2-.6c0-.2-.1-.4-.1-.6v1.1h-.3l.1-1.4h.4l.1.5c0 .2.1.3.1.5 0-.2.1-.4.1-.5l.2-.5h.4l.1 1.4h-.3v-.5zM45.8 35.1v.5h.4v.2h-.4v.5h-.2v-.5h-.4v-.2h.4v-.5z"/></g><g fill="#FBFDFB"><path d="M52.4 35.6V35c0 .2-.1.4-.2.6l-.2.6h-.3l-.2-.6c0-.2-.1-.4-.1-.6v1.1h-.3l.1-1.4h.4l.1.5c0 .2.1.3.1.5 0-.2.1-.4.1-.5l.2-.5h.4l.1 1.4h-.3l.1-.5zM53 34.8h.4c.2 0 .4 0 .5.1.1 0 .1.1.1.2 0 .2-.1.3-.3.4.1 0 .2.1.2.3 0 .2.1.4.1.4h-.3s-.1-.2-.1-.3c0-.2-.1-.2-.2-.2h-.1v.6H53v-1.5zm.3.6h.1c.2 0 .3-.1.3-.2s-.1-.2-.2-.2h-.1v.4h-.1z"/></g><path fill="#FBFDFB" d="M44.3 41.8l.6-1.9h.3l-.6 1.9zM36.9 40.4c0 .4-.2.6-.5.6s-.5-.2-.5-.5.2-.5.5-.5c.3-.1.5.1.5.4zm-.7 0c0 .2.1.3.2.3s.2-.1.2-.3c0-.2 0-.3-.2-.3-.1 0-.2.1-.2.3zm.2 1.3l1-1.8h.2l-1 1.8h-.2zm1.7-.6c0 .4-.2.6-.5.6s-.5-.2-.5-.5.2-.5.5-.5c.3-.1.5.1.5.4zm-.6 0c0 .2.1.3.2.3s.2-.1.2-.3c0-.2 0-.3-.2-.3s-.2.2-.2.3z"/><path d="M44.5 56.5c.1 0 .2.1.4.1s.3-.1.3-.2c0-.2-.2-.2-.4-.2h-.2v-.3h.2c.1 0 .3-.1.3-.2s-.1-.2-.3-.2c-.1 0-.3.1-.4.1l-.1-.3c.1-.1.3-.1.5-.1.4 0 .6.2.6.4s-.1.3-.3.4c.2 0 .4.2.4.4 0 .3-.3.5-.7.5-.2 0-.4-.1-.5-.1l.2-.3z" fill="#63AFB6"/></g></svg>