<svg xmlns="http://www.w3.org/2000/svg" width="64.531" height="94.656" viewBox="0 0 64.531 94.656"><defs><style>.cls-1{fill:#2e3847;fill-rule:evenodd}</style></defs><path id="user_pro.svg" class="cls-1" d="M462.134 730.131a1.4 1.4 0 0 0-1.4 1.387v13.037a.772.772 0 0 1-.775.766h-7.539v-27.307a1.4 1.4 0 0 0-2.805 0v27.307h-15.184l4.4-4.789a2.467 2.467 0 0 0 .607-1.994c0-.014 0-.028-.007-.042l-4.193-24.491 1.13-1.682a3.2 3.2 0 0 0 2.008.861 2.459 2.459 0 0 0 2.2-1.344l4.424-8.763 10.075 3.857a9.62 9.62 0 0 1 5.657 8.734v9.379a1.4 1.4 0 0 0 2.805 0v-9.379a12.392 12.392 0 0 0-7.4-11.3l-.027-.01-16.768-6.421v-3.888a12.96 12.96 0 0 0 4.973-8.547 6.1 6.1 0 0 0 3.566-1.438 5.84 5.84 0 0 0 .622-8.307v-5.136a17.384 17.384 0 0 0-34.765 0v5.271a5.532 5.532 0 0 0-1.446 3.711 5.849 5.849 0 0 0 2.068 4.462 6.106 6.106 0 0 0 3.564 1.437 12.829 12.829 0 0 0 5.258 8.752v3.683l-16.75 6.42-.027.011a12.392 12.392 0 0 0-7.4 11.3v28.888a3.564 3.564 0 0 0 3.58 3.539h13.362a1.387 1.387 0 1 0 0-2.774h-3.017v-27.307a1.4 1.4 0 0 0-2.805 0v27.307h-7.54a.772.772 0 0 1-.775-.766v-28.888a9.618 9.618 0 0 1 5.656-8.732l10.067-3.859 4.423 8.764a2.46 2.46 0 0 0 2.2 1.344 3.2 3.2 0 0 0 2.008-.861l1.129 1.682L423.1 738.5c0 .014-.005.028-.007.042a2.468 2.468 0 0 0 .607 1.994l4.4 4.789h-5.609a1.387 1.387 0 1 0 0 2.773h37.469a3.564 3.564 0 0 0 3.58-3.539v-13.041a1.4 1.4 0 0 0-1.406-1.387zm-19.762-28.06l-4.124 8.17-4.958-3.482 5.093-6.216zm-8.291 8.646l-1.069 1.591h-3.5l-1.069-1.591 2.818-1.979zm-8.1-12.334v-2.6a14.375 14.375 0 0 0 5.3.994 13.3 13.3 0 0 0 5.246-1.081v2.693l-5.27 6.431zm21.16-18.783a3.09 3.09 0 0 1-1.092 2.357 3.275 3.275 0 0 1-1.619.738v-6.19a3.148 3.148 0 0 1 2.711 3.095zm-29.336 3.1a3.145 3.145 0 0 1-2.711-3.1 3.306 3.306 0 0 1 2.711-3.024v6.12zm.076-8.946a7.058 7.058 0 0 0-1.341.3v-3.431a14.578 14.578 0 0 1 29.155 0v3.336a6.273 6.273 0 0 0-1.265-.242c0-1.338.012-1.08-4.416-5.786a2.516 2.516 0 0 0-3.186-.384 27.27 27.27 0 0 1-16.347 4.351 2.49 2.49 0 0 0-2.6 1.853zm2.729 10.037v-9.106a30.235 30.235 0 0 0 17.53-4.675c2.031 2.156 3.13 3.286 3.485 3.716v10.065a10.512 10.512 0 0 1-21.015-.003zm3.668 26.453l-4.123-8.17 3.982-1.525 5.094 6.217zm1.61 28.554l4.059-23.714h2.632l4.059 23.714-5.375 5.847z" transform="translate(-399 -653.438)"/></svg>