<svg width="82" height="82" viewBox="0 0 82 82" xmlns="http://www.w3.org/2000/svg"><title>virtual_desktop_interfacing</title><g fill-rule="nonzero" fill="none"><circle fill="#E8523F" cx="41" cy="41" r="41"/><path d="M35.5 43.8h-1.4v-3.7c0-1.1.9-2.1 2.1-2.1h10c.3 0 .5-.2.5-.5v-1.4c0-.3-.2-.5-.5-.5H36c-1 0-1.9-.8-1.9-1.9v-1.4c0-1 .8-1.8 1.7-1.9H46c.4 0 .7-.3.7-.7V26h1.4v3.7c0 1.1-.9 2.1-2.1 2.1H36c-.3 0-.5.2-.5.5v1.4c0 .3.2.5.5.5h10.1c1 0 1.9.8 1.9 1.9v1.4c0 1-.8 1.8-1.7 1.9H36.1c-.4 0-.7.3-.7.7v3.7h.1z" fill="#4A4F58"/><path fill="#474E5B" d="M12.1 37.1h57.2v26.6H12.1z"/><g fill="#FFF"><path d="M16.1 41.2h4.2V45h-4.2zM21.7 41.2h4.2V45h-4.2zM27.3 41.2h4.2V45h-4.2zM33 41.2h4.2V45H33zM38.6 41.2h4.2V45h-4.2zM44.2 41.2h4.2V45h-4.2zM49.9 41.2h4.2V45h-4.2zM55.5 41.2h4.2V45h-4.2zM61.2 41.2h4.2V45h-4.2zM16.1 47.2h4.2V51h-4.2zM21.7 47.2h4.2V51h-4.2zM27.3 47.2h4.2V51h-4.2zM33 47.2h4.2V51H33zM38.6 47.2h4.2V51h-4.2zM44.2 47.2h4.2V51h-4.2zM49.9 47.2h4.2V51h-4.2zM55.5 47.2h4.2V51h-4.2zM61.2 47.2h4.2V51h-4.2zM16.1 53.2h4.2V57h-4.2zM21.7 53.2h4.2V57h-4.2zM27.3 53.2h4.2V57h-4.2zM33 53.2h26.7V57H33zM61.2 53.2h4.2V57h-4.2z"/></g><path d="M59.3 25.6v.2c-.1.8-.7 1.5-1.3 2-.6.6-1.8.9-2.6 1H32.3c-1.4 0-2.3-.5-3.2-1.2-.4-.3-.6-.7-.9-1.1-.1-.1-.1-.3-.2-.5 0-.1 0-.1-.1-.2-.3-.6-.4-1.3-.5-2-.3-3.9 2.6-5.2 4.8-5.8-.8-4.9 3.7-8.7 8.6-8.7 2.2 0 4.2.9 5.6 2.2 1.4 1.3 2.3 3.2 2.4 5.2 0 0 .1 0 .3-.1.4-.1 1.5-.5 3.3 0 2.2.6 3.5 2.5 3.7 4.7.1.5.1.6 0 .9.9.2 1.8.6 2.3 1.3.7.7.9 1.4.9 2.1z" fill="#63AFB6"/><path d="M46 17.6c-.4 0-.7-.3-.7-.7-.1-1.1-.5-2.1-1.3-2.9-.8-.8-1.9-1.2-3.1-1.2-1.8 0-3.5.9-4.3 2.2-.2.3-.6.4-1 .2-.3-.2-.4-.6-.2-1 1.1-1.8 3.2-2.9 5.5-2.9 1.5 0 3 .6 4.1 1.6 1 1 1.7 2.3 1.8 3.8 0 .6-.3.9-.8.9.1 0 .1 0 0 0z" fill="#474E5B"/></g></svg>