<svg width="152" height="53" viewBox="0 0 152 53" xmlns="http://www.w3.org/2000/svg"><title>zoho-01</title><defs><linearGradient x1="50.18%" y1="1.537%" x2="50.18%" y2="97.219%" id="a"><stop stop-color="#F7E517" offset=".562%"/><stop stop-color="#F6B921" offset="100%"/></linearGradient><linearGradient x1="4.459%" y1="13.748%" x2="95.592%" y2="86.752%" id="b"><stop stop-color="#208ABC" offset=".562%"/><stop stop-color="#17669C" offset="100%"/></linearGradient><linearGradient x1="50.046%" y1="27.691%" x2="50.046%" y2="97.348%" id="c"><stop stop-color="#239543" offset="0%"/><stop stop-color="#168A52" offset="100%"/></linearGradient><linearGradient x1="43.665%" y1="9.902%" x2="57.391%" y2="91.281%" id="d"><stop stop-color="#D92331" offset="0%"/><stop stop-color="#BB2135" offset="100%"/></linearGradient></defs><g fill-rule="nonzero" fill="none"><path fill="#E69224" d="M150.9 11.1v35.8l-5 4.8v-35z"/><path fill="#F6F170" d="M118.5 11.1l-5.1 5.6.3.4 32.2-.1.3-.2 4.9-5.6z"/><path fill="url(#a)" d="M113.3 16.7H146v35h-32.7z"/><path d="M141.1 29.3c-.6-1.6-1.6-3.1-2.9-4.4-1.2-1.2-2.6-2.2-4.1-2.8-1.5-.6-3.1-.9-4.9-.9-1.8 0-3.4.3-4.9.9-1.5.6-2.9 1.6-4.1 2.8-1.3 1.3-2.2 2.7-2.9 4.4-.7 1.7-.9 3.4-.9 5.3s.3 3.7 1 5.3c.6 1.7 1.6 3.1 2.9 4.4 1.2 1.2 2.5 2.1 4 2.7 1.5.6 3.2.9 5 .9 1.7 0 3.4-.3 4.9-.9 1.5-.6 2.9-1.5 4.1-2.7 1.3-1.3 2.2-2.8 2.9-4.4.6-1.6 1-3.4 1-5.3-.2-1.9-.5-3.7-1.1-5.3zm-6.8 11.6c-1.3 1.5-2.9 2.3-5.1 2.3-2.2 0-3.9-.8-5.2-2.3-1.3-1.5-1.9-3.6-1.9-6.2 0-2.7.6-4.8 1.9-6.3 1.3-1.5 2.9-2.3 5.2-2.3 2.2 0 3.9.8 5.1 2.3 1.2 1.5 1.9 3.6 1.9 6.3 0 2.6-.6 4.7-1.9 6.2z" fill="#FFF"/><path fill="#1F97C3" d="M110.1 8.2v.2l4.2 32.2-2.4 6.8-.3-.2-4.3-30.8.1-.4 2.7-7.5z"/><path fill="#91C8DF" d="M77.9 12.7l32.2-4.5-2.7 7.7-.4.4-30.1 4.4.1-5.5z"/><path fill="url(#b)" d="M32.4 7.9l4.5 31.4-31.7 4.5L.9 13.5l1.9-1.4z" transform="translate(75 8)"/><path d="M102 21.9c-.1-1-.5-1.7-1-2.2-.4-.4-1-.6-1.6-.6h-.5c-.8.1-1.4.5-1.8 1.1-.3.4-.4 1-.4 1.7 0 .2 0 .5.1.8l1.1 8.2-9.1 1.4-1.1-8.2c-.1-.9-.5-1.7-1-2.2-.4-.4-1-.6-1.6-.6h-.4c-.9.1-1.5.5-1.9 1.1-.3.4-.4 1-.4 1.7 0 .2 0 .5.1.8l3.1 21.3c.1 1 .5 1.7 1.1 2.2.4.4 1 .6 1.6.6h.5c.8-.1 1.4-.5 1.8-1.1.3-.4.4-1 .4-1.6 0-.2 0-.5-.1-.8L89.5 37l9.1-1.4 1.3 8.4c.1 1 .5 1.7 1 2.2.4.4 1 .6 1.6.6h.5c.8-.1 1.4-.5 1.8-1.1.3-.4.4-1 .4-1.6 0-.2 0-.5-.1-.8L102 21.9z" fill="#FFF"/><g><path fill="#67B86A" d="M47.7 0L36.3 27.2l1.6 12h.1l12.9-29-.1-.6L48 .4z"/><path fill="#97CD9F" d="M47.7 0l3 10 .1.2 28.4 12.7.1-.1-2.4-9.5z"/><path fill="url(#c)" d="M14.7 10l28.5 12.9-12.9 29.2L1.8 39.2z" transform="translate(36)"/><path d="M70.6 25.2c-.6-1.6-1.5-3.1-2.6-4.2-1.1-1.2-2.5-2.1-4.1-2.8-1.6-.7-3.2-1-4.8-1H59c-1.7 0-3.3.4-4.9 1.1-1.7.7-3.1 1.7-4.4 3.1-1.2 1.3-2.2 2.9-3 4.7-.8 1.8-1.2 3.6-1.3 5.4v.6c0 1.6.3 3.2.8 4.7.6 1.6 1.4 3 2.6 4.2 1.2 1.2 2.5 2.1 4.2 2.8 1.6.7 3.2 1 4.8 1 1.6 0 3.2-.4 4.8-1 1.7-.7 3.2-1.8 4.4-3.1 1.2-1.3 2.3-2.9 3-4.7.7-1.8 1.2-3.6 1.3-5.4V30c.1-1.6-.1-3.2-.7-4.8zm-5.7 8.5c-1.1 2.5-2.5 4.3-4.2 5.2-.9.5-1.9.8-2.9.8-.9 0-1.8-.2-2.7-.6-2-.9-3.2-2.2-3.8-4.2-.2-.6-.3-1.3-.3-2 0-1.4.4-3 1.1-4.7 1.1-2.6 2.5-4.4 4.3-5.3.9-.5 1.9-.8 2.9-.8.9 0 1.8.2 2.7.6 2 .9 3.2 2.2 3.7 4.2.2.6.3 1.3.3 2 0 1.5-.4 3.1-1.1 4.8z" fill="#FFF"/></g><g><path fill="#771016" d="M34 4.6l4.7 31.2-2.1 11-.3-.4-4.5-30.1v-.6l2-10.5z"/><path fill="#ED463E" d="M0 20.8l2.2-11L34 4.6l-2.2 11.2v.7L.4 21z"/><path fill="url(#d)" d="M31.9 11.9l4.7 30.9-31.5 4.9L0 16.8z" transform="translate(0 4)"/><path d="M28.5 41.9c-.2-.3-.6-.5-1-.6-.4-.1-.9-.2-1.5-.2s-1.2.1-1.9.2l-8.3 1.4c.1-.6.4-1.5 1-2.5.6-1.1 1.6-2.5 2.8-4.1.4-.6.7-1 1-1.3.1-.2.4-.5.7-.9 1.9-2.5 3.1-4.5 3.5-6.1.3-.9.4-1.8.5-2.7v-.7c0-.6-.1-1.3-.2-1.9-.1-.6-.2-1.1-.4-1.4-.2-.3-.4-.7-.7-.9-.3-.2-.8-.3-1.4-.3-.5 0-1.1.1-1.9.2l-9.6 1.7c-1.1.2-2 .5-2.6 1.1-.4.4-.6.9-.6 1.5v.5c.1.8.6 1.4 1.2 1.7.4.2.9.3 1.5.3.4 0 .8 0 1.3-.1l8-1.4v.4c0 .5-.1 1-.3 1.5-.2.7-.8 1.6-1.8 2.8-.3.3-.7.9-1.2 1.5-2.2 2.6-3.7 4.9-4.7 6.7-.7 1.3-1.1 2.5-1.4 3.8-.1.7-.2 1.4-.2 2.1 0 .5 0 .9.1 1.4.1.6.3 1.2.5 1.6.2.4.5.7.8.9.2-.1.7-.1 1.3-.1.8 0 1.9-.1 3.3-.4l8.7-1.5c1.5-.3 2.6-.6 3.2-1.1.5-.4.8-1 .8-1.6 0-.2 0-.4-.1-.5 0-.4-.2-.8-.4-1z" fill="#FFF"/></g></g></svg>